<svg xmlns="http://www.w3.org/2000/svg" xmlns:xlink="http://www.w3.org/1999/xlink" width="266.456" height="80.875" viewBox="0 0 266.456 80.875">
  <defs>
    <filter id="Trazado_710462" x="46.456" y="12.938" width="220" height="61" filterUnits="userSpaceOnUse">
      <feOffset dy="2" input="SourceAlpha"/>
      <feGaussianBlur stdDeviation="2" result="blur"/>
      <feFlood flood-opacity="0.161"/>
      <feComposite operator="in" in2="blur"/>
      <feComposite in="SourceGraphic"/>
    </filter>
    <radialGradient id="radial-gradient" cx="0.076" cy="0.019" r="1.465" gradientTransform="translate(0.001)" gradientUnits="objectBoundingBox">
      <stop offset="0" stop-color="#f6f6f7"/>
      <stop offset="0.477" stop-color="#f9f9fa"/>
      <stop offset="0.715" stop-color="#fff"/>
    </radialGradient>
    <clipPath id="clip-path">
      <rect id="Rectángulo_345916" data-name="Rectángulo 345916" width="28.768" height="32.142" fill="#12263f"/>
    </clipPath>
  </defs>
  <g id="Grupo_1001565" data-name="Grupo 1001565" transform="translate(9926.503 9525.938)">
    <g transform="matrix(1, 0, 0, 1, -9926.5, -9525.94)" filter="url(#Trazado_710462)">
      <path id="Trazado_710462-2" data-name="Trazado 710462" d="M5,0H203a5,5,0,0,1,5,5V44a5,5,0,0,1-5,5H5a5,5,0,0,1-5-5V5A5,5,0,0,1,5,0Z" transform="translate(52.46 16.94)" fill="#f6f6f6"/>
    </g>
    <g id="Grupo_1001206" data-name="Grupo 1001206" transform="translate(-9926.503 -9525.938)">
      <g id="Grupo_18531" data-name="Grupo 18531" transform="translate(0 0)">
        <g id="Grupo_18423" data-name="Grupo 18423" transform="translate(0 0)">
          <g id="Grupo_18421" data-name="Grupo 18421">
            <g id="Grupo_18420" data-name="Grupo 18420">
              <g id="Grupo_18419" data-name="Grupo 18419">
                <path id="Trazado_40936" data-name="Trazado 40936" d="M275.5,2186.157a40.437,40.437,0,1,1-40.436-40.436A40.437,40.437,0,0,1,275.5,2186.157Z" transform="translate(-194.623 -2145.721)" fill="#fff"/>
              </g>
            </g>
          </g>
          <path id="Trazado_40937" data-name="Trazado 40937" d="M275.318,2185.962a40.436,40.436,0,1,0-40.436,40.438A40.277,40.277,0,0,0,275.318,2185.962Z" transform="translate(-194.444 -2145.525)" fill="url(#radial-gradient)"/>
          <path id="Trazado_40938" data-name="Trazado 40938" d="M264.231,2184.46a30.865,30.865,0,1,0-30.865,30.865A30.751,30.751,0,0,0,264.231,2184.46Z" transform="translate(-192.806 -2143.889)" fill="none" stroke="#7e5ee3" stroke-miterlimit="10" stroke-width="3"/>
          <g id="Grupo_18422" data-name="Grupo 18422" transform="translate(7.164 22.702)">
            <path id="Trazado_40939" data-name="Trazado 40939" d="M270.166,2164.488a40.442,40.442,0,0,1-69.621,40.27,40.313,40.313,0,0,0,69.621-40.27Z" transform="translate(-200.545 -2164.488)" fill="#eceef0"/>
          </g>
        </g>
      </g>
    </g>
    <g id="Grupo_1001207" data-name="Grupo 1001207" transform="translate(289.953 746)">
      <g id="Grupo_1001192" data-name="Grupo 1001192" transform="translate(-10193.488 -10245.877)">
        <g id="Grupo_1001191" data-name="Grupo 1001191" clip-path="url(#clip-path)">
          <path id="Trazado_707620" data-name="Trazado 707620" d="M28.324,32.141h-3.14a.778.778,0,0,1-.444-.818c.023-.559.006-1.119.006-1.675H4.022c0,.571-.017,1.124.006,1.675a.779.779,0,0,1-.444.819H.444A.8.8,0,0,1,0,31.322Q.011,16.068.006.813C.006.2.2,0,.806,0H27.962c.6,0,.8.2.8.813q0,15.255.006,30.51a.8.8,0,0,1-.444.819M4.037,11.3H7.854c1.214,0,2.427,0,3.641,0a.628.628,0,0,1,.684.734.639.639,0,0,1-.713.518H4.047v4.5H5.53c0-.12,0-.223,0-.325,0-.67,0-1.339,0-2.009a.606.606,0,0,1,.666-.66q1.978-.005,3.955,0a.608.608,0,0,1,.648.649c.007.533,0,1.067,0,1.6,0,.247,0,.495,0,.738H12.25c0-.787,0-1.55,0-2.313a.614.614,0,0,1,.683-.676q1.46,0,2.919,0a.611.611,0,0,1,.663.665c.005.68,0,1.36,0,2.04v.289h8.207v-4.5H20.377c-1.046,0-2.093,0-3.139,0a.624.624,0,0,1-.646-.766A.643.643,0,0,1,17.3,11.3h7.419V9.807H4.037Zm20.694,9.813H4.047V25.6h7.2c0-.13,0-.242,0-.355,0-.67,0-1.339,0-2.009a.6.6,0,0,1,.632-.63q2.009-.008,4.018,0a.6.6,0,0,1,.619.613c.006.115,0,.23,0,.345q0,1.014,0,2.03h1.447c0-.785,0-1.547,0-2.31a.615.615,0,0,1,.679-.68q1.962,0,3.924,0a.61.61,0,0,1,.667.66c.005.68,0,1.36,0,2.04v.3h1.494ZM5.53,8.525c0-.8,0-1.557,0-2.32a.613.613,0,0,1,.678-.68q1.946,0,3.891,0a.624.624,0,0,1,.7.691c0,.669,0,1.339,0,2.008v.3h1.409c.015-.034.03-.052.03-.07,0-.732,0-1.464.007-2.2,0-.5.225-.73.723-.731q1.381,0,2.762,0c.58,0,.783.207.783.8,0,.729,0,1.458,0,2.195h1.447c0-.792,0-1.564,0-2.336a.6.6,0,0,1,.608-.654q2.024-.011,4.048,0a.6.6,0,0,1,.613.649c.006.565,0,1.13,0,1.694,0,.216,0,.432,0,.643H24.73V4.031H4.041V8.525ZM2.747,1.279H1.276V30.873H2.747ZM26.022,30.861h1.469V1.267H26.022ZM24.732,1.275H4.048v1.47H24.732ZM4.037,19.816H24.721V18.345H4.037Zm20.694,7.073H4.048v1.47H24.731ZM6.808,8.512H9.531V6.792H6.808Zm12.424,0h2.726V6.794H19.232ZM9.526,15.341H6.8v1.721H9.526Zm5.723,8.535H12.524V25.6h2.725Zm3.987,1.717h2.724V23.869H19.236ZM15.243,6.8H13.529V8.532h1.714ZM13.526,17.05h1.72V15.33h-1.72Z" transform="translate(0 0)" fill="#12263f"/>
          <rect id="Rectángulo_345914" data-name="Rectángulo 345914" width="1.471" height="29.594" transform="translate(1.276 1.279)" fill="#81d4fa"/>
          <rect id="Rectángulo_345915" data-name="Rectángulo 345915" width="1.469" height="29.594" transform="translate(26.022 1.267)" fill="#81d4fa"/>
          <path id="Trazado_707621" data-name="Trazado 707621" d="M220,180.34a.627.627,0,1,1-.606-.654.62.62,0,0,1,.606.654" transform="translate(-204.987 -168.385)" fill="#12263f"/>
        </g>
      </g>
      <path id="Trazado_707622" data-name="Trazado 707622" d="M89.985,154.525l-3.036-3.461-3.036,3.461h.938c.458,0,.633.175.633.631q0,3.053,0,6.107a2.268,2.268,0,0,1-.014.32.5.5,0,0,1-.973.044,1.031,1.031,0,0,1-.023-.243q0-2.817,0-5.634v-.235h-.408c-.408,0-.817,0-1.225,0a.479.479,0,0,1-.479-.28.485.485,0,0,1,.09-.561q2.049-2.335,4.1-4.67a.511.511,0,0,1,.8,0q2.059,2.339,4.112,4.684a.471.471,0,0,1,.081.546.483.483,0,0,1-.477.284c-.478,0-.957.007-1.435-.005-.173,0-.212.049-.212.213.006,1.847,0,3.693,0,5.54,0,.082,0,.164,0,.246a.5.5,0,0,1-.5.5.51.51,0,0,1-.507-.491c-.006-.094,0-.189,0-.283q0-3.034,0-6.069c0-.466.174-.637.647-.637h.927" transform="translate(-10245.072 -10397.076)" fill="#12263f"/>
      <path id="Trazado_707623" data-name="Trazado 707623" d="M191.456,374.245q0,1.077,0,2.154a.5.5,0,1,1-1,0q0-2.173,0-4.346a.5.5,0,1,1,1,0q0,1.1,0,2.192" transform="translate(-10349.077 -10610.365)" fill="#12263f"/>
    </g>
    <path id="Trazado_710463" data-name="Trazado 710463" d="M3.359,10.992V15H1.016V3.625H5.453a5.134,5.134,0,0,1,2.254.469A3.454,3.454,0,0,1,9.2,5.426a3.714,3.714,0,0,1,.523,1.965,3.266,3.266,0,0,1-1.145,2.637,4.767,4.767,0,0,1-3.168.965Zm0-1.9H5.453a2.059,2.059,0,0,0,1.418-.437,1.591,1.591,0,0,0,.488-1.25,1.876,1.876,0,0,0-.492-1.352,1.839,1.839,0,0,0-1.359-.531H3.359Zm11.617,6.063a4.15,4.15,0,0,1-3.027-1.141,4.054,4.054,0,0,1-1.168-3.039v-.219a5.106,5.106,0,0,1,.492-2.277,3.612,3.612,0,0,1,1.395-1.547,3.914,3.914,0,0,1,2.059-.543,3.508,3.508,0,0,1,2.73,1.094,4.444,4.444,0,0,1,1,3.1v.922H13.07a2.1,2.1,0,0,0,.66,1.328,2,2,0,0,0,1.395.5,2.437,2.437,0,0,0,2.039-.945l1.109,1.242A3.389,3.389,0,0,1,16.9,14.754,4.511,4.511,0,0,1,14.977,15.156Zm-.258-6.945a1.411,1.411,0,0,0-1.09.455,2.357,2.357,0,0,0-.535,1.3h3.141V9.788a1.681,1.681,0,0,0-.406-1.165A1.456,1.456,0,0,0,14.719,8.211Zm9.594,4.453a.727.727,0,0,0-.41-.652,4.659,4.659,0,0,0-1.316-.426q-3.016-.633-3.016-2.562A2.323,2.323,0,0,1,20.5,7.145a3.766,3.766,0,0,1,2.441-.754,4.053,4.053,0,0,1,2.574.758,2.388,2.388,0,0,1,.965,1.969H24.227a1.092,1.092,0,0,0-.312-.8A1.322,1.322,0,0,0,22.938,8a1.351,1.351,0,0,0-.883.258.814.814,0,0,0-.312.656.7.7,0,0,0,.355.605,3.657,3.657,0,0,0,1.2.4,9.8,9.8,0,0,1,1.422.379,2.336,2.336,0,0,1,1.789,2.273,2.2,2.2,0,0,1-.992,1.871,4.28,4.28,0,0,1-2.562.715,4.47,4.47,0,0,1-1.887-.379,3.166,3.166,0,0,1-1.293-1.039,2.414,2.414,0,0,1-.469-1.426h2.141a1.179,1.179,0,0,0,.445.922,1.766,1.766,0,0,0,1.109.32,1.635,1.635,0,0,0,.98-.246A.766.766,0,0,0,24.313,12.664Zm3.3-1.969a5.013,5.013,0,0,1,.484-2.242A3.546,3.546,0,0,1,29.488,6.93,4.069,4.069,0,0,1,31.6,6.391a3.849,3.849,0,0,1,2.793,1.047A4.2,4.2,0,0,1,35.6,10.281l.016.578a4.418,4.418,0,0,1-1.086,3.121,3.775,3.775,0,0,1-2.914,1.176A3.793,3.793,0,0,1,28.7,13.984a4.5,4.5,0,0,1-1.09-3.187Zm2.258.16A3.16,3.16,0,0,0,30.32,12.7a1.628,1.628,0,0,0,2.578.008,3.457,3.457,0,0,0,.461-2.015A3.128,3.128,0,0,0,32.9,8.86a1.5,1.5,0,0,0-1.3-.649,1.474,1.474,0,0,0-1.281.646A3.516,3.516,0,0,0,29.867,10.856ZM43.109,6.547l.07.945a2.971,2.971,0,0,1,2.43-1.1A2.255,2.255,0,0,1,47.852,7.68a2.9,2.9,0,0,1,2.539-1.289,2.521,2.521,0,0,1,2.047.8,3.681,3.681,0,0,1,.672,2.41V15H50.844V9.6a1.616,1.616,0,0,0-.281-1.053,1.245,1.245,0,0,0-.992-.333,1.409,1.409,0,0,0-1.406.971L48.172,15H45.914V9.6a1.6,1.6,0,0,0-.289-1.065,1.257,1.257,0,0,0-.984-.329,1.463,1.463,0,0,0-1.391.8V15H40.992V6.547ZM59.742,15a2.507,2.507,0,0,1-.227-.758,2.732,2.732,0,0,1-2.133.914,3,3,0,0,1-2.059-.719,2.312,2.312,0,0,1-.816-1.812,2.389,2.389,0,0,1,1-2.062,4.915,4.915,0,0,1,2.879-.727h1.039V9.352a1.393,1.393,0,0,0-.3-.937,1.183,1.183,0,0,0-.949-.352,1.345,1.345,0,0,0-.895.273.929.929,0,0,0-.324.75H54.7a2.268,2.268,0,0,1,.453-1.359,3,3,0,0,1,1.281-.98,4.669,4.669,0,0,1,1.859-.355,3.689,3.689,0,0,1,2.48.785,2.747,2.747,0,0,1,.918,2.207v3.664a4.041,4.041,0,0,0,.336,1.82V15Zm-1.867-1.57a1.945,1.945,0,0,0,.922-.223,1.462,1.462,0,0,0,.625-.6V11.156h-.844q-1.7,0-1.8,1.172l-.008.133a.9.9,0,0,0,.3.7A1.153,1.153,0,0,0,57.875,13.43ZM58.734,3H61.2L59.031,5.422H57.2Zm7.906,6.07,1.422-2.523h2.414L68.07,10.688,70.578,15H68.156l-1.508-2.656L65.148,15h-2.43l2.508-4.312-2.4-4.141H65.25Zm7.3,5.93H71.68V6.547h2.266Zm-2.4-10.641a1.112,1.112,0,0,1,.34-.836,1.465,1.465,0,0,1,1.848,0,1.105,1.105,0,0,1,.344.836,1.108,1.108,0,0,1-.348.844,1.448,1.448,0,0,1-1.836,0A1.108,1.108,0,0,1,71.547,4.359Zm6.375,2.188.07.945a2.971,2.971,0,0,1,2.43-1.1A2.255,2.255,0,0,1,82.664,7.68,2.9,2.9,0,0,1,85.2,6.391a2.521,2.521,0,0,1,2.047.8,3.681,3.681,0,0,1,.672,2.41V15H85.656V9.6a1.616,1.616,0,0,0-.281-1.053,1.245,1.245,0,0,0-.992-.333,1.409,1.409,0,0,0-1.406.971L82.984,15H80.727V9.6a1.6,1.6,0,0,0-.289-1.065,1.257,1.257,0,0,0-.984-.329,1.463,1.463,0,0,0-1.391.8V15H75.8V6.547ZM89.3,10.7a5.013,5.013,0,0,1,.484-2.242A3.546,3.546,0,0,1,91.184,6.93,4.069,4.069,0,0,1,93.3,6.391,3.849,3.849,0,0,1,96.09,7.438,4.2,4.2,0,0,1,97.3,10.281l.016.578a4.418,4.418,0,0,1-1.086,3.121,4.209,4.209,0,0,1-5.832,0A4.5,4.5,0,0,1,89.3,10.8Zm2.258.16a3.16,3.16,0,0,0,.453,1.843,1.628,1.628,0,0,0,2.578.008,3.457,3.457,0,0,0,.461-2.015,3.128,3.128,0,0,0-.461-1.831,1.5,1.5,0,0,0-1.3-.649,1.474,1.474,0,0,0-1.281.646A3.516,3.516,0,0,0,91.563,10.856Zm10.773-.145a5.094,5.094,0,0,1,.887-3.148,2.877,2.877,0,0,1,2.426-1.172,2.589,2.589,0,0,1,2.039.922V3h2.266V15h-2.039l-.109-.9a2.657,2.657,0,0,1-2.172,1.055,2.869,2.869,0,0,1-2.395-1.176A5.258,5.258,0,0,1,102.336,10.711Zm2.258.161a3.355,3.355,0,0,0,.414,1.829,1.348,1.348,0,0,0,1.2.636,1.51,1.51,0,0,0,1.477-.887V9.1a1.489,1.489,0,0,0-1.461-.887Q104.594,8.211,104.594,10.872Zm11,4.285a4.15,4.15,0,0,1-3.027-1.141,4.054,4.054,0,0,1-1.168-3.039v-.219a5.106,5.106,0,0,1,.492-2.277,3.612,3.612,0,0,1,1.395-1.547,3.914,3.914,0,0,1,2.059-.543,3.508,3.508,0,0,1,2.73,1.094,4.444,4.444,0,0,1,1,3.1v.922h-5.383a2.1,2.1,0,0,0,.66,1.328,2,2,0,0,0,1.395.5,2.437,2.437,0,0,0,2.039-.945l1.109,1.242a3.389,3.389,0,0,1-1.375,1.121A4.511,4.511,0,0,1,115.594,15.156Zm-.258-6.945a1.411,1.411,0,0,0-1.09.455,2.357,2.357,0,0,0-.535,1.3h3.141V9.788a1.681,1.681,0,0,0-.406-1.165A1.456,1.456,0,0,0,115.336,8.211ZM126.719,15h-2.266V3h2.266Zm6.758,0a2.507,2.507,0,0,1-.227-.758,2.732,2.732,0,0,1-2.133.914,3,3,0,0,1-2.059-.719,2.312,2.312,0,0,1-.816-1.812,2.389,2.389,0,0,1,1-2.062,4.915,4.915,0,0,1,2.879-.727h1.039V9.352a1.393,1.393,0,0,0-.3-.937,1.183,1.183,0,0,0-.949-.352,1.345,1.345,0,0,0-.895.273.929.929,0,0,0-.324.75H128.43a2.268,2.268,0,0,1,.453-1.359,3,3,0,0,1,1.281-.98,4.669,4.669,0,0,1,1.859-.355,3.689,3.689,0,0,1,2.48.785,2.747,2.747,0,0,1,.918,2.207v3.664a4.041,4.041,0,0,0,.336,1.82V15Zm-1.867-1.57a1.945,1.945,0,0,0,.922-.223,1.462,1.462,0,0,0,.625-.6V11.156h-.844q-1.7,0-1.8,1.172l-.008.133a.9.9,0,0,0,.3.7A1.153,1.153,0,0,0,131.609,13.43ZM5.93,31.141a2.831,2.831,0,0,1-2.312,1.016,2.67,2.67,0,0,1-2.074-.781,3.335,3.335,0,0,1-.73-2.289V23.547H3.07v5.467q0,1.322,1.2,1.322a1.63,1.63,0,0,0,1.578-.8V23.547H8.117V32H5.992ZM11.9,23.547l.07.977a2.951,2.951,0,0,1,2.43-1.133,2.453,2.453,0,0,1,2,.789,3.682,3.682,0,0,1,.672,2.359V32H14.813V26.581a1.47,1.47,0,0,0-.312-1.045,1.4,1.4,0,0,0-1.039-.325,1.553,1.553,0,0,0-1.43.814V32H9.773V23.547ZM21.164,32H18.9V23.547h2.266Zm-2.4-10.641a1.112,1.112,0,0,1,.34-.836,1.465,1.465,0,0,1,1.848,0,1.193,1.193,0,0,1,0,1.68,1.448,1.448,0,0,1-1.836,0A1.108,1.108,0,0,1,18.766,21.359Zm3.906,6.352a5.094,5.094,0,0,1,.887-3.148,2.877,2.877,0,0,1,2.426-1.172,2.589,2.589,0,0,1,2.039.922V20h2.266V32H28.25l-.109-.9a2.657,2.657,0,0,1-2.172,1.055,2.869,2.869,0,0,1-2.395-1.176A5.258,5.258,0,0,1,22.672,27.711Zm2.258.161a3.355,3.355,0,0,0,.414,1.829,1.348,1.348,0,0,0,1.2.636,1.51,1.51,0,0,0,1.477-.887V26.1a1.489,1.489,0,0,0-1.461-.887Q24.93,25.211,24.93,27.872ZM36.938,32a2.507,2.507,0,0,1-.227-.758,2.732,2.732,0,0,1-2.133.914,3,3,0,0,1-2.059-.719,2.312,2.312,0,0,1-.816-1.812,2.389,2.389,0,0,1,1-2.062,4.915,4.915,0,0,1,2.879-.727h1.039v-.484a1.393,1.393,0,0,0-.3-.937,1.183,1.183,0,0,0-.949-.352,1.345,1.345,0,0,0-.895.273.929.929,0,0,0-.324.75H31.891a2.268,2.268,0,0,1,.453-1.359,3,3,0,0,1,1.281-.98,4.669,4.669,0,0,1,1.859-.355,3.689,3.689,0,0,1,2.48.785,2.747,2.747,0,0,1,.918,2.207v3.664a4.041,4.041,0,0,0,.336,1.82V32ZM35.07,30.43a1.945,1.945,0,0,0,.922-.223,1.462,1.462,0,0,0,.625-.6V28.156h-.844q-1.7,0-1.8,1.172l-.008.133a.9.9,0,0,0,.3.7A1.153,1.153,0,0,0,35.07,30.43Zm5.2-2.719a5.094,5.094,0,0,1,.887-3.148,2.877,2.877,0,0,1,2.426-1.172,2.589,2.589,0,0,1,2.039.922V20h2.266V32H45.844l-.109-.9a2.657,2.657,0,0,1-2.172,1.055,2.869,2.869,0,0,1-2.395-1.176A5.258,5.258,0,0,1,40.266,27.711Zm2.258.161a3.355,3.355,0,0,0,.414,1.829,1.348,1.348,0,0,0,1.2.636,1.51,1.51,0,0,0,1.477-.887V26.1a1.489,1.489,0,0,0-1.461-.887Q42.523,25.211,42.523,27.872Zm10.742-.161a5.094,5.094,0,0,1,.887-3.148,2.877,2.877,0,0,1,2.426-1.172,2.589,2.589,0,0,1,2.039.922V20h2.266V32H58.844l-.109-.9a2.657,2.657,0,0,1-2.172,1.055,2.869,2.869,0,0,1-2.395-1.176A5.258,5.258,0,0,1,53.266,27.711Zm2.258.161a3.355,3.355,0,0,0,.414,1.829,1.348,1.348,0,0,0,1.2.636,1.51,1.51,0,0,0,1.477-.887V26.1a1.489,1.489,0,0,0-1.461-.887Q55.523,25.211,55.523,27.872Zm11,4.285A4.15,4.15,0,0,1,63.5,31.016a4.054,4.054,0,0,1-1.168-3.039v-.219a5.106,5.106,0,0,1,.492-2.277,3.612,3.612,0,0,1,1.395-1.547,3.914,3.914,0,0,1,2.059-.543A3.508,3.508,0,0,1,69,24.484a4.444,4.444,0,0,1,1,3.1v.922H64.617a2.1,2.1,0,0,0,.66,1.328,2,2,0,0,0,1.395.5,2.437,2.437,0,0,0,2.039-.945l1.109,1.242a3.389,3.389,0,0,1-1.375,1.121A4.511,4.511,0,0,1,66.523,32.156Zm-.258-6.945a1.411,1.411,0,0,0-1.09.455,2.357,2.357,0,0,0-.535,1.3h3.141v-.181a1.681,1.681,0,0,0-.406-1.165A1.456,1.456,0,0,0,66.266,25.211Zm12.516,5.125a1.481,1.481,0,0,0,1.016-.344,1.2,1.2,0,0,0,.406-.914H82.32a2.9,2.9,0,0,1-.469,1.574,3.093,3.093,0,0,1-1.262,1.109,3.949,3.949,0,0,1-1.77.395A3.67,3.67,0,0,1,75.961,31a4.56,4.56,0,0,1-1.047-3.184v-.148a4.508,4.508,0,0,1,1.039-3.117A3.627,3.627,0,0,1,78.8,23.391a3.555,3.555,0,0,1,2.543.9,3.2,3.2,0,0,1,.973,2.4H80.2a1.551,1.551,0,0,0-.406-1.072,1.51,1.51,0,0,0-2.223.163,3.333,3.333,0,0,0-.4,1.866v.235a3.375,3.375,0,0,0,.4,1.878A1.377,1.377,0,0,0,78.781,30.336ZM88.508,32a2.507,2.507,0,0,1-.227-.758,2.732,2.732,0,0,1-2.133.914,3,3,0,0,1-2.059-.719,2.312,2.312,0,0,1-.816-1.812,2.389,2.389,0,0,1,1-2.062,4.915,4.915,0,0,1,2.879-.727h1.039v-.484a1.393,1.393,0,0,0-.3-.937,1.183,1.183,0,0,0-.949-.352,1.345,1.345,0,0,0-.895.273.929.929,0,0,0-.324.75H83.461a2.268,2.268,0,0,1,.453-1.359,3,3,0,0,1,1.281-.98,4.669,4.669,0,0,1,1.859-.355,3.689,3.689,0,0,1,2.48.785,2.747,2.747,0,0,1,.918,2.207v3.664a4.041,4.041,0,0,0,.336,1.82V32Zm-1.867-1.57a1.945,1.945,0,0,0,.922-.223,1.462,1.462,0,0,0,.625-.6V28.156h-.844q-1.7,0-1.8,1.172l-.008.133a.9.9,0,0,0,.3.7A1.153,1.153,0,0,0,86.641,30.43Zm10.3-4.766a6.134,6.134,0,0,0-.812-.062,1.654,1.654,0,0,0-1.68.867V32H92.188V23.547H94.32l.063,1.008a2.092,2.092,0,0,1,1.883-1.164,2.366,2.366,0,0,1,.7.1Zm.609,2.047a4.954,4.954,0,0,1,.926-3.133,3,3,0,0,1,2.5-1.187,2.631,2.631,0,0,1,2.164.953l.094-.8h2.047v8.172a3.613,3.613,0,0,1-.5,1.93,3.236,3.236,0,0,1-1.418,1.25,4.985,4.985,0,0,1-2.141.43,4.635,4.635,0,0,1-1.812-.371A3.217,3.217,0,0,1,98.063,34l1-1.375a2.645,2.645,0,0,0,2.047.945,1.936,1.936,0,0,0,1.4-.48,1.8,1.8,0,0,0,.5-1.363v-.453a2.612,2.612,0,0,1-2.055.883,2.992,2.992,0,0,1-2.465-1.191,4.953,4.953,0,0,1-.941-3.16Zm2.258.161a3.1,3.1,0,0,0,.461,1.809,1.465,1.465,0,0,0,1.266.655,1.567,1.567,0,0,0,1.477-.777V25.988a1.563,1.563,0,0,0-1.461-.777,1.474,1.474,0,0,0-1.277.667A3.5,3.5,0,0,0,99.8,27.872ZM111.906,32a2.507,2.507,0,0,1-.227-.758,2.732,2.732,0,0,1-2.133.914,3,3,0,0,1-2.059-.719,2.312,2.312,0,0,1-.816-1.812,2.389,2.389,0,0,1,1-2.062,4.915,4.915,0,0,1,2.879-.727h1.039v-.484a1.393,1.393,0,0,0-.3-.937,1.183,1.183,0,0,0-.949-.352,1.345,1.345,0,0,0-.895.273.929.929,0,0,0-.324.75h-2.258a2.268,2.268,0,0,1,.453-1.359,3,3,0,0,1,1.281-.98,4.669,4.669,0,0,1,1.859-.355,3.689,3.689,0,0,1,2.48.785,2.747,2.747,0,0,1,.918,2.207v3.664a4.041,4.041,0,0,0,.336,1.82V32Zm-1.867-1.57a1.945,1.945,0,0,0,.922-.223,1.462,1.462,0,0,0,.625-.6V28.156h-.844q-1.7,0-1.8,1.172l-.008.133a.9.9,0,0,0,.3.7A1.153,1.153,0,0,0,110.039,30.43Z" transform="translate(-9835.047 -9503)" fill="#12263f"/>
  </g>
</svg>
