<svg xmlns="http://www.w3.org/2000/svg" xmlns:xlink="http://www.w3.org/1999/xlink" width="88" height="88" viewBox="0 0 88 88">
  <defs>
    <clipPath id="clip-path">
      <rect id="Rectángulo_345963" data-name="Rectángulo 345963" width="74.997" height="75.205" fill="none"/>
    </clipPath>
  </defs>
  <g id="Grupo_997755" data-name="Grupo 997755" transform="translate(-626 -7917)">
    <path id="Trazado_710239" data-name="Trazado 710239" d="M44,0A44,44,0,1,1,0,44,44,44,0,0,1,44,0Z" transform="translate(626 7917)" fill="#7e5ee3"/>
    <g id="Grupo_1001300" data-name="Grupo 1001300" transform="translate(636.003 7929.696)">
      <g id="Grupo_1001300-2" data-name="Grupo 1001300" transform="translate(0 0)" clip-path="url(#clip-path)">
        <path id="Trazado_710240" data-name="Trazado 710240" d="M70.8,75.2H37.966a6.972,6.972,0,0,1-2.6-1.776,4.755,4.755,0,0,1-1.091-4.309A11.9,11.9,0,0,1,35.357,66.9c.4-.892.971-1.669,1.387-2.542.747-1.57,1.68-3.052,2.535-4.57.123-.057.179-.149.061-.245-.071-.058-.165-.019-.2.087-.293-.006-.586-.016-.878-.016q-18.17,0-36.339.013A1.855,1.855,0,0,1,0,58.607V7.051A1.815,1.815,0,0,1,1.937,6.044q3.437.023,6.873,0c.2,0,.612.206.565-.286a7.34,7.34,0,0,1,.161-1.575,4.728,4.728,0,0,1,1.64-3.034A9.287,9.287,0,0,1,13.486,0H15.1c.51.378,1.176.373,1.7.741a4.76,4.76,0,0,1,2.248,4.591c-.049.539.076.746.686.734,2.2-.044,4.393-.04,6.589,0,.565.01.675-.152.66-.684A5.279,5.279,0,0,1,28.531,1.3,8.084,8.084,0,0,1,31.076,0h.586c.126.179.3.135.471.1.149.017.312.091.408-.1h.146a9.732,9.732,0,0,1,1.639.72,4.691,4.691,0,0,1,2.314,4.662c-.063.539.1.693.66.683q3.325-.056,6.652,0c.531.008.643-.148.619-.648A5.324,5.324,0,0,1,46.147,1.26,9.217,9.217,0,0,1,48.373,0H49.4a.3.3,0,0,0,.288.149l.742,0a1.226,1.226,0,0,1,.5.075,4.938,4.938,0,0,1,3.3,5.085c-.022.607.129.771.747.761,2.392-.04,4.785-.016,7.177-.017a1.81,1.81,0,0,1,1.732.808,2.958,2.958,0,0,1,.213,1.481q-.016,20.622-.034,41.245a1.1,1.1,0,0,0,.15.609c1.105,1.859,2.256,3.7,3.242,5.619.756,1.474.756,1.648-.162,2.387a1.485,1.485,0,0,1-2.2-.586c-.581-.99-1.139-1.994-1.71-2.99Q60.244,49.14,57.1,43.66c-.283-.493-.563-.988-.871-1.465a2.16,2.16,0,0,0-3.278-.106c-1.158,1.924-2.281,3.868-3.4,5.813-1.026,1.776-2.028,3.565-3.049,5.343q-1.549,2.7-3.114,5.385c-1.008,1.731-2.034,3.452-3.034,5.189-1.047,1.817-2.138,3.614-3.085,5.483a1.991,1.991,0,0,0,1.726,2.957q15.536.023,31.072.007a2.047,2.047,0,0,0,1.8-2.9,1.751,1.751,0,0,1,.279-2.53,1.48,1.48,0,0,1,1.827.355,4.957,4.957,0,0,1-.241,6.331A5.6,5.6,0,0,1,70.8,75.2M12.427,4.852c.009,1.854.028,3.709.023,5.563a1.742,1.742,0,0,0,1.527,1.775A1.868,1.868,0,0,0,16.113,10.7,31.968,31.968,0,0,0,16.176,4.8c-.068-1.251-.637-1.582-1.906-1.845a1.86,1.86,0,0,0-1.8,1.307c-.067.169-.26.112-.293.266-.014.182.046.308.247.325M51.435,39.506l.161-.116c.208-.111.426-.207.621-.337a4.985,4.985,0,0,1,6.36,1.462c.331.542.594,1.126.969,1.642-.031.1.026.135.116.138l.319.6c-.031.105.032.137.117.152l.47.877c-.031.105.031.137.117.148.135.124.088.443.314.422.291-.027.12-.31.159-.478a1.321,1.321,0,0,0,0-.293c0-7.169-.008-14.337.014-21.506,0-.64-.121-.85-.816-.848q-17.507.037-35.014.022c-1.511,0-3.025-.085-4.533.062a1.169,1.169,0,0,1-.679-.189,2.2,2.2,0,0,1-.94-1.326,3.3,3.3,0,0,1,.411-.9c.553-.675,1.3-.577,2.01-.578q13.412-.016,26.824-.008c4.006,0,8.013-.013,12.019-.009.43,0,.723.008.717-.593-.031-2.766-.023-5.532,0-8.3,0-.458-.146-.578-.587-.572-1.905.021-3.811.024-5.716,0-.485-.007-.628.14-.614.622a5.038,5.038,0,0,1-.918,3.417c-2,2.572-5.2,2.933-7.43.568A5.02,5.02,0,0,1,44.563,9.6c.032-.389,0-.628-.522-.622-2.3.029-4.593.024-6.889,0-.447,0-.513.173-.516.56a6.274,6.274,0,0,1-.061,1.75,5.06,5.06,0,0,1-3.423,3.645,4.9,4.9,0,0,1-5.211-1.81,5.123,5.123,0,0,1-.846-3.366c.043-.594-.117-.8-.75-.785-1.88.044-3.762.016-5.643.016-1.622,0-1.6,0-1.651,1.612a4.713,4.713,0,0,1-4.132,4.5c-3.356.41-5.69-2.364-5.5-5.622.031-.529-.1-.488-.44-.488-1.832,0-3.665.018-5.5-.01-.47-.007-.565.154-.563.588.017,2.766.023,5.532,0,8.3,0,.515.179.607.63.6,1.221-.025,2.444-.046,3.664,0,1.143.047,1.612.713,1.6,1.482a1.506,1.506,0,0,1-1.592,1.432c-1.172.019-2.347.047-3.517-.011-.644-.032-.793.147-.791.791q.034,16.854,0,33.708c0,.69.2.821.842.82q18.212-.029,36.424,0c.728,0,1.225-.114,1.465-.88a5.972,5.972,0,0,1,.615-1.123q3.472-5.988,6.95-11.974a10.38,10.38,0,0,1,2.225-3.2M30.047,7.431h0c0,1.049-.022,2.1.007,3.147A1.549,1.549,0,0,0,31.2,12.147a1.8,1.8,0,0,0,2.078-.624,2.686,2.686,0,0,0,.5-1.614c-.011-1.562,0-3.124-.006-4.686-.01-1.37-.4-1.882-1.767-2.163a1.54,1.54,0,0,0-1.969,1.371c.021,1,.005,2,.005,3m17.468.23h.094c0,.953.021,1.907-.007,2.86A1.745,1.745,0,0,0,49,12.19a2.045,2.045,0,0,0,2.339-2.177c-.006-1.591,0-3.182,0-4.773a1.938,1.938,0,0,0-1.861-2.273,1.892,1.892,0,0,0-1.958,1.5c0,1.064,0,2.127,0,3.191" transform="translate(0 0)"/>
        <path id="Trazado_710241" data-name="Trazado 710241" d="M83.368,0a.493.493,0,0,0-.032.1c0,.014.023.031.037.047l-.742,0c0-.049,0-.1,0-.149Z" transform="translate(-32.942 0)" fill="#1e1e1e"/>
        <path id="Trazado_710242" data-name="Trazado 710242" d="M53.125.1c-.171.033-.345.076-.471-.1h.44a.837.837,0,0,1,.031.1" transform="translate(-20.992 0)" fill="#1e1e1e"/>
        <path id="Trazado_710243" data-name="Trazado 710243" d="M53.417.1a.838.838,0,0,0-.031-.1h.44c-.1.194-.259.12-.408.1" transform="translate(-21.283 0)" fill="#444"/>
        <path id="Trazado_710244" data-name="Trazado 710244" d="M82.443,0c0,.049,0,.1,0,.149A.3.3,0,0,1,82.15,0Z" transform="translate(-32.751 0)" fill="#020202"/>
        <path id="Trazado_710245" data-name="Trazado 710245" d="M21.126,33.129a2.2,2.2,0,0,0,.94,1.326,1.169,1.169,0,0,0,.679.189c1.509-.148,3.022-.061,4.533-.063q17.507-.013,35.014-.022c.694,0,.817.207.815.848-.022,7.169-.014,14.337-.014,21.506a1.32,1.32,0,0,1,0,.293c-.038.168.132.452-.159.479-.226.021-.179-.3-.314-.422l-.117-.148-.471-.877-.117-.152-.319-.6-.116-.138c-.375-.515-.638-1.1-.969-1.642a4.986,4.986,0,0,0-6.36-1.462c-.2.129-.413.225-.621.337-.1-.031-.137.036-.161.116a10.38,10.38,0,0,0-2.225,3.2q-3.489,5.978-6.949,11.974A5.975,5.975,0,0,0,43.578,69c-.241.765-.738.881-1.465.88q-18.212-.032-36.424,0c-.645,0-.844-.129-.842-.82q.037-16.854,0-33.708c0-.645.147-.823.791-.791,1.17.058,2.345.03,3.517.011a1.506,1.506,0,0,0,1.592-1.432l3.5-.042a.358.358,0,0,0,.123.079c.366,1.022.951,1.537,1.661,1.464a1.772,1.772,0,0,0,1.309-1.5l3.783-.013m14.8,6.8a.836.836,0,0,0-.423.772c0,2.321-.008,4.642,0,6.963a1.453,1.453,0,0,0,1.357,1.294c2.046-.012,4.094-.066,6.138-.012,1.325.035,1.925-.684,1.9-1.953-.031-1.807-.007-3.616-.008-5.423,0-1.5-.565-2.057-2.1-2.058-1.634,0-3.268.015-4.9-.008a4.278,4.278,0,0,0-1.821.314c-.105-.037-.135.03-.153.112M14.651,63.294c.975,0,1.955-.056,2.925.014a1.674,1.674,0,0,0,1.887-1.824c-.023-1.954,0-3.909-.01-5.864a1.558,1.558,0,0,0-1.75-1.729c-1.951,0-3.9.046-5.852-.018a1.6,1.6,0,0,0-1.82,1.832c.04,2,.018,4.007.01,6.01,0,1.085.446,1.566,1.538,1.577,1.024.01,2.048,0,3.072,0M10.043,44.339c0,.978.007,1.956,0,2.934-.011,1.2.4,1.64,1.624,1.648,1.9.013,3.807,0,5.711,0,1.61,0,2.079-.482,2.081-2.135q0-2.6,0-5.209c0-1.5-.572-2.072-2.082-2.074q-2.782,0-5.564,0c-1.234,0-1.747.5-1.764,1.75-.013,1.026,0,2.054,0,3.081m12.736-.178h-.006c0,1.075,0,2.151,0,3.226a1.343,1.343,0,0,0,1.417,1.524c2.17.026,4.342.023,6.512.006a1.414,1.414,0,0,0,1.454-1.4c.029-2.175.026-4.351,0-6.526a1.323,1.323,0,0,0-1.244-1.347,45.6,45.6,0,0,0-6.991-.073c-.792.025-1.132.548-1.143,1.369-.013,1.075,0,2.151,0,3.226m25.47.026c0,1.052.05,2.108-.014,3.156a1.365,1.365,0,0,0,1.558,1.59c2.051-.029,4.1,0,6.154-.01a1.491,1.491,0,0,0,1.687-1.684q.031-3.046,0-6.093a1.539,1.539,0,0,0-1.569-1.628c-2.076-.03-4.153-.049-6.227.008-.962.026-1.648.359-1.6,1.652.04,1,.008,2.007.008,3.01m-12.738,14.4q0,1.577,0,3.153a1.366,1.366,0,0,0,1.533,1.553c2.049.008,4.1-.02,6.147.011,1.213.019,1.629-.62,1.682-1.661.1-2.023.039-4.056.025-6.085A1.652,1.652,0,0,0,43.35,53.9c-2.121-.028-4.245-.037-6.366,0-1.039.019-1.465.539-1.472,1.6-.007,1.026,0,2.054,0,3.08m-8.443,4.085c.539.167.9-.182,1.244-.506.262-.245.458-.558.7-.823,1.263-1.375,2.541-2.737,3.8-4.118a1.575,1.575,0,0,0,.034-2.263,2,2,0,0,0-2.134.155c-.595.8-1.373,1.418-1.98,2.206A4.936,4.936,0,0,1,27,58.94c-.367.155-.841-.747-1.3-1.141a1.562,1.562,0,0,0-2.031-.042,1.388,1.388,0,0,0-.15,1.927,13.284,13.284,0,0,0,2.363,2.443c.358.267.6.738,1.182.544" transform="translate(-1.932 -13.195)" fill="#f8f6f3"/>
        <path id="Trazado_710246" data-name="Trazado 710246" d="M91.84,85.636a25.5,25.5,0,0,0,1.509,2.811c.105.218.215.432.322.648-.467.5-.9,1.042-.6,1.772a1.776,1.776,0,0,0,1.989,1.023c.7.319.815,1.081,1.212,1.629a6.847,6.847,0,0,1,.419.75,1.752,1.752,0,0,0-.279,2.53,2.046,2.046,0,0,1-1.8,2.9q-15.536.005-31.072-.006a1.991,1.991,0,0,1-1.726-2.957c.947-1.87,2.039-3.666,3.085-5.484,1-1.736,2.026-3.457,3.034-5.189q1.564-2.688,3.114-5.384c1.021-1.779,2.023-3.568,3.049-5.344,1.123-1.944,2.247-3.889,3.4-5.812a2.16,2.16,0,0,1,3.278.106c.308.477.588.972.871,1.465q3.143,5.479,6.28,10.96c.57,1,1.128,2,1.71,2.99a1.484,1.484,0,0,0,2.2.587M77.88,84.472c0,1.391,0,3.321,0,5.25A1.386,1.386,0,0,0,79.1,91.039c.929.09,1.661-.679,1.667-1.808q.02-3.848,0-7.7a35.353,35.353,0,0,0-.072-3.8A1.429,1.429,0,0,0,78.977,76.5a1.384,1.384,0,0,0-1.2,1.313c.166,2.039,0,4.081.107,6.659m2.814,10.153a1.353,1.353,0,0,0-1.5-1.383,1.388,1.388,0,0,0-1.437,1.383A1.784,1.784,0,0,0,79.2,96.18a1.642,1.642,0,0,0,1.5-1.555" transform="translate(-24.551 -27.439)" fill="#ff9d00"/>
        <path id="Trazado_710247" data-name="Trazado 710247" d="M21.129,25.88l-3.783.014c.017-.257.14-.467-.118-.752a1.625,1.625,0,0,0-2.845.366c-.144.076-.12.215-.129.342l-3.5.043c.009-.77-.459-1.436-1.6-1.483-1.219-.05-2.443-.028-3.664,0-.452.009-.635-.083-.63-.6.028-2.766.022-5.532,0-8.3,0-.434.093-.6.563-.588,1.832.028,3.664.013,5.5.01.34,0,.47-.041.44.488-.192,3.259,2.141,6.032,5.5,5.622a4.713,4.713,0,0,0,4.132-4.5c.052-1.611.029-1.612,1.651-1.612,1.881,0,3.763.028,5.643-.016.633-.014.793.191.75.785a5.123,5.123,0,0,0,.846,3.366,4.9,4.9,0,0,0,5.211,1.81,5.06,5.06,0,0,0,3.423-3.645,6.274,6.274,0,0,0,.061-1.75c0-.387.069-.565.516-.56,2.3.021,4.593.026,6.889,0,.517-.007.554.233.522.622a5.02,5.02,0,0,0,1.343,3.986c2.235,2.366,5.425,2,7.43-.568a5.034,5.034,0,0,0,.918-3.417c-.014-.482.129-.628.615-.622,1.905.026,3.811.023,5.716,0,.441-.005.591.115.587.572-.019,2.766-.027,5.533,0,8.3.007.6-.287.594-.717.593-4.007,0-8.013.008-12.019.009q-13.413,0-26.824.008c-.709,0-1.458-.1-2.01.578a3.3,3.3,0,0,0-.411.9" transform="translate(-1.935 -5.947)" fill="#00bcd4"/>
        <path id="Trazado_710248" data-name="Trazado 710248" d="M20.255,6.473c.033-.154.226-.1.293-.266a1.859,1.859,0,0,1,1.8-1.307c1.269.263,1.838.594,1.906,1.845a31.968,31.968,0,0,1-.063,5.905,1.868,1.868,0,0,1-2.135,1.486,1.743,1.743,0,0,1-1.528-1.775c0-1.854-.014-3.709-.023-5.563.091-.241-.023-.325-.247-.326" transform="translate(-8.075 -1.946)" fill="#e1e5ee"/>
        <path id="Trazado_710249" data-name="Trazado 710249" d="M49.96,9.433c0-1,.016-2,0-3a1.54,1.54,0,0,1,1.969-1.372c1.363.281,1.756.793,1.766,2.163.011,1.562,0,3.124.006,4.686a2.692,2.692,0,0,1-.5,1.615,1.8,1.8,0,0,1-2.078.624,1.55,1.55,0,0,1-1.153-1.569c-.028-1.048-.007-2.1-.007-3.147Z" transform="translate(-19.913 -2.001)" fill="#e1e5ee"/>
        <path id="Trazado_710250" data-name="Trazado 710250" d="M79.017,9.617c0-1.064,0-2.127,0-3.191a1.892,1.892,0,0,1,1.958-1.5A1.938,1.938,0,0,1,82.836,7.2c0,1.591,0,3.182,0,4.773A2.045,2.045,0,0,1,80.5,14.145a1.745,1.745,0,0,1-1.4-1.668c.028-.953.007-1.907.007-2.86h-.094" transform="translate(-31.501 -1.956)" fill="#e1e5ee"/>
        <path id="Trazado_710251" data-name="Trazado 710251" d="M20.254,7.528c.224,0,.338.085.247.326-.2-.018-.262-.144-.247-.326" transform="translate(-8.074 -3.001)" fill="#1e1e1e"/>
        <path id="Trazado_710252" data-name="Trazado 710252" d="M65.229,99.238a.138.138,0,0,1-.139-.158c.034-.106.129-.144.2-.087.118.1.061.188-.061.245" transform="translate(-25.949 -39.455)" fill="#444"/>
        <path id="Trazado_710253" data-name="Trazado 710253" d="M99.018,70.108l.116.138c-.089,0-.147-.034-.116-.138" transform="translate(-39.472 -27.95)" fill="#f6f4f1"/>
        <path id="Trazado_710254" data-name="Trazado 710254" d="M100.72,73.039l.117.148c-.087-.011-.148-.043-.117-.148" transform="translate(-40.151 -29.119)" fill="#f6f4f1"/>
        <path id="Trazado_710255" data-name="Trazado 710255" d="M85.536,65.616c.024-.08.058-.147.161-.116l-.161.116" transform="translate(-34.101 -26.11)"/>
        <path id="Trazado_710256" data-name="Trazado 710256" d="M99.742,71.328l.117.152c-.085-.014-.148-.047-.117-.152" transform="translate(-39.761 -28.436)" fill="#f6f4f1"/>
        <path id="Trazado_710257" data-name="Trazado 710257" d="M115.876,105.238a1.775,1.775,0,0,1-1.989-1.023c-.3-.731.128-1.271.6-1.772a2.312,2.312,0,0,1,1.326-.07,1.44,1.44,0,0,1,.512,2.388c-.147.155-.491.143-.444.477" transform="translate(-45.363 -40.785)"/>
        <path id="Trazado_710258" data-name="Trazado 710258" d="M18.089,77.067c-1.024,0-2.048.008-3.072,0-1.092-.011-1.542-.492-1.538-1.577.008-2,.031-4.008-.01-6.01a1.6,1.6,0,0,1,1.82-1.832c1.948.064,3.9.013,5.852.018a1.557,1.557,0,0,1,1.75,1.729c.014,1.955-.013,3.91.011,5.864a1.675,1.675,0,0,1-1.888,1.824c-.971-.07-1.95-.014-2.925-.014m.1-2.935c1.773,0,1.773,0,1.773-1.773s0-1.761-1.779-1.761-1.773,0-1.773,1.77,0,1.764,1.779,1.764" transform="translate(-5.37 -26.968)"/>
        <path id="Trazado_710259" data-name="Trazado 710259" d="M13.486,48.588c0-1.027-.011-2.054,0-3.081.016-1.248.53-1.749,1.764-1.75q2.783,0,5.564,0c1.51,0,2.081.572,2.082,2.073q0,2.6,0,5.209c0,1.654-.471,2.135-2.081,2.135-1.9,0-3.807.009-5.71,0-1.225-.008-1.635-.446-1.624-1.649.008-.978,0-1.957,0-2.934m6.483-.128c0-1.768,0-1.768-1.778-1.768s-1.775,0-1.775,1.772,0,1.773,1.779,1.773,1.773,0,1.773-1.778" transform="translate(-5.375 -17.444)"/>
        <path id="Trazado_710260" data-name="Trazado 710260" d="M34.664,48.384c0-1.075-.01-2.151,0-3.226.01-.82.351-1.344,1.143-1.368a45.534,45.534,0,0,1,6.992.073,1.323,1.323,0,0,1,1.244,1.347c.022,2.175.025,4.351,0,6.526a1.414,1.414,0,0,1-1.454,1.405c-2.171.016-4.342.02-6.512-.007a1.342,1.342,0,0,1-1.417-1.523c0-1.076,0-2.151,0-3.227Zm6.463.1c0-1.82,0-1.82-1.8-1.82-1.742,0-1.742,0-1.742,1.729,0,1.816,0,1.816,1.8,1.816,1.737,0,1.737,0,1.737-1.726" transform="translate(-13.817 -17.418)"/>
        <path id="Trazado_710261" data-name="Trazado 710261" d="M77.012,48.425c0-1,.031-2.008-.008-3.01-.051-1.293.634-1.625,1.6-1.652,2.075-.057,4.152-.038,6.227-.007a1.539,1.539,0,0,1,1.57,1.627q.026,3.046,0,6.093a1.492,1.492,0,0,1-1.687,1.684c-2.052.008-4.1-.019-6.155.01A1.365,1.365,0,0,1,77,51.581c.064-1.048.014-2.1.014-3.156m6.489.07c-.028-.579.155-1.331-.14-1.689-.314-.382-1.094-.079-1.668-.124-.024,0-.048,0-.073,0-1.68,0-1.692,0-1.673,1.7.007.6-.272,1.4.124,1.744.334.294,1.108.1,1.687.1,1.716.006,1.716,0,1.743-1.729" transform="translate(-30.695 -17.432)"/>
        <path id="Trazado_710262" data-name="Trazado 710262" d="M56.412,44.057a4.28,4.28,0,0,1,1.821-.314c1.633.023,3.268.007,4.9.008,1.532,0,2.1.555,2.1,2.058,0,1.808-.023,3.616.008,5.424.022,1.269-.578,1.987-1.9,1.953-2.045-.053-4.092,0-6.138.012A1.454,1.454,0,0,1,55.84,51.9c-.011-2.321,0-4.642,0-6.963a.835.835,0,0,1,.423-.772l.153-.112m2.38,2.738c-.008,1,0,2-.032,2.993-.01.36.117.457.46.449q1.312-.03,2.624,0c.337.007.474-.081.464-.445-.023-.876-.025-1.753,0-2.63.012-.4-.134-.495-.506-.484-.971.028-1.943.02-2.915.027-.091-.034-.117,0-.1.089" transform="translate(-22.26 -17.439)"/>
        <path id="Trazado_710263" data-name="Trazado 710263" d="M55.839,72.36c0-1.026,0-2.053,0-3.079.007-1.065.434-1.585,1.472-1.6,2.121-.039,4.245-.029,6.367,0a1.654,1.654,0,0,1,1.548,1.658c.014,2.029.077,4.061-.026,6.085-.053,1.041-.469,1.68-1.681,1.661-2.049-.032-4.1,0-6.147-.011a1.366,1.366,0,0,1-1.533-1.553q0-1.577,0-3.153m4.741,1.8c1.722-.026,1.732-.026,1.716-1.766-.005-.578.257-1.334-.112-1.687s-1.114-.1-1.694-.1c-1.722-.013-1.732,0-1.716,1.735.005.579-.262,1.363.115,1.68.354.3,1.111.113,1.691.141" transform="translate(-22.261 -26.97)"/>
        <path id="Trazado_710264" data-name="Trazado 710264" d="M39.24,77.007c-.578.194-.824-.277-1.182-.544A13.284,13.284,0,0,1,35.7,74.02a1.388,1.388,0,0,1,.15-1.927,1.562,1.562,0,0,1,2.031.042c.455.393.928,1.3,1.3,1.141A4.936,4.936,0,0,0,40.9,71.657c.607-.788,1.385-1.407,1.98-2.206a2,2,0,0,1,2.134-.155,1.575,1.575,0,0,1-.034,2.263c-1.256,1.381-2.534,2.743-3.8,4.118-.244.265-.44.578-.7.823-.346.324-.705.673-1.244.506" transform="translate(-14.104 -27.531)" fill="#020202"/>
        <path id="Trazado_710265" data-name="Trazado 710265" d="M20.7,31.839a1.626,1.626,0,0,1,2.846-.366c.257.286.135.5.117.752a1.772,1.772,0,0,1-1.309,1.5c-.71.073-1.294-.441-1.661-1.464,0-.14,0-.281.007-.421" transform="translate(-8.248 -12.278)" fill="#020202"/>
        <path id="Trazado_710266" data-name="Trazado 710266" d="M20.616,32.53c0,.14,0,.281-.007.421a.37.37,0,0,1-.122-.079c.009-.127-.015-.266.129-.342" transform="translate(-8.168 -12.969)" fill="#acacac"/>
        <path id="Trazado_710267" data-name="Trazado 710267" d="M56.693,44.259l-.153.112c.019-.082.049-.149.153-.112" transform="translate(-22.541 -17.641)" fill="#020202"/>
        <path id="Trazado_710268" data-name="Trazado 710268" d="M88.612,89.555c-.108-2.578.059-4.62-.107-6.66a1.384,1.384,0,0,1,1.2-1.313,1.429,1.429,0,0,1,1.719,1.233,35.347,35.347,0,0,1,.072,3.8q.019,3.848,0,7.7c-.006,1.128-.738,1.9-1.667,1.808A1.387,1.387,0,0,1,88.615,94.8c-.007-1.929,0-3.858,0-5.249" transform="translate(-35.283 -32.521)"/>
        <path id="Trazado_710269" data-name="Trazado 710269" d="M91.421,110.813a1.642,1.642,0,0,1-1.5,1.555,1.784,1.784,0,0,1-1.437-1.555,1.388,1.388,0,0,1,1.437-1.383,1.353,1.353,0,0,1,1.5,1.383" transform="translate(-35.278 -43.627)" fill="#020202"/>
        <path id="Trazado_710270" data-name="Trazado 710270" d="M20.142,76.09c-1.779,0-1.779,0-1.779-1.764s0-1.77,1.773-1.77,1.779,0,1.779,1.761,0,1.773-1.773,1.773" transform="translate(-7.321 -28.926)" fill="#a5c8ff"/>
        <path id="Trazado_710271" data-name="Trazado 710271" d="M21.915,50.407c0,1.778,0,1.778-1.773,1.778s-1.779,0-1.779-1.773,0-1.772,1.775-1.772,1.778,0,1.778,1.768" transform="translate(-7.321 -19.391)" fill="#a5c8ff"/>
        <path id="Trazado_710272" data-name="Trazado 710272" d="M43.069,50.459c0,1.726,0,1.726-1.737,1.726-1.8,0-1.8,0-1.8-1.816,0-1.729,0-1.729,1.742-1.729,1.8,0,1.8,0,1.8,1.82" transform="translate(-15.759 -19.391)" fill="#a5c8ff"/>
        <path id="Trazado_710273" data-name="Trazado 710273" d="M85.4,50.406c-.026,1.731-.026,1.735-1.743,1.729-.579,0-1.352.194-1.687-.1-.4-.349-.117-1.144-.124-1.744-.019-1.7-.007-1.7,1.673-1.7.025,0,.049,0,.073,0,.574.046,1.354-.258,1.668.124.295.358.112,1.11.14,1.689" transform="translate(-32.594 -19.344)" fill="#a5c8ff"/>
        <path id="Trazado_710274" data-name="Trazado 710274" d="M60.827,48.654c.972-.007,1.944,0,2.915-.027.372-.01.518.088.506.484-.026.876-.023,1.754,0,2.63.01.363-.127.452-.464.444q-1.311-.028-2.625,0c-.343.008-.47-.09-.459-.449.029-1,.024-2,.032-2.993a.1.1,0,0,0,.1-.09" transform="translate(-24.199 -19.386)" fill="#a5c8ff"/>
        <path id="Trazado_710275" data-name="Trazado 710275" d="M60.844,48.663a.1.1,0,0,1-.1.09c-.022-.088,0-.124.1-.09" transform="translate(-24.216 -19.396)" fill="#acacac"/>
        <path id="Trazado_710276" data-name="Trazado 710276" d="M62.47,76.063c-.58-.028-1.337.157-1.691-.141-.377-.316-.11-1.1-.115-1.68-.017-1.74-.006-1.749,1.716-1.735.58,0,1.328-.248,1.694.1s.107,1.109.112,1.687c.017,1.739.006,1.74-1.716,1.766" transform="translate(-24.15 -28.873)" fill="#a5c8ff"/>
      </g>
    </g>
  </g>
</svg>
