<svg xmlns="http://www.w3.org/2000/svg" xmlns:xlink="http://www.w3.org/1999/xlink" width="561.679" height="167.811" viewBox="0 0 561.679 167.811">
  <defs>
    <filter id="Trazado_710455" x="46.456" y="12.938" width="215" height="61" filterUnits="userSpaceOnUse">
      <feOffset dy="2" input="SourceAlpha"/>
      <feGaussianBlur stdDeviation="2" result="blur"/>
      <feFlood flood-opacity="0.161"/>
      <feComposite operator="in" in2="blur"/>
      <feComposite in="SourceGraphic"/>
    </filter>
    <filter id="Trazado_710456" x="46.456" y="99.874" width="215" height="61" filterUnits="userSpaceOnUse">
      <feOffset dy="2" input="SourceAlpha"/>
      <feGaussianBlur stdDeviation="2" result="blur-2"/>
      <feFlood flood-opacity="0.161"/>
      <feComposite operator="in" in2="blur-2"/>
      <feComposite in="SourceGraphic"/>
    </filter>
    <filter id="Trazado_710451" x="346.679" y="12.938" width="215" height="61" filterUnits="userSpaceOnUse">
      <feOffset dy="2" input="SourceAlpha"/>
      <feGaussianBlur stdDeviation="2" result="blur-3"/>
      <feFlood flood-opacity="0.161"/>
      <feComposite operator="in" in2="blur-3"/>
      <feComposite in="SourceGraphic"/>
    </filter>
    <filter id="Trazado_710452" x="346.679" y="99.874" width="215" height="61" filterUnits="userSpaceOnUse">
      <feOffset dy="2" input="SourceAlpha"/>
      <feGaussianBlur stdDeviation="2" result="blur-4"/>
      <feFlood flood-opacity="0.161"/>
      <feComposite operator="in" in2="blur-4"/>
      <feComposite in="SourceGraphic"/>
    </filter>
    <radialGradient id="radial-gradient" cx="0.076" cy="0.019" r="1.465" gradientTransform="translate(0.001)" gradientUnits="objectBoundingBox">
      <stop offset="0" stop-color="#f6f6f7"/>
      <stop offset="0.477" stop-color="#f9f9fa"/>
      <stop offset="0.715" stop-color="#fff"/>
    </radialGradient>
    <clipPath id="clip-path">
      <rect id="Rectángulo_345916" data-name="Rectángulo 345916" width="28.768" height="32.142" fill="#12263f"/>
    </clipPath>
  </defs>
  <g id="Grupo_1001563" data-name="Grupo 1001563" transform="translate(10216.456 10271.938)">
    <g transform="matrix(1, 0, 0, 1, -10216.46, -10271.94)" filter="url(#Trazado_710455)">
      <path id="Trazado_710455-2" data-name="Trazado 710455" d="M5,0H198a5,5,0,0,1,5,5V44a5,5,0,0,1-5,5H5a5,5,0,0,1-5-5V5A5,5,0,0,1,5,0Z" transform="translate(52.46 16.94)" fill="#f6f6f6"/>
    </g>
    <g transform="matrix(1, 0, 0, 1, -10216.46, -10271.94)" filter="url(#Trazado_710456)">
      <path id="Trazado_710456-2" data-name="Trazado 710456" d="M5,0H198a5,5,0,0,1,5,5V44a5,5,0,0,1-5,5H5a5,5,0,0,1-5-5V5A5,5,0,0,1,5,0Z" transform="translate(52.46 103.87)" fill="#f6f6f6"/>
    </g>
    <g transform="matrix(1, 0, 0, 1, -10216.46, -10271.94)" filter="url(#Trazado_710451)">
      <path id="Trazado_710451-2" data-name="Trazado 710451" d="M5,0H198a5,5,0,0,1,5,5V44a5,5,0,0,1-5,5H5a5,5,0,0,1-5-5V5A5,5,0,0,1,5,0Z" transform="translate(352.68 16.94)" fill="#f6f6f6"/>
    </g>
    <g transform="matrix(1, 0, 0, 1, -10216.46, -10271.94)" filter="url(#Trazado_710452)">
      <path id="Trazado_710452-2" data-name="Trazado 710452" d="M5,0H198a5,5,0,0,1,5,5V44a5,5,0,0,1-5,5H5a5,5,0,0,1-5-5V5A5,5,0,0,1,5,0Z" transform="translate(352.68 103.87)" fill="#f6f6f6"/>
    </g>
    <g id="Grupo_1001179" data-name="Grupo 1001179" transform="translate(-10216.456 -10271.938)">
      <g id="Grupo_18531" data-name="Grupo 18531" transform="translate(0 0)">
        <g id="Grupo_18423" data-name="Grupo 18423" transform="translate(0 0)">
          <g id="Grupo_18421" data-name="Grupo 18421">
            <g id="Grupo_18420" data-name="Grupo 18420">
              <g id="Grupo_18419" data-name="Grupo 18419">
                <path id="Trazado_40936" data-name="Trazado 40936" d="M275.5,2186.157a40.437,40.437,0,1,1-40.436-40.436A40.437,40.437,0,0,1,275.5,2186.157Z" transform="translate(-194.623 -2145.721)" fill="#fff"/>
              </g>
            </g>
          </g>
          <path id="Trazado_40937" data-name="Trazado 40937" d="M275.318,2185.962a40.436,40.436,0,1,0-40.436,40.438A40.277,40.277,0,0,0,275.318,2185.962Z" transform="translate(-194.444 -2145.525)" fill="url(#radial-gradient)"/>
          <path id="Trazado_40938" data-name="Trazado 40938" d="M264.231,2184.46a30.865,30.865,0,1,0-30.865,30.865A30.751,30.751,0,0,0,264.231,2184.46Z" transform="translate(-192.806 -2143.889)" fill="none" stroke="#7e5ee3" stroke-miterlimit="10" stroke-width="3"/>
          <g id="Grupo_18422" data-name="Grupo 18422" transform="translate(7.164 22.702)">
            <path id="Trazado_40939" data-name="Trazado 40939" d="M270.166,2164.488a40.442,40.442,0,0,1-69.621,40.27,40.313,40.313,0,0,0,69.621-40.27Z" transform="translate(-200.545 -2164.488)" fill="#eceef0"/>
          </g>
        </g>
      </g>
    </g>
    <g id="Grupo_1001182" data-name="Grupo 1001182" transform="translate(-10216.456 -10185.001)">
      <g id="Grupo_18531-2" data-name="Grupo 18531" transform="translate(0 0)">
        <g id="Grupo_18423-2" data-name="Grupo 18423" transform="translate(0 0)">
          <g id="Grupo_18421-2" data-name="Grupo 18421">
            <g id="Grupo_18420-2" data-name="Grupo 18420">
              <g id="Grupo_18419-2" data-name="Grupo 18419">
                <path id="Trazado_40936-2" data-name="Trazado 40936" d="M275.5,2186.157a40.437,40.437,0,1,1-40.436-40.436A40.437,40.437,0,0,1,275.5,2186.157Z" transform="translate(-194.623 -2145.721)" fill="#fff"/>
              </g>
            </g>
          </g>
          <path id="Trazado_40937-2" data-name="Trazado 40937" d="M275.318,2185.962a40.436,40.436,0,1,0-40.436,40.438A40.277,40.277,0,0,0,275.318,2185.962Z" transform="translate(-194.444 -2145.525)" fill="url(#radial-gradient)"/>
          <path id="Trazado_40938-2" data-name="Trazado 40938" d="M264.231,2184.46a30.865,30.865,0,1,0-30.865,30.865A30.751,30.751,0,0,0,264.231,2184.46Z" transform="translate(-192.806 -2143.889)" fill="none" stroke="#7e5ee3" stroke-miterlimit="10" stroke-width="3"/>
          <g id="Grupo_18422-2" data-name="Grupo 18422" transform="translate(7.164 22.702)">
            <path id="Trazado_40939-2" data-name="Trazado 40939" d="M270.166,2164.488a40.442,40.442,0,0,1-69.621,40.27,40.313,40.313,0,0,0,69.621-40.27Z" transform="translate(-200.545 -2164.488)" fill="#eceef0"/>
          </g>
        </g>
      </g>
      <g id="Grupo_1001193" data-name="Grupo 1001193" transform="translate(22.968 -60.876)">
        <g id="Grupo_1001191" data-name="Grupo 1001191" clip-path="url(#clip-path)">
          <path id="Trazado_707620" data-name="Trazado 707620" d="M28.324,32.141h-3.14a.778.778,0,0,1-.444-.818c.023-.559.006-1.119.006-1.675H4.022c0,.571-.017,1.124.006,1.675a.779.779,0,0,1-.444.819H.444A.8.8,0,0,1,0,31.322Q.011,16.068.006.813C.006.2.2,0,.806,0H27.962c.6,0,.8.2.8.813q0,15.255.006,30.51a.8.8,0,0,1-.444.819M4.037,11.3H7.854c1.214,0,2.427,0,3.641,0a.628.628,0,0,1,.684.734.639.639,0,0,1-.713.518H4.047v4.5H5.53c0-.12,0-.223,0-.325,0-.67,0-1.339,0-2.009a.606.606,0,0,1,.666-.66q1.978-.005,3.955,0a.608.608,0,0,1,.648.649c.007.533,0,1.067,0,1.6,0,.247,0,.495,0,.738H12.25c0-.787,0-1.55,0-2.313a.614.614,0,0,1,.683-.676q1.46,0,2.919,0a.611.611,0,0,1,.663.665c.005.68,0,1.36,0,2.04v.289h8.207v-4.5H20.377c-1.046,0-2.093,0-3.139,0a.624.624,0,0,1-.646-.766A.643.643,0,0,1,17.3,11.3h7.419V9.807H4.037Zm20.694,9.813H4.047V25.6h7.2c0-.13,0-.242,0-.355,0-.67,0-1.339,0-2.009a.6.6,0,0,1,.632-.63q2.009-.008,4.018,0a.6.6,0,0,1,.619.613c.006.115,0,.23,0,.345q0,1.014,0,2.03h1.447c0-.785,0-1.547,0-2.31a.615.615,0,0,1,.679-.68q1.962,0,3.924,0a.61.61,0,0,1,.667.66c.005.68,0,1.36,0,2.04v.3h1.494ZM5.53,8.525c0-.8,0-1.557,0-2.32a.613.613,0,0,1,.678-.68q1.946,0,3.891,0a.624.624,0,0,1,.7.691c0,.669,0,1.339,0,2.008v.3h1.409c.015-.034.03-.052.03-.07,0-.732,0-1.464.007-2.2,0-.5.225-.73.723-.731q1.381,0,2.762,0c.58,0,.783.207.783.8,0,.729,0,1.458,0,2.195h1.447c0-.792,0-1.564,0-2.336a.6.6,0,0,1,.608-.654q2.024-.011,4.048,0a.6.6,0,0,1,.613.649c.006.565,0,1.13,0,1.694,0,.216,0,.432,0,.643H24.73V4.031H4.041V8.525ZM2.747,1.279H1.276V30.873H2.747ZM26.022,30.861h1.469V1.267H26.022ZM24.732,1.275H4.048v1.47H24.732ZM4.037,19.816H24.721V18.345H4.037Zm20.694,7.073H4.048v1.47H24.731ZM6.808,8.512H9.531V6.792H6.808Zm12.424,0h2.726V6.794H19.232ZM9.526,15.341H6.8v1.721H9.526Zm5.723,8.535H12.524V25.6h2.725Zm3.987,1.717h2.724V23.869H19.236ZM15.243,6.8H13.529V8.532h1.714ZM13.526,17.05h1.72V15.33h-1.72Z" transform="translate(0 0)" fill="#12263f"/>
          <rect id="Rectángulo_345914" data-name="Rectángulo 345914" width="1.471" height="29.594" transform="translate(1.276 1.279)" fill="#81d4fa"/>
          <rect id="Rectángulo_345915" data-name="Rectángulo 345915" width="1.469" height="29.594" transform="translate(26.022 1.267)" fill="#81d4fa"/>
          <path id="Trazado_707621" data-name="Trazado 707621" d="M220,180.34a.627.627,0,1,1-.606-.654.62.62,0,0,1,.606.654" transform="translate(-204.987 -168.385)" fill="#12263f"/>
        </g>
      </g>
      <path id="Trazado_707624" data-name="Trazado 707624" d="M89.985,154.525l-3.036-3.461-3.036,3.461h.938c.458,0,.633.175.633.631q0,3.053,0,6.107a2.268,2.268,0,0,1-.014.32.5.5,0,0,1-.973.044,1.031,1.031,0,0,1-.023-.243q0-2.817,0-5.634v-.235h-.408c-.408,0-.817,0-1.225,0a.479.479,0,0,1-.479-.28.485.485,0,0,1,.09-.561q2.049-2.335,4.1-4.67a.511.511,0,0,1,.8,0q2.059,2.339,4.112,4.684a.471.471,0,0,1,.081.546.483.483,0,0,1-.477.284c-.478,0-.957.007-1.435-.005-.173,0-.212.049-.212.213.006,1.847,0,3.693,0,5.54,0,.082,0,.164,0,.246a.5.5,0,0,1-.5.5.51.51,0,0,1-.507-.491c-.006-.094,0-.189,0-.283q0-3.034,0-6.069c0-.466.174-.637.647-.637h.927" transform="translate(-28.616 -212.075)" fill="#12263f"/>
      <path id="Trazado_707625" data-name="Trazado 707625" d="M191.456,374.245q0,1.077,0,2.154a.5.5,0,1,1-1,0q0-2.173,0-4.346a.5.5,0,1,1,1,0q0,1.1,0,2.192" transform="translate(-132.621 -425.364)" fill="#12263f"/>
    </g>
    <g id="Grupo_1001180" data-name="Grupo 1001180" transform="translate(-9916.234 -10271.938)">
      <g id="Grupo_18531-3" data-name="Grupo 18531" transform="translate(0 0)">
        <g id="Grupo_18423-3" data-name="Grupo 18423" transform="translate(0 0)">
          <g id="Grupo_18421-3" data-name="Grupo 18421">
            <g id="Grupo_18420-3" data-name="Grupo 18420">
              <g id="Grupo_18419-3" data-name="Grupo 18419">
                <path id="Trazado_40936-3" data-name="Trazado 40936" d="M275.5,2186.157a40.437,40.437,0,1,1-40.436-40.436A40.437,40.437,0,0,1,275.5,2186.157Z" transform="translate(-194.623 -2145.721)" fill="#fff"/>
              </g>
            </g>
          </g>
          <path id="Trazado_40937-3" data-name="Trazado 40937" d="M275.318,2185.962a40.436,40.436,0,1,0-40.436,40.438A40.277,40.277,0,0,0,275.318,2185.962Z" transform="translate(-194.444 -2145.525)" fill="url(#radial-gradient)"/>
          <path id="Trazado_40938-3" data-name="Trazado 40938" d="M264.231,2184.46a30.865,30.865,0,1,0-30.865,30.865A30.751,30.751,0,0,0,264.231,2184.46Z" transform="translate(-192.806 -2143.889)" fill="none" stroke="#7e5ee3" stroke-miterlimit="10" stroke-width="3"/>
          <g id="Grupo_18422-3" data-name="Grupo 18422" transform="translate(7.164 22.702)">
            <path id="Trazado_40939-3" data-name="Trazado 40939" d="M270.166,2164.488a40.442,40.442,0,0,1-69.621,40.27,40.313,40.313,0,0,0,69.621-40.27Z" transform="translate(-200.545 -2164.488)" fill="#eceef0"/>
          </g>
        </g>
      </g>
      <g id="Grupo_1001196" data-name="Grupo 1001196" transform="translate(10215.234 10270.938)">
        <g id="Grupo_1001192" data-name="Grupo 1001192" transform="translate(-10193.488 -10245.877)">
          <g id="Grupo_1001191-2" data-name="Grupo 1001191" clip-path="url(#clip-path)">
            <path id="Trazado_707620-2" data-name="Trazado 707620" d="M28.324,32.141h-3.14a.778.778,0,0,1-.444-.818c.023-.559.006-1.119.006-1.675H4.022c0,.571-.017,1.124.006,1.675a.779.779,0,0,1-.444.819H.444A.8.8,0,0,1,0,31.322Q.011,16.068.006.813C.006.2.2,0,.806,0H27.962c.6,0,.8.2.8.813q0,15.255.006,30.51a.8.8,0,0,1-.444.819M4.037,11.3H7.854c1.214,0,2.427,0,3.641,0a.628.628,0,0,1,.684.734.639.639,0,0,1-.713.518H4.047v4.5H5.53c0-.12,0-.223,0-.325,0-.67,0-1.339,0-2.009a.606.606,0,0,1,.666-.66q1.978-.005,3.955,0a.608.608,0,0,1,.648.649c.007.533,0,1.067,0,1.6,0,.247,0,.495,0,.738H12.25c0-.787,0-1.55,0-2.313a.614.614,0,0,1,.683-.676q1.46,0,2.919,0a.611.611,0,0,1,.663.665c.005.68,0,1.36,0,2.04v.289h8.207v-4.5H20.377c-1.046,0-2.093,0-3.139,0a.624.624,0,0,1-.646-.766A.643.643,0,0,1,17.3,11.3h7.419V9.807H4.037Zm20.694,9.813H4.047V25.6h7.2c0-.13,0-.242,0-.355,0-.67,0-1.339,0-2.009a.6.6,0,0,1,.632-.63q2.009-.008,4.018,0a.6.6,0,0,1,.619.613c.006.115,0,.23,0,.345q0,1.014,0,2.03h1.447c0-.785,0-1.547,0-2.31a.615.615,0,0,1,.679-.68q1.962,0,3.924,0a.61.61,0,0,1,.667.66c.005.68,0,1.36,0,2.04v.3h1.494ZM5.53,8.525c0-.8,0-1.557,0-2.32a.613.613,0,0,1,.678-.68q1.946,0,3.891,0a.624.624,0,0,1,.7.691c0,.669,0,1.339,0,2.008v.3h1.409c.015-.034.03-.052.03-.07,0-.732,0-1.464.007-2.2,0-.5.225-.73.723-.731q1.381,0,2.762,0c.58,0,.783.207.783.8,0,.729,0,1.458,0,2.195h1.447c0-.792,0-1.564,0-2.336a.6.6,0,0,1,.608-.654q2.024-.011,4.048,0a.6.6,0,0,1,.613.649c.006.565,0,1.13,0,1.694,0,.216,0,.432,0,.643H24.73V4.031H4.041V8.525ZM2.747,1.279H1.276V30.873H2.747ZM26.022,30.861h1.469V1.267H26.022ZM24.732,1.275H4.048v1.47H24.732ZM4.037,19.816H24.721V18.345H4.037Zm20.694,7.073H4.048v1.47H24.731ZM6.808,8.512H9.531V6.792H6.808Zm12.424,0h2.726V6.794H19.232ZM9.526,15.341H6.8v1.721H9.526Zm5.723,8.535H12.524V25.6h2.725Zm3.987,1.717h2.724V23.869H19.236ZM15.243,6.8H13.529V8.532h1.714ZM13.526,17.05h1.72V15.33h-1.72Z" transform="translate(0 0)" fill="#12263f"/>
            <rect id="Rectángulo_345914-2" data-name="Rectángulo 345914" width="1.471" height="29.594" transform="translate(1.276 1.279)" fill="#81d4fa"/>
            <rect id="Rectángulo_345915-2" data-name="Rectángulo 345915" width="1.469" height="29.594" transform="translate(26.022 1.267)" fill="#81d4fa"/>
            <path id="Trazado_707621-2" data-name="Trazado 707621" d="M220,180.34a.627.627,0,1,1-.606-.654.62.62,0,0,1,.606.654" transform="translate(-204.987 -168.385)" fill="#12263f"/>
          </g>
        </g>
        <path id="Trazado_707622" data-name="Trazado 707622" d="M89.985,154.525l-3.036-3.461-3.036,3.461h.938c.458,0,.633.175.633.631q0,3.053,0,6.107a2.268,2.268,0,0,1-.014.32.5.5,0,0,1-.973.044,1.031,1.031,0,0,1-.023-.243q0-2.817,0-5.634v-.235h-.408c-.408,0-.817,0-1.225,0a.479.479,0,0,1-.479-.28.485.485,0,0,1,.09-.561q2.049-2.335,4.1-4.67a.511.511,0,0,1,.8,0q2.059,2.339,4.112,4.684a.471.471,0,0,1,.081.546.483.483,0,0,1-.477.284c-.478,0-.957.007-1.435-.005-.173,0-.212.049-.212.213.006,1.847,0,3.693,0,5.54,0,.082,0,.164,0,.246a.5.5,0,0,1-.5.5.51.51,0,0,1-.507-.491c-.006-.094,0-.189,0-.283q0-3.034,0-6.069c0-.466.174-.637.647-.637h.927" transform="translate(-10312.865 -10142.381) rotate(-90)" fill="#12263f"/>
        <path id="Trazado_707623" data-name="Trazado 707623" d="M191.456,374.245q0,1.077,0,2.154a.5.5,0,1,1-1,0q0-2.173,0-4.346a.5.5,0,1,1,1,0q0,1.1,0,2.192" transform="translate(-10526.154 -10038.377) rotate(-90)" fill="#12263f"/>
      </g>
    </g>
    <g id="Grupo_1001181" data-name="Grupo 1001181" transform="translate(-9916.234 -10185.001)">
      <g id="Grupo_18531-4" data-name="Grupo 18531" transform="translate(0 0)">
        <g id="Grupo_18423-4" data-name="Grupo 18423" transform="translate(0 0)">
          <g id="Grupo_18421-4" data-name="Grupo 18421">
            <g id="Grupo_18420-4" data-name="Grupo 18420">
              <g id="Grupo_18419-4" data-name="Grupo 18419">
                <path id="Trazado_40936-4" data-name="Trazado 40936" d="M275.5,2186.157a40.437,40.437,0,1,1-40.436-40.436A40.437,40.437,0,0,1,275.5,2186.157Z" transform="translate(-194.623 -2145.721)" fill="#fff"/>
              </g>
            </g>
          </g>
          <path id="Trazado_40937-4" data-name="Trazado 40937" d="M275.318,2185.962a40.436,40.436,0,1,0-40.436,40.438A40.277,40.277,0,0,0,275.318,2185.962Z" transform="translate(-194.444 -2145.525)" fill="url(#radial-gradient)"/>
          <path id="Trazado_40938-4" data-name="Trazado 40938" d="M264.231,2184.46a30.865,30.865,0,1,0-30.865,30.865A30.751,30.751,0,0,0,264.231,2184.46Z" transform="translate(-192.806 -2143.889)" fill="none" stroke="#7e5ee3" stroke-miterlimit="10" stroke-width="3"/>
          <g id="Grupo_18422-4" data-name="Grupo 18422" transform="translate(7.164 22.702)">
            <path id="Trazado_40939-4" data-name="Trazado 40939" d="M270.166,2164.488a40.442,40.442,0,0,1-69.621,40.27,40.313,40.313,0,0,0,69.621-40.27Z" transform="translate(-200.545 -2164.488)" fill="#eceef0"/>
          </g>
        </g>
      </g>
      <g id="Grupo_1001197" data-name="Grupo 1001197" transform="translate(10216.234 10270.243)">
        <g id="Grupo_1001192-2" data-name="Grupo 1001192" transform="translate(-10193.488 -10248.877)">
          <g id="Grupo_1001191-3" data-name="Grupo 1001191" clip-path="url(#clip-path)">
            <path id="Trazado_707620-3" data-name="Trazado 707620" d="M28.324,32.141h-3.14a.778.778,0,0,1-.444-.818c.023-.559.006-1.119.006-1.675H4.022c0,.571-.017,1.124.006,1.675a.779.779,0,0,1-.444.819H.444A.8.8,0,0,1,0,31.322Q.011,16.068.006.813C.006.2.2,0,.806,0H27.962c.6,0,.8.2.8.813q0,15.255.006,30.51a.8.8,0,0,1-.444.819M4.037,11.3H7.854c1.214,0,2.427,0,3.641,0a.628.628,0,0,1,.684.734.639.639,0,0,1-.713.518H4.047v4.5H5.53c0-.12,0-.223,0-.325,0-.67,0-1.339,0-2.009a.606.606,0,0,1,.666-.66q1.978-.005,3.955,0a.608.608,0,0,1,.648.649c.007.533,0,1.067,0,1.6,0,.247,0,.495,0,.738H12.25c0-.787,0-1.55,0-2.313a.614.614,0,0,1,.683-.676q1.46,0,2.919,0a.611.611,0,0,1,.663.665c.005.68,0,1.36,0,2.04v.289h8.207v-4.5H20.377c-1.046,0-2.093,0-3.139,0a.624.624,0,0,1-.646-.766A.643.643,0,0,1,17.3,11.3h7.419V9.807H4.037Zm20.694,9.813H4.047V25.6h7.2c0-.13,0-.242,0-.355,0-.67,0-1.339,0-2.009a.6.6,0,0,1,.632-.63q2.009-.008,4.018,0a.6.6,0,0,1,.619.613c.006.115,0,.23,0,.345q0,1.014,0,2.03h1.447c0-.785,0-1.547,0-2.31a.615.615,0,0,1,.679-.68q1.962,0,3.924,0a.61.61,0,0,1,.667.66c.005.68,0,1.36,0,2.04v.3h1.494ZM5.53,8.525c0-.8,0-1.557,0-2.32a.613.613,0,0,1,.678-.68q1.946,0,3.891,0a.624.624,0,0,1,.7.691c0,.669,0,1.339,0,2.008v.3h1.409c.015-.034.03-.052.03-.07,0-.732,0-1.464.007-2.2,0-.5.225-.73.723-.731q1.381,0,2.762,0c.58,0,.783.207.783.8,0,.729,0,1.458,0,2.195h1.447c0-.792,0-1.564,0-2.336a.6.6,0,0,1,.608-.654q2.024-.011,4.048,0a.6.6,0,0,1,.613.649c.006.565,0,1.13,0,1.694,0,.216,0,.432,0,.643H24.73V4.031H4.041V8.525ZM2.747,1.279H1.276V30.873H2.747ZM26.022,30.861h1.469V1.267H26.022ZM24.732,1.275H4.048v1.47H24.732ZM4.037,19.816H24.721V18.345H4.037Zm20.694,7.073H4.048v1.47H24.731ZM6.808,8.512H9.531V6.792H6.808Zm12.424,0h2.726V6.794H19.232ZM9.526,15.341H6.8v1.721H9.526Zm5.723,8.535H12.524V25.6h2.725Zm3.987,1.717h2.724V23.869H19.236ZM15.243,6.8H13.529V8.532h1.714ZM13.526,17.05h1.72V15.33h-1.72Z" transform="translate(0 0)" fill="#12263f"/>
            <rect id="Rectángulo_345914-3" data-name="Rectángulo 345914" width="1.471" height="29.594" transform="translate(1.276 1.279)" fill="#81d4fa"/>
            <rect id="Rectángulo_345915-3" data-name="Rectángulo 345915" width="1.469" height="29.594" transform="translate(26.022 1.267)" fill="#81d4fa"/>
            <path id="Trazado_707621-3" data-name="Trazado 707621" d="M220,180.34a.627.627,0,1,1-.606-.654.62.62,0,0,1,.606.654" transform="translate(-204.987 -168.385)" fill="#12263f"/>
          </g>
        </g>
        <path id="Trazado_707622-2" data-name="Trazado 707622" d="M89.985,154.525l-3.036-3.461-3.036,3.461h.938c.458,0,.633.175.633.631q0,3.053,0,6.107a2.268,2.268,0,0,1-.014.32.5.5,0,0,1-.973.044,1.031,1.031,0,0,1-.023-.243q0-2.817,0-5.634v-.235h-.408c-.408,0-.817,0-1.225,0a.479.479,0,0,1-.479-.28.485.485,0,0,1,.09-.561q2.049-2.335,4.1-4.67a.511.511,0,0,1,.8,0q2.059,2.339,4.112,4.684a.471.471,0,0,1,.081.546.483.483,0,0,1-.477.284c-.478,0-.957.007-1.435-.005-.173,0-.212.049-.212.213.006,1.847,0,3.693,0,5.54,0,.082,0,.164,0,.246a.5.5,0,0,1-.5.5.51.51,0,0,1-.507-.491c-.006-.094,0-.189,0-.283q0-3.034,0-6.069c0-.466.174-.637.647-.637h.927" transform="translate(-10312.865 -10133.381) rotate(-90)" fill="#12263f"/>
        <path id="Trazado_707623-2" data-name="Trazado 707623" d="M191.456,374.245q0,1.077,0,2.154a.5.5,0,1,1-1,0q0-2.173,0-4.346a.5.5,0,1,1,1,0q0,1.1,0,2.192" transform="translate(-10526.154 -10029.377) rotate(-90)" fill="#12263f"/>
      </g>
    </g>
    <path id="Trazado_710458" data-name="Trazado 710458" d="M10.266,0H7.922L3.359-7.484V0H1.016V-11.375H3.359l4.57,7.5v-7.5h2.336Zm4.281,0H12.281V-8.453h2.266Zm-2.4-10.641a1.112,1.112,0,0,1,.34-.836,1.277,1.277,0,0,1,.926-.328,1.28,1.28,0,0,1,.922.328,1.105,1.105,0,0,1,.344.836,1.108,1.108,0,0,1-.348.844,1.283,1.283,0,0,1-.918.328A1.283,1.283,0,0,1,12.5-9.8,1.108,1.108,0,0,1,12.148-10.641ZM19.57-2.758l1.57-5.7H23.5L20.648,0H18.492L15.641-8.453H18ZM28.281.156A4.15,4.15,0,0,1,25.254-.984a4.054,4.054,0,0,1-1.168-3.039v-.219a5.106,5.106,0,0,1,.492-2.277,3.612,3.612,0,0,1,1.395-1.547,3.914,3.914,0,0,1,2.059-.543,3.508,3.508,0,0,1,2.73,1.094,4.444,4.444,0,0,1,1,3.1v.922H26.375a2.1,2.1,0,0,0,.66,1.328,2,2,0,0,0,1.395.5,2.437,2.437,0,0,0,2.039-.945l1.109,1.242A3.389,3.389,0,0,1,30.2-.246,4.511,4.511,0,0,1,28.281.156Zm-.258-6.945a1.411,1.411,0,0,0-1.09.455,2.357,2.357,0,0,0-.535,1.3h3.141v-.181a1.681,1.681,0,0,0-.406-1.165A1.456,1.456,0,0,0,28.023-6.789ZM35.422,0H33.156V-12h2.266ZM45.844-2.336a.727.727,0,0,0-.41-.652,4.659,4.659,0,0,0-1.316-.426Q41.1-4.047,41.1-5.977a2.323,2.323,0,0,1,.934-1.879,3.766,3.766,0,0,1,2.441-.754,4.053,4.053,0,0,1,2.574.758,2.388,2.388,0,0,1,.965,1.969H45.758a1.092,1.092,0,0,0-.312-.8A1.322,1.322,0,0,0,44.469-7a1.351,1.351,0,0,0-.883.258.814.814,0,0,0-.312.656.7.7,0,0,0,.355.605,3.657,3.657,0,0,0,1.2.4A9.8,9.8,0,0,1,46.25-4.7,2.336,2.336,0,0,1,48.039-2.43a2.2,2.2,0,0,1-.992,1.871,4.28,4.28,0,0,1-2.562.715A4.47,4.47,0,0,1,42.6-.223,3.166,3.166,0,0,1,41.3-1.262a2.414,2.414,0,0,1-.469-1.426h2.141a1.179,1.179,0,0,0,.445.922,1.766,1.766,0,0,0,1.109.32,1.635,1.635,0,0,0,.98-.246A.766.766,0,0,0,45.844-2.336ZM54.555-.859A2.831,2.831,0,0,1,52.242.156a2.67,2.67,0,0,1-2.074-.781,3.335,3.335,0,0,1-.73-2.289V-8.453H51.7v5.467q0,1.322,1.2,1.322a1.63,1.63,0,0,0,1.578-.8V-8.453h2.266V0H54.617Zm11.5-3.289a5.07,5.07,0,0,1-.887,3.129A2.843,2.843,0,0,1,62.773.156,2.633,2.633,0,0,1,60.7-.734V3.25H58.445v-11.7h2.094l.078.828a2.654,2.654,0,0,1,2.141-.984,2.862,2.862,0,0,1,2.43,1.156,5.207,5.207,0,0,1,.867,3.188ZM63.8-4.321a3.345,3.345,0,0,0-.418-1.826,1.36,1.36,0,0,0-1.215-.643,1.478,1.478,0,0,0-1.461.815V-2.5a1.5,1.5,0,0,0,1.477.839Q63.8-1.664,63.8-4.321ZM71.344.156A4.15,4.15,0,0,1,68.316-.984a4.054,4.054,0,0,1-1.168-3.039v-.219a5.106,5.106,0,0,1,.492-2.277,3.612,3.612,0,0,1,1.395-1.547,3.914,3.914,0,0,1,2.059-.543,3.508,3.508,0,0,1,2.73,1.094,4.444,4.444,0,0,1,1,3.1v.922H69.438a2.1,2.1,0,0,0,.66,1.328,2,2,0,0,0,1.395.5,2.437,2.437,0,0,0,2.039-.945l1.109,1.242A3.389,3.389,0,0,1,73.266-.246,4.511,4.511,0,0,1,71.344.156Zm-.258-6.945A1.411,1.411,0,0,0,70-6.334a2.357,2.357,0,0,0-.535,1.3H72.6v-.181A1.681,1.681,0,0,0,72.2-6.377,1.456,1.456,0,0,0,71.086-6.789Zm9.766.453a6.134,6.134,0,0,0-.812-.062,1.654,1.654,0,0,0-1.68.867V0H76.1V-8.453h2.133L78.3-7.445A2.092,2.092,0,0,1,80.18-8.609a2.366,2.366,0,0,1,.7.1ZM84.32,0H82.055V-8.453H84.32Zm-2.4-10.641a1.112,1.112,0,0,1,.34-.836,1.277,1.277,0,0,1,.926-.328,1.28,1.28,0,0,1,.922.328,1.105,1.105,0,0,1,.344.836,1.108,1.108,0,0,1-.348.844,1.283,1.283,0,0,1-.918.328A1.283,1.283,0,0,1,82.27-9.8,1.108,1.108,0,0,1,81.922-10.641ZM85.828-4.3a5.013,5.013,0,0,1,.484-2.242A3.546,3.546,0,0,1,87.707-8.07a4.069,4.069,0,0,1,2.113-.539,3.849,3.849,0,0,1,2.793,1.047A4.2,4.2,0,0,1,93.82-4.719l.016.578A4.418,4.418,0,0,1,92.75-1.02,3.775,3.775,0,0,1,89.836.156a3.793,3.793,0,0,1-2.918-1.172A4.5,4.5,0,0,1,85.828-4.2Zm2.258.16A3.16,3.16,0,0,0,88.539-2.3a1.5,1.5,0,0,0,1.3.638,1.5,1.5,0,0,0,1.281-.63,3.457,3.457,0,0,0,.461-2.015,3.128,3.128,0,0,0-.461-1.831,1.5,1.5,0,0,0-1.3-.649,1.474,1.474,0,0,0-1.281.646A3.516,3.516,0,0,0,88.086-4.144ZM99.977-6.336a6.134,6.134,0,0,0-.812-.062,1.654,1.654,0,0,0-1.68.867V0H95.227V-8.453h2.133l.063,1.008A2.092,2.092,0,0,1,99.3-8.609a2.366,2.366,0,0,1,.7.1Z" transform="translate(-10122 -10225)" fill="#12263f"/>
    <path id="Trazado_710457" data-name="Trazado 710457" d="M10.266,0H7.922L3.359-7.484V0H1.016V-11.375H3.359l4.57,7.5v-7.5h2.336Zm4.281,0H12.281V-8.453h2.266Zm-2.4-10.641a1.112,1.112,0,0,1,.34-.836,1.277,1.277,0,0,1,.926-.328,1.28,1.28,0,0,1,.922.328,1.105,1.105,0,0,1,.344.836,1.108,1.108,0,0,1-.348.844,1.283,1.283,0,0,1-.918.328A1.283,1.283,0,0,1,12.5-9.8,1.108,1.108,0,0,1,12.148-10.641ZM19.57-2.758l1.57-5.7H23.5L20.648,0H18.492L15.641-8.453H18ZM28.281.156A4.15,4.15,0,0,1,25.254-.984a4.054,4.054,0,0,1-1.168-3.039v-.219a5.106,5.106,0,0,1,.492-2.277,3.612,3.612,0,0,1,1.395-1.547,3.914,3.914,0,0,1,2.059-.543,3.508,3.508,0,0,1,2.73,1.094,4.444,4.444,0,0,1,1,3.1v.922H26.375a2.1,2.1,0,0,0,.66,1.328,2,2,0,0,0,1.395.5,2.437,2.437,0,0,0,2.039-.945l1.109,1.242A3.389,3.389,0,0,1,30.2-.246,4.511,4.511,0,0,1,28.281.156Zm-.258-6.945a1.411,1.411,0,0,0-1.09.455,2.357,2.357,0,0,0-.535,1.3h3.141v-.181a1.681,1.681,0,0,0-.406-1.165A1.456,1.456,0,0,0,28.023-6.789ZM35.422,0H33.156V-12h2.266Zm5.492-4.289A5.094,5.094,0,0,1,41.8-7.437a2.877,2.877,0,0,1,2.426-1.172,2.589,2.589,0,0,1,2.039.922V-12h2.266V0H46.492l-.109-.9A2.657,2.657,0,0,1,44.211.156,2.869,2.869,0,0,1,41.816-1.02,5.258,5.258,0,0,1,40.914-4.289Zm2.258.161A3.355,3.355,0,0,0,43.586-2.3a1.348,1.348,0,0,0,1.2.636,1.51,1.51,0,0,0,1.477-.887V-5.9A1.489,1.489,0,0,0,44.8-6.789Q43.172-6.789,43.172-4.128Zm11,4.285A4.15,4.15,0,0,1,51.145-.984a4.054,4.054,0,0,1-1.168-3.039v-.219a5.106,5.106,0,0,1,.492-2.277,3.612,3.612,0,0,1,1.395-1.547,3.914,3.914,0,0,1,2.059-.543,3.508,3.508,0,0,1,2.73,1.094,4.444,4.444,0,0,1,1,3.1v.922H52.266a2.1,2.1,0,0,0,.66,1.328,2,2,0,0,0,1.395.5,2.437,2.437,0,0,0,2.039-.945l1.109,1.242A3.389,3.389,0,0,1,56.094-.246,4.511,4.511,0,0,1,54.172.156Zm-.258-6.945a1.411,1.411,0,0,0-1.09.455,2.357,2.357,0,0,0-.535,1.3H55.43v-.181a1.681,1.681,0,0,0-.406-1.165A1.456,1.456,0,0,0,53.914-6.789ZM65.3,0H63.031V-12H65.3ZM66.8-4.3a5.013,5.013,0,0,1,.484-2.242A3.546,3.546,0,0,1,68.684-8.07,4.069,4.069,0,0,1,70.8-8.609,3.849,3.849,0,0,1,73.59-7.562,4.2,4.2,0,0,1,74.8-4.719l.016.578A4.418,4.418,0,0,1,73.727-1.02,3.775,3.775,0,0,1,70.813.156a3.793,3.793,0,0,1-2.918-1.172A4.5,4.5,0,0,1,66.8-4.2Zm2.258.16A3.16,3.16,0,0,0,69.516-2.3a1.5,1.5,0,0,0,1.3.638,1.5,1.5,0,0,0,1.281-.63,3.457,3.457,0,0,0,.461-2.015,3.128,3.128,0,0,0-.461-1.831,1.5,1.5,0,0,0-1.3-.649,1.474,1.474,0,0,0-1.281.646A3.516,3.516,0,0,0,69.063-4.144ZM80.781-2.336a.727.727,0,0,0-.41-.652,4.659,4.659,0,0,0-1.316-.426q-3.016-.633-3.016-2.562a2.323,2.323,0,0,1,.934-1.879,3.766,3.766,0,0,1,2.441-.754,4.053,4.053,0,0,1,2.574.758,2.388,2.388,0,0,1,.965,1.969H80.7a1.092,1.092,0,0,0-.312-.8A1.322,1.322,0,0,0,79.406-7a1.351,1.351,0,0,0-.883.258.814.814,0,0,0-.312.656.7.7,0,0,0,.355.605,3.657,3.657,0,0,0,1.2.4,9.8,9.8,0,0,1,1.422.379A2.336,2.336,0,0,1,82.977-2.43a2.2,2.2,0,0,1-.992,1.871,4.28,4.28,0,0,1-2.562.715,4.47,4.47,0,0,1-1.887-.379,3.166,3.166,0,0,1-1.293-1.039,2.414,2.414,0,0,1-.469-1.426h2.141a1.179,1.179,0,0,0,.445.922,1.766,1.766,0,0,0,1.109.32,1.635,1.635,0,0,0,.98-.246A.766.766,0,0,0,80.781-2.336ZM88.063-4.3a5.013,5.013,0,0,1,.484-2.242A3.546,3.546,0,0,1,89.941-8.07a4.069,4.069,0,0,1,2.113-.539,3.849,3.849,0,0,1,2.793,1.047,4.2,4.2,0,0,1,1.207,2.844l.016.578A4.418,4.418,0,0,1,94.984-1.02,3.775,3.775,0,0,1,92.07.156a3.793,3.793,0,0,1-2.918-1.172A4.5,4.5,0,0,1,88.063-4.2Zm2.258.16A3.16,3.16,0,0,0,90.773-2.3a1.5,1.5,0,0,0,1.3.638,1.5,1.5,0,0,0,1.281-.63,3.457,3.457,0,0,0,.461-2.015,3.128,3.128,0,0,0-.461-1.831,1.5,1.5,0,0,0-1.3-.649,1.474,1.474,0,0,0-1.281.646A3.516,3.516,0,0,0,90.32-4.144Zm9.531-4.309V.461a3.024,3.024,0,0,1-.742,2.176,2.821,2.821,0,0,1-2.141.777,4.591,4.591,0,0,1-1.117-.133V1.492a4.238,4.238,0,0,0,.711.07q1.023,0,1.023-1.086v-8.93Zm-2.445-2.187a1.112,1.112,0,0,1,.34-.836,1.277,1.277,0,0,1,.926-.328,1.277,1.277,0,0,1,.926.328,1.112,1.112,0,0,1,.34.836,1.108,1.108,0,0,1-.348.844,1.283,1.283,0,0,1-.918.328,1.283,1.283,0,0,1-.918-.328A1.108,1.108,0,0,1,97.406-10.641ZM101.266-4.3a5.013,5.013,0,0,1,.484-2.242,3.546,3.546,0,0,1,1.395-1.523,4.069,4.069,0,0,1,2.113-.539,3.849,3.849,0,0,1,2.793,1.047,4.2,4.2,0,0,1,1.207,2.844l.016.578a4.418,4.418,0,0,1-1.086,3.121A3.775,3.775,0,0,1,105.273.156a3.793,3.793,0,0,1-2.918-1.172,4.5,4.5,0,0,1-1.09-3.187Zm2.258.16a3.16,3.16,0,0,0,.453,1.843,1.5,1.5,0,0,0,1.3.638,1.5,1.5,0,0,0,1.281-.63,3.457,3.457,0,0,0,.461-2.015,3.128,3.128,0,0,0-.461-1.831,1.5,1.5,0,0,0-1.3-.649,1.474,1.474,0,0,0-1.281.646A3.516,3.516,0,0,0,103.523-4.144Zm11.719,1.808a.727.727,0,0,0-.41-.652,4.659,4.659,0,0,0-1.316-.426Q110.5-4.047,110.5-5.977a2.323,2.323,0,0,1,.934-1.879,3.766,3.766,0,0,1,2.441-.754,4.053,4.053,0,0,1,2.574.758,2.388,2.388,0,0,1,.965,1.969h-2.258a1.092,1.092,0,0,0-.312-.8A1.322,1.322,0,0,0,113.867-7a1.351,1.351,0,0,0-.883.258.814.814,0,0,0-.312.656.7.7,0,0,0,.355.605,3.657,3.657,0,0,0,1.2.4,9.8,9.8,0,0,1,1.422.379,2.336,2.336,0,0,1,1.789,2.273,2.2,2.2,0,0,1-.992,1.871,4.28,4.28,0,0,1-2.562.715A4.47,4.47,0,0,1,112-.223,3.166,3.166,0,0,1,110.7-1.262a2.414,2.414,0,0,1-.469-1.426h2.141a1.179,1.179,0,0,0,.445.922,1.766,1.766,0,0,0,1.109.32,1.635,1.635,0,0,0,.98-.246A.766.766,0,0,0,115.242-2.336Z" transform="translate(-10122 -10138.063)" fill="#12263f"/>
    <path id="Trazado_710453" data-name="Trazado 710453" d="M10.266,0H7.922L3.359-7.484V0H1.016V-11.375H3.359l4.57,7.5v-7.5h2.336Zm4.281,0H12.281V-8.453h2.266Zm-2.4-10.641a1.112,1.112,0,0,1,.34-.836,1.277,1.277,0,0,1,.926-.328,1.28,1.28,0,0,1,.922.328,1.105,1.105,0,0,1,.344.836,1.108,1.108,0,0,1-.348.844,1.283,1.283,0,0,1-.918.328A1.283,1.283,0,0,1,12.5-9.8,1.108,1.108,0,0,1,12.148-10.641ZM19.57-2.758l1.57-5.7H23.5L20.648,0H18.492L15.641-8.453H18ZM28.281.156A4.15,4.15,0,0,1,25.254-.984a4.054,4.054,0,0,1-1.168-3.039v-.219a5.106,5.106,0,0,1,.492-2.277,3.612,3.612,0,0,1,1.395-1.547,3.914,3.914,0,0,1,2.059-.543,3.508,3.508,0,0,1,2.73,1.094,4.444,4.444,0,0,1,1,3.1v.922H26.375a2.1,2.1,0,0,0,.66,1.328,2,2,0,0,0,1.395.5,2.437,2.437,0,0,0,2.039-.945l1.109,1.242A3.389,3.389,0,0,1,30.2-.246,4.511,4.511,0,0,1,28.281.156Zm-.258-6.945a1.411,1.411,0,0,0-1.09.455,2.357,2.357,0,0,0-.535,1.3h3.141v-.181a1.681,1.681,0,0,0-.406-1.165A1.456,1.456,0,0,0,28.023-6.789ZM35.422,0H33.156V-12h2.266Zm5.492-4.289A5.094,5.094,0,0,1,41.8-7.437a2.877,2.877,0,0,1,2.426-1.172,2.589,2.589,0,0,1,2.039.922V-12h2.266V0H46.492l-.109-.9A2.657,2.657,0,0,1,44.211.156,2.869,2.869,0,0,1,41.816-1.02,5.258,5.258,0,0,1,40.914-4.289Zm2.258.161A3.355,3.355,0,0,0,43.586-2.3a1.348,1.348,0,0,0,1.2.636,1.51,1.51,0,0,0,1.477-.887V-5.9A1.489,1.489,0,0,0,44.8-6.789Q43.172-6.789,43.172-4.128Zm11,4.285A4.15,4.15,0,0,1,51.145-.984a4.054,4.054,0,0,1-1.168-3.039v-.219a5.106,5.106,0,0,1,.492-2.277,3.612,3.612,0,0,1,1.395-1.547,3.914,3.914,0,0,1,2.059-.543,3.508,3.508,0,0,1,2.73,1.094,4.444,4.444,0,0,1,1,3.1v.922H52.266a2.1,2.1,0,0,0,.66,1.328,2,2,0,0,0,1.395.5,2.437,2.437,0,0,0,2.039-.945l1.109,1.242A3.389,3.389,0,0,1,56.094-.246,4.511,4.511,0,0,1,54.172.156Zm-.258-6.945a1.411,1.411,0,0,0-1.09.455,2.357,2.357,0,0,0-.535,1.3H55.43v-.181a1.681,1.681,0,0,0-.406-1.165A1.456,1.456,0,0,0,53.914-6.789ZM65.3,0H63.031V-12H65.3Zm6.758,0a2.507,2.507,0,0,1-.227-.758A2.732,2.732,0,0,1,69.7.156a3,3,0,0,1-2.059-.719,2.312,2.312,0,0,1-.816-1.812,2.389,2.389,0,0,1,1-2.062A4.915,4.915,0,0,1,70.7-5.164h1.039v-.484a1.393,1.393,0,0,0-.3-.937,1.183,1.183,0,0,0-.949-.352,1.345,1.345,0,0,0-.895.273.929.929,0,0,0-.324.75H67.008a2.268,2.268,0,0,1,.453-1.359,3,3,0,0,1,1.281-.98A4.669,4.669,0,0,1,70.6-8.609a3.689,3.689,0,0,1,2.48.785A2.747,2.747,0,0,1,74-5.617v3.664a4.041,4.041,0,0,0,.336,1.82V0ZM70.188-1.57a1.945,1.945,0,0,0,.922-.223,1.462,1.462,0,0,0,.625-.6V-3.844h-.844q-1.7,0-1.8,1.172l-.008.133a.9.9,0,0,0,.3.7A1.153,1.153,0,0,0,70.188-1.57Zm10.125-.766a.727.727,0,0,0-.41-.652,4.659,4.659,0,0,0-1.316-.426Q75.57-4.047,75.57-5.977A2.323,2.323,0,0,1,76.5-7.855a3.766,3.766,0,0,1,2.441-.754,4.053,4.053,0,0,1,2.574.758,2.388,2.388,0,0,1,.965,1.969H80.227a1.092,1.092,0,0,0-.312-.8A1.322,1.322,0,0,0,78.938-7a1.351,1.351,0,0,0-.883.258.814.814,0,0,0-.312.656.7.7,0,0,0,.355.605,3.657,3.657,0,0,0,1.2.4,9.8,9.8,0,0,1,1.422.379A2.336,2.336,0,0,1,82.508-2.43a2.2,2.2,0,0,1-.992,1.871,4.28,4.28,0,0,1-2.562.715,4.47,4.47,0,0,1-1.887-.379,3.166,3.166,0,0,1-1.293-1.039A2.414,2.414,0,0,1,75.3-2.687h2.141a1.179,1.179,0,0,0,.445.922A1.766,1.766,0,0,0,79-1.445a1.635,1.635,0,0,0,.98-.246A.766.766,0,0,0,80.313-2.336Zm9.75-6.117.07.945a2.971,2.971,0,0,1,2.43-1.1A2.255,2.255,0,0,1,94.8-7.32a2.9,2.9,0,0,1,2.539-1.289,2.521,2.521,0,0,1,2.047.8,3.681,3.681,0,0,1,.672,2.41V0H97.8V-5.4a1.616,1.616,0,0,0-.281-1.053,1.245,1.245,0,0,0-.992-.333,1.409,1.409,0,0,0-1.406.971L95.125,0H92.867V-5.4a1.6,1.6,0,0,0-.289-1.065,1.257,1.257,0,0,0-.984-.329,1.463,1.463,0,0,0-1.391.8V0H87.945V-8.453ZM106.7,0a2.507,2.507,0,0,1-.227-.758,2.732,2.732,0,0,1-2.133.914,3,3,0,0,1-2.059-.719,2.312,2.312,0,0,1-.816-1.812,2.389,2.389,0,0,1,1-2.062,4.915,4.915,0,0,1,2.879-.727h1.039v-.484a1.393,1.393,0,0,0-.3-.937,1.183,1.183,0,0,0-.949-.352,1.345,1.345,0,0,0-.895.273.929.929,0,0,0-.324.75h-2.258a2.268,2.268,0,0,1,.453-1.359,3,3,0,0,1,1.281-.98,4.669,4.669,0,0,1,1.859-.355,3.689,3.689,0,0,1,2.48.785,2.747,2.747,0,0,1,.918,2.207v3.664a4.041,4.041,0,0,0,.336,1.82V0Zm-1.867-1.57a1.945,1.945,0,0,0,.922-.223,1.462,1.462,0,0,0,.625-.6V-3.844h-.844q-1.7,0-1.8,1.172l-.008.133a.9.9,0,0,0,.3.7A1.153,1.153,0,0,0,104.828-1.57Zm7.625-6.883.07.977a2.951,2.951,0,0,1,2.43-1.133,2.453,2.453,0,0,1,2,.789,3.682,3.682,0,0,1,.672,2.359V0h-2.258V-5.419a1.47,1.47,0,0,0-.312-1.045,1.4,1.4,0,0,0-1.039-.325,1.553,1.553,0,0,0-1.43.814V0h-2.258V-8.453ZM118.984-4.3a5.013,5.013,0,0,1,.484-2.242,3.546,3.546,0,0,1,1.395-1.523,4.069,4.069,0,0,1,2.113-.539,3.849,3.849,0,0,1,2.793,1.047,4.2,4.2,0,0,1,1.207,2.844l.016.578a4.418,4.418,0,0,1-1.086,3.121A3.775,3.775,0,0,1,122.992.156a3.793,3.793,0,0,1-2.918-1.172,4.5,4.5,0,0,1-1.09-3.187Zm2.258.16A3.16,3.16,0,0,0,121.7-2.3a1.5,1.5,0,0,0,1.3.638,1.5,1.5,0,0,0,1.281-.63,3.457,3.457,0,0,0,.461-2.015,3.128,3.128,0,0,0-.461-1.831,1.5,1.5,0,0,0-1.3-.649,1.474,1.474,0,0,0-1.281.646A3.516,3.516,0,0,0,121.242-4.144Zm11.719,1.808a.727.727,0,0,0-.41-.652,4.659,4.659,0,0,0-1.316-.426q-3.016-.633-3.016-2.562a2.323,2.323,0,0,1,.934-1.879,3.766,3.766,0,0,1,2.441-.754,4.053,4.053,0,0,1,2.574.758,2.388,2.388,0,0,1,.965,1.969h-2.258a1.092,1.092,0,0,0-.312-.8A1.322,1.322,0,0,0,131.586-7a1.351,1.351,0,0,0-.883.258.814.814,0,0,0-.312.656.7.7,0,0,0,.355.605,3.657,3.657,0,0,0,1.2.4,9.8,9.8,0,0,1,1.422.379,2.336,2.336,0,0,1,1.789,2.273,2.205,2.205,0,0,1-.992,1.871A4.28,4.28,0,0,1,131.6.156a4.47,4.47,0,0,1-1.887-.379,3.166,3.166,0,0,1-1.293-1.039,2.414,2.414,0,0,1-.469-1.426h2.141a1.179,1.179,0,0,0,.445.922,1.766,1.766,0,0,0,1.109.32,1.635,1.635,0,0,0,.98-.246A.766.766,0,0,0,132.961-2.336Z" transform="translate(-9817.777 -10225)" fill="#12263f"/>
    <path id="Trazado_710454" data-name="Trazado 710454" d="M10.266,0H7.922L3.359-7.484V0H1.016V-11.375H3.359l4.57,7.5v-7.5h2.336Zm4.281,0H12.281V-8.453h2.266Zm-2.4-10.641a1.112,1.112,0,0,1,.34-.836,1.277,1.277,0,0,1,.926-.328,1.28,1.28,0,0,1,.922.328,1.105,1.105,0,0,1,.344.836,1.108,1.108,0,0,1-.348.844,1.283,1.283,0,0,1-.918.328A1.283,1.283,0,0,1,12.5-9.8,1.108,1.108,0,0,1,12.148-10.641ZM19.57-2.758l1.57-5.7H23.5L20.648,0H18.492L15.641-8.453H18ZM28.281.156A4.15,4.15,0,0,1,25.254-.984a4.054,4.054,0,0,1-1.168-3.039v-.219a5.106,5.106,0,0,1,.492-2.277,3.612,3.612,0,0,1,1.395-1.547,3.914,3.914,0,0,1,2.059-.543,3.508,3.508,0,0,1,2.73,1.094,4.444,4.444,0,0,1,1,3.1v.922H26.375a2.1,2.1,0,0,0,.66,1.328,2,2,0,0,0,1.395.5,2.437,2.437,0,0,0,2.039-.945l1.109,1.242A3.389,3.389,0,0,1,30.2-.246,4.511,4.511,0,0,1,28.281.156Zm-.258-6.945a1.411,1.411,0,0,0-1.09.455,2.357,2.357,0,0,0-.535,1.3h3.141v-.181a1.681,1.681,0,0,0-.406-1.165A1.456,1.456,0,0,0,28.023-6.789ZM35.422,0H33.156V-12h2.266Zm5.492-4.289A5.094,5.094,0,0,1,41.8-7.437a2.877,2.877,0,0,1,2.426-1.172,2.589,2.589,0,0,1,2.039.922V-12h2.266V0H46.492l-.109-.9A2.657,2.657,0,0,1,44.211.156,2.869,2.869,0,0,1,41.816-1.02,5.258,5.258,0,0,1,40.914-4.289Zm2.258.161A3.355,3.355,0,0,0,43.586-2.3a1.348,1.348,0,0,0,1.2.636,1.51,1.51,0,0,0,1.477-.887V-5.9A1.489,1.489,0,0,0,44.8-6.789Q43.172-6.789,43.172-4.128Zm11,4.285A4.15,4.15,0,0,1,51.145-.984a4.054,4.054,0,0,1-1.168-3.039v-.219a5.106,5.106,0,0,1,.492-2.277,3.612,3.612,0,0,1,1.395-1.547,3.914,3.914,0,0,1,2.059-.543,3.508,3.508,0,0,1,2.73,1.094,4.444,4.444,0,0,1,1,3.1v.922H52.266a2.1,2.1,0,0,0,.66,1.328,2,2,0,0,0,1.395.5,2.437,2.437,0,0,0,2.039-.945l1.109,1.242A3.389,3.389,0,0,1,56.094-.246,4.511,4.511,0,0,1,54.172.156Zm-.258-6.945a1.411,1.411,0,0,0-1.09.455,2.357,2.357,0,0,0-.535,1.3H55.43v-.181a1.681,1.681,0,0,0-.406-1.165A1.456,1.456,0,0,0,53.914-6.789ZM61.313,0H59.047V-12h2.266ZM71.734-2.336a.727.727,0,0,0-.41-.652,4.659,4.659,0,0,0-1.316-.426q-3.016-.633-3.016-2.562a2.323,2.323,0,0,1,.934-1.879,3.766,3.766,0,0,1,2.441-.754,4.053,4.053,0,0,1,2.574.758,2.388,2.388,0,0,1,.965,1.969H71.648a1.092,1.092,0,0,0-.312-.8A1.322,1.322,0,0,0,70.359-7a1.351,1.351,0,0,0-.883.258.814.814,0,0,0-.312.656.7.7,0,0,0,.355.605,3.657,3.657,0,0,0,1.2.4,9.8,9.8,0,0,1,1.422.379A2.336,2.336,0,0,1,73.93-2.43a2.2,2.2,0,0,1-.992,1.871,4.28,4.28,0,0,1-2.562.715,4.47,4.47,0,0,1-1.887-.379A3.166,3.166,0,0,1,67.2-1.262a2.414,2.414,0,0,1-.469-1.426h2.141a1.179,1.179,0,0,0,.445.922,1.766,1.766,0,0,0,1.109.32,1.635,1.635,0,0,0,.98-.246A.766.766,0,0,0,71.734-2.336ZM80.445-.859A2.831,2.831,0,0,1,78.133.156a2.67,2.67,0,0,1-2.074-.781,3.335,3.335,0,0,1-.73-2.289V-8.453h2.258v5.467q0,1.322,1.2,1.322a1.63,1.63,0,0,0,1.578-.8V-8.453h2.266V0H80.508ZM88.227.156A4.15,4.15,0,0,1,85.2-.984a4.054,4.054,0,0,1-1.168-3.039v-.219a5.106,5.106,0,0,1,.492-2.277,3.612,3.612,0,0,1,1.395-1.547,3.914,3.914,0,0,1,2.059-.543,3.508,3.508,0,0,1,2.73,1.094,4.444,4.444,0,0,1,1,3.1v.922H86.32a2.1,2.1,0,0,0,.66,1.328,2,2,0,0,0,1.395.5,2.437,2.437,0,0,0,2.039-.945l1.109,1.242A3.389,3.389,0,0,1,90.148-.246,4.511,4.511,0,0,1,88.227.156Zm-.258-6.945a1.411,1.411,0,0,0-1.09.455,2.357,2.357,0,0,0-.535,1.3h3.141v-.181a1.681,1.681,0,0,0-.406-1.165A1.456,1.456,0,0,0,87.969-6.789ZM95.367,0H93.1V-12h2.266Zm1.508-4.3a5.013,5.013,0,0,1,.484-2.242A3.546,3.546,0,0,1,98.754-8.07a4.069,4.069,0,0,1,2.113-.539,3.849,3.849,0,0,1,2.793,1.047,4.2,4.2,0,0,1,1.207,2.844l.016.578A4.418,4.418,0,0,1,103.8-1.02,3.775,3.775,0,0,1,100.883.156a3.793,3.793,0,0,1-2.918-1.172A4.5,4.5,0,0,1,96.875-4.2Zm2.258.16A3.16,3.16,0,0,0,99.586-2.3a1.5,1.5,0,0,0,1.3.638,1.5,1.5,0,0,0,1.281-.63,3.457,3.457,0,0,0,.461-2.015,3.128,3.128,0,0,0-.461-1.831,1.5,1.5,0,0,0-1.3-.649,1.474,1.474,0,0,0-1.281.646A3.516,3.516,0,0,0,99.133-4.144Z" transform="translate(-9817.777 -10138.063)" fill="#12263f"/>
    <g id="Grupo_1001194" data-name="Grupo 1001194">
      <g id="Grupo_1001192-3" data-name="Grupo 1001192" transform="translate(-10193.488 -10245.877)">
        <g id="Grupo_1001191-4" data-name="Grupo 1001191" clip-path="url(#clip-path)">
          <path id="Trazado_707620-4" data-name="Trazado 707620" d="M28.324,32.141h-3.14a.778.778,0,0,1-.444-.818c.023-.559.006-1.119.006-1.675H4.022c0,.571-.017,1.124.006,1.675a.779.779,0,0,1-.444.819H.444A.8.8,0,0,1,0,31.322Q.011,16.068.006.813C.006.2.2,0,.806,0H27.962c.6,0,.8.2.8.813q0,15.255.006,30.51a.8.8,0,0,1-.444.819M4.037,11.3H7.854c1.214,0,2.427,0,3.641,0a.628.628,0,0,1,.684.734.639.639,0,0,1-.713.518H4.047v4.5H5.53c0-.12,0-.223,0-.325,0-.67,0-1.339,0-2.009a.606.606,0,0,1,.666-.66q1.978-.005,3.955,0a.608.608,0,0,1,.648.649c.007.533,0,1.067,0,1.6,0,.247,0,.495,0,.738H12.25c0-.787,0-1.55,0-2.313a.614.614,0,0,1,.683-.676q1.46,0,2.919,0a.611.611,0,0,1,.663.665c.005.68,0,1.36,0,2.04v.289h8.207v-4.5H20.377c-1.046,0-2.093,0-3.139,0a.624.624,0,0,1-.646-.766A.643.643,0,0,1,17.3,11.3h7.419V9.807H4.037Zm20.694,9.813H4.047V25.6h7.2c0-.13,0-.242,0-.355,0-.67,0-1.339,0-2.009a.6.6,0,0,1,.632-.63q2.009-.008,4.018,0a.6.6,0,0,1,.619.613c.006.115,0,.23,0,.345q0,1.014,0,2.03h1.447c0-.785,0-1.547,0-2.31a.615.615,0,0,1,.679-.68q1.962,0,3.924,0a.61.61,0,0,1,.667.66c.005.68,0,1.36,0,2.04v.3h1.494ZM5.53,8.525c0-.8,0-1.557,0-2.32a.613.613,0,0,1,.678-.68q1.946,0,3.891,0a.624.624,0,0,1,.7.691c0,.669,0,1.339,0,2.008v.3h1.409c.015-.034.03-.052.03-.07,0-.732,0-1.464.007-2.2,0-.5.225-.73.723-.731q1.381,0,2.762,0c.58,0,.783.207.783.8,0,.729,0,1.458,0,2.195h1.447c0-.792,0-1.564,0-2.336a.6.6,0,0,1,.608-.654q2.024-.011,4.048,0a.6.6,0,0,1,.613.649c.006.565,0,1.13,0,1.694,0,.216,0,.432,0,.643H24.73V4.031H4.041V8.525ZM2.747,1.279H1.276V30.873H2.747ZM26.022,30.861h1.469V1.267H26.022ZM24.732,1.275H4.048v1.47H24.732ZM4.037,19.816H24.721V18.345H4.037Zm20.694,7.073H4.048v1.47H24.731ZM6.808,8.512H9.531V6.792H6.808Zm12.424,0h2.726V6.794H19.232ZM9.526,15.341H6.8v1.721H9.526Zm5.723,8.535H12.524V25.6h2.725Zm3.987,1.717h2.724V23.869H19.236ZM15.243,6.8H13.529V8.532h1.714ZM13.526,17.05h1.72V15.33h-1.72Z" transform="translate(0 0)" fill="#12263f"/>
          <rect id="Rectángulo_345914-4" data-name="Rectángulo 345914" width="1.471" height="29.594" transform="translate(1.276 1.279)" fill="#81d4fa"/>
          <rect id="Rectángulo_345915-4" data-name="Rectángulo 345915" width="1.469" height="29.594" transform="translate(26.022 1.267)" fill="#81d4fa"/>
          <path id="Trazado_707621-4" data-name="Trazado 707621" d="M220,180.34a.627.627,0,1,1-.606-.654.62.62,0,0,1,.606.654" transform="translate(-204.987 -168.385)" fill="#12263f"/>
        </g>
      </g>
      <path id="Trazado_707622-3" data-name="Trazado 707622" d="M89.985,154.525l-3.036-3.461-3.036,3.461h.938c.458,0,.633.175.633.631q0,3.053,0,6.107a2.268,2.268,0,0,1-.014.32.5.5,0,0,1-.973.044,1.031,1.031,0,0,1-.023-.243q0-2.817,0-5.634v-.235h-.408c-.408,0-.817,0-1.225,0a.479.479,0,0,1-.479-.28.485.485,0,0,1,.09-.561q2.049-2.335,4.1-4.67a.511.511,0,0,1,.8,0q2.059,2.339,4.112,4.684a.471.471,0,0,1,.081.546.483.483,0,0,1-.477.284c-.478,0-.957.007-1.435-.005-.173,0-.212.049-.212.213.006,1.847,0,3.693,0,5.54,0,.082,0,.164,0,.246a.5.5,0,0,1-.5.5.51.51,0,0,1-.507-.491c-.006-.094,0-.189,0-.283q0-3.034,0-6.069c0-.466.174-.637.647-.637h.927" transform="translate(-10245.072 -10397.076)" fill="#12263f"/>
      <path id="Trazado_707623-3" data-name="Trazado 707623" d="M191.456,374.245q0,1.077,0,2.154a.5.5,0,1,1-1,0q0-2.173,0-4.346a.5.5,0,1,1,1,0q0,1.1,0,2.192" transform="translate(-10349.077 -10610.365)" fill="#12263f"/>
    </g>
    <g id="Grupo_1001195" data-name="Grupo 1001195" transform="translate(0 88)">
      <g id="Grupo_1001192-4" data-name="Grupo 1001192" transform="translate(-10193.488 -10245.877)">
        <g id="Grupo_1001191-5" data-name="Grupo 1001191" clip-path="url(#clip-path)">
          <path id="Trazado_707620-5" data-name="Trazado 707620" d="M28.324,32.141h-3.14a.778.778,0,0,1-.444-.818c.023-.559.006-1.119.006-1.675H4.022c0,.571-.017,1.124.006,1.675a.779.779,0,0,1-.444.819H.444A.8.8,0,0,1,0,31.322Q.011,16.068.006.813C.006.2.2,0,.806,0H27.962c.6,0,.8.2.8.813q0,15.255.006,30.51a.8.8,0,0,1-.444.819M4.037,11.3H7.854c1.214,0,2.427,0,3.641,0a.628.628,0,0,1,.684.734.639.639,0,0,1-.713.518H4.047v4.5H5.53c0-.12,0-.223,0-.325,0-.67,0-1.339,0-2.009a.606.606,0,0,1,.666-.66q1.978-.005,3.955,0a.608.608,0,0,1,.648.649c.007.533,0,1.067,0,1.6,0,.247,0,.495,0,.738H12.25c0-.787,0-1.55,0-2.313a.614.614,0,0,1,.683-.676q1.46,0,2.919,0a.611.611,0,0,1,.663.665c.005.68,0,1.36,0,2.04v.289h8.207v-4.5H20.377c-1.046,0-2.093,0-3.139,0a.624.624,0,0,1-.646-.766A.643.643,0,0,1,17.3,11.3h7.419V9.807H4.037Zm20.694,9.813H4.047V25.6h7.2c0-.13,0-.242,0-.355,0-.67,0-1.339,0-2.009a.6.6,0,0,1,.632-.63q2.009-.008,4.018,0a.6.6,0,0,1,.619.613c.006.115,0,.23,0,.345q0,1.014,0,2.03h1.447c0-.785,0-1.547,0-2.31a.615.615,0,0,1,.679-.68q1.962,0,3.924,0a.61.61,0,0,1,.667.66c.005.68,0,1.36,0,2.04v.3h1.494ZM5.53,8.525c0-.8,0-1.557,0-2.32a.613.613,0,0,1,.678-.68q1.946,0,3.891,0a.624.624,0,0,1,.7.691c0,.669,0,1.339,0,2.008v.3h1.409c.015-.034.03-.052.03-.07,0-.732,0-1.464.007-2.2,0-.5.225-.73.723-.731q1.381,0,2.762,0c.58,0,.783.207.783.8,0,.729,0,1.458,0,2.195h1.447c0-.792,0-1.564,0-2.336a.6.6,0,0,1,.608-.654q2.024-.011,4.048,0a.6.6,0,0,1,.613.649c.006.565,0,1.13,0,1.694,0,.216,0,.432,0,.643H24.73V4.031H4.041V8.525ZM2.747,1.279H1.276V30.873H2.747ZM26.022,30.861h1.469V1.267H26.022ZM24.732,1.275H4.048v1.47H24.732ZM4.037,19.816H24.721V18.345H4.037Zm20.694,7.073H4.048v1.47H24.731ZM6.808,8.512H9.531V6.792H6.808Zm12.424,0h2.726V6.794H19.232ZM9.526,15.341H6.8v1.721H9.526Zm5.723,8.535H12.524V25.6h2.725Zm3.987,1.717h2.724V23.869H19.236ZM15.243,6.8H13.529V8.532h1.714ZM13.526,17.05h1.72V15.33h-1.72Z" transform="translate(0 0)" fill="#12263f"/>
          <rect id="Rectángulo_345914-5" data-name="Rectángulo 345914" width="1.471" height="29.594" transform="translate(1.276 1.279)" fill="#81d4fa"/>
          <rect id="Rectángulo_345915-5" data-name="Rectángulo 345915" width="1.469" height="29.594" transform="translate(26.022 1.267)" fill="#81d4fa"/>
          <path id="Trazado_707621-5" data-name="Trazado 707621" d="M220,180.34a.627.627,0,1,1-.606-.654.62.62,0,0,1,.606.654" transform="translate(-204.987 -168.385)" fill="#12263f"/>
        </g>
      </g>
      <path id="Trazado_707622-4" data-name="Trazado 707622" d="M89.985,154.525l-3.036-3.461-3.036,3.461h.938c.458,0,.633.175.633.631q0,3.053,0,6.107a2.268,2.268,0,0,1-.014.32.5.5,0,0,1-.973.044,1.031,1.031,0,0,1-.023-.243q0-2.817,0-5.634v-.235h-.408c-.408,0-.817,0-1.225,0a.479.479,0,0,1-.479-.28.485.485,0,0,1,.09-.561q2.049-2.335,4.1-4.67a.511.511,0,0,1,.8,0q2.059,2.339,4.112,4.684a.471.471,0,0,1,.081.546.483.483,0,0,1-.477.284c-.478,0-.957.007-1.435-.005-.173,0-.212.049-.212.213.006,1.847,0,3.693,0,5.54,0,.082,0,.164,0,.246a.5.5,0,0,1-.5.5.51.51,0,0,1-.507-.491c-.006-.094,0-.189,0-.283q0-3.034,0-6.069c0-.466.174-.637.647-.637h.927" transform="translate(-10312.865 -10150.381) rotate(-90)" fill="#12263f"/>
      <path id="Trazado_707623-4" data-name="Trazado 707623" d="M191.456,374.245q0,1.077,0,2.154a.5.5,0,1,1-1,0q0-2.173,0-4.346a.5.5,0,1,1,1,0q0,1.1,0,2.192" transform="translate(-10526.154 -10046.377) rotate(-90)" fill="#12263f"/>
    </g>
  </g>
</svg>
