<svg xmlns="http://www.w3.org/2000/svg" width="362.206" height="343.421" viewBox="0 0 362.206 343.421">
  <g id="Judge-amico" transform="translate(-14.389 -23.47)">
    <g id="freepik--Plants--inject-100" transform="translate(14.389 205.628)">
      <g id="freepik--plants--inject-100-2" data-name="freepik--plants--inject-100" transform="translate(0 18.65)">
        <path id="Trazado_149998" data-name="Trazado 149998" d="M40.581,333.365l5.936-3.426s1.455-12.7.485-22.54c-1.361-13.827-10.284-30.5-20.936-26.591s4.88,17.988,8.337,29.719S40.581,333.365,40.581,333.365Z" transform="translate(-16.132 -280.23)" fill="#00bcd4"/>
        <path id="Trazado_149999" data-name="Trazado 149999" d="M40.581,333.365l5.936-3.426s1.455-12.7.485-22.54c-1.361-13.827-10.284-30.5-20.936-26.591s4.88,17.988,8.337,29.719S40.581,333.365,40.581,333.365Z" transform="translate(-16.132 -279.018)" opacity="0.15"/>
        <path id="Trazado_150000" data-name="Trazado 150000" d="M45.5,333.15h0a.36.36,0,0,1-.352-.375c1.04-30.72-14.25-46.143-14.406-46.323a.36.36,0,0,1,.508-.508c.156.156,15.642,15.829,14.617,46.862a.36.36,0,0,1-.368.344Z" transform="translate(-17.932 -281.454)" fill="#fff"/>
        <path id="Trazado_150001" data-name="Trazado 150001" d="M35.107,340.53,39.33,338.1a46.526,46.526,0,0,0-3.558-19.31c-3.715-9.221-12.951-16.87-17.6-15.258s-4.528,4.9-2.26,8.353S31.948,323.567,35.107,340.53Z" transform="translate(-14.389 -285.26)" fill="#00bcd4"/>
        <path id="Trazado_150002" data-name="Trazado 150002" d="M38.478,340.33h0a.36.36,0,0,1-.36-.36c.086-19.427-18.152-32.55-18.34-32.683a.368.368,0,0,1-.086-.5.352.352,0,0,1,.5-.086c.188.133,18.731,13.475,18.645,33.27a.368.368,0,0,1-.36.36Z" transform="translate(-15.531 -285.983)" fill="#fff"/>
      </g>
      <g id="freepik--plants--inject-100-3" data-name="freepik--plants--inject-100" transform="translate(333.935)">
        <path id="Trazado_150003" data-name="Trazado 150003" d="M446.063,301.39l-4.693-2.432s.07-16.017,3.817-25.66c5.2-13.366,14.586-19.552,20.006-15.861,3.167,2.151,3.074,6.491-4.958,13.241C455.5,274.658,448.776,288.337,446.063,301.39Z" transform="translate(-441.37 -256.384)" fill="#00bcd4"/>
        <g id="Grupo_75951" data-name="Grupo 75951" transform="translate(0.515)" opacity="0.15">
          <path id="Trazado_150004" data-name="Trazado 150004" d="M446.063,301.39l-4.693-2.432s.07-16.017,3.817-25.66c5.2-13.366,14.586-19.552,20.006-15.861,3.167,2.151,3.074,6.491-4.958,13.241C455.5,274.658,448.776,288.337,446.063,301.39Z" transform="translate(-441.37 -256.384)"/>
        </g>
        <path id="Trazado_150005" data-name="Trazado 150005" d="M446.518,291.516h.039a.328.328,0,0,0,.344-.3c1.048-13.538,9.463-26.786,16.666-31.283a.32.32,0,1,0-.344-.54c-7.336,4.591-15.9,18.051-16.964,31.792A.336.336,0,0,0,446.518,291.516Z" transform="translate(-442.436 -257.029)" fill="#fff"/>
        <path id="Trazado_150006" data-name="Trazado 150006" d="M456.144,311.031c.571.516,2.753-.516,3.347-.782a6.405,6.405,0,0,0,2.6-1.932,5.929,5.929,0,0,0,1.283-3.41,13.728,13.728,0,0,0,0-1.963c-.047-.649-.086-1.29-.133-1.932a4.81,4.81,0,0,1,.133-1.893c.43-1.2,1.721-1.838,2.886-2.346,1.29-.586,2.683-1.431,3-2.933a5.381,5.381,0,0,0-.634-3.418,30.907,30.907,0,0,1-1.564-2.909,3.722,3.722,0,0,1,.547-2.9c.524-.907,1.236-1.689,1.8-2.573s1.212-2.432.587-3.566c-1.408-2.534-4.223-2.448-6.616-1.486a31.588,31.588,0,0,1-4.786,1.932c-2.276.5-4.825,0-6.82,1.173a4.575,4.575,0,0,0-2.182,4c.047,1.486.829,3,.321,4.4s-1.869,1.963-2.933,2.855a8.6,8.6,0,0,0-2.628,8.11,19.325,19.325,0,0,0,2.346,6.257S455.612,310.554,456.144,311.031Z" transform="translate(-441.98 -260.738)" fill="#00bcd4"/>
        <path id="Trazado_150007" data-name="Trazado 150007" d="M452.331,306.554h0a.321.321,0,0,0,.36-.25c2.065-11.841,10.41-23.6,15.251-26.489a.3.3,0,0,0,.109-.415.305.305,0,0,0-.414-.1c-4.943,2.948-13.452,14.86-15.548,26.9A.3.3,0,0,0,452.331,306.554Z" transform="translate(-443.705 -261.368)" fill="#fff"/>
        <path id="Trazado_150008" data-name="Trazado 150008" d="M458.742,296.155a.157.157,0,0,0,.086,0,40.1,40.1,0,0,1,8.822.485.3.3,0,0,0,.344-.25.289.289,0,0,0-.242-.352,41.453,41.453,0,0,0-8.97-.485.313.313,0,0,0-.282.328A.305.305,0,0,0,458.742,296.155Z" transform="translate(-445.103 -264.906)" fill="#fff"/>
      </g>
    </g>
    <g id="freepik--Stage--inject-100" transform="translate(33.848 166.498)">
      <g id="freepik--Pallet--inject-100" transform="translate(0)">
        <path id="Trazado_150009" data-name="Trazado 150009" d="M39.27,311l150.4,86.835L370.936,293.185,220.526,206.35Z" transform="translate(-39.27 -206.35)" fill="#455a64"/>
        <path id="Trazado_150010" data-name="Trazado 150010" d="M39.27,340.16v8.9l150.4,86.843v-8.908Z" transform="translate(-39.27 -235.509)" fill="#263238"/>
        <path id="Trazado_150011" data-name="Trazado 150011" d="M412.844,317.38v8.908L231.58,430.939v-8.908Z" transform="translate(-81.177 -230.545)" fill="#37474f"/>
      </g>
    </g>
    <g id="freepik--Character--inject-100" transform="translate(105.745 77.349)">
      <g id="freepik--character--inject-100-2" data-name="freepik--character--inject-100">
        <g id="freepik--Chair--inject-100" transform="translate(6.217 29.942)">
          <path id="Trazado_150012" data-name="Trazado 150012" d="M177.6,325.305a3.556,3.556,0,0,0,.094.852,1.939,1.939,0,0,0,.782,1.2h0a2.229,2.229,0,0,0,2.346-.18,7.2,7.2,0,0,0,3.261-5.647,2.346,2.346,0,0,0-.923-2.065h0l-.156-.086h0a1.971,1.971,0,0,0-1.384-.055,3.467,3.467,0,0,0-.782.344A7.187,7.187,0,0,0,177.6,325.305Z" transform="translate(-147.529 -171.74)" fill="#37474f"/>
          <path id="Trazado_150013" data-name="Trazado 150013" d="M177.85,317.878a3,3,0,0,1,1.447-.438,1.736,1.736,0,0,1,.915.258l.086.047,2.1,1.212a1.971,1.971,0,0,0-1.384-.055,3.464,3.464,0,0,0-.782.344,7.187,7.187,0,0,0-3.253,5.631,3.559,3.559,0,0,0,.094.852,1.94,1.94,0,0,0,.782,1.2l-2.159-1.251h0l-.188-.109-.055-.039a2.4,2.4,0,0,1-.782-1.994A7.2,7.2,0,0,1,177.85,317.878Z" transform="translate(-146.888 -171.351)" fill="#263238"/>
          <path id="Trazado_150014" data-name="Trazado 150014" d="M222.65,301.034a4.083,4.083,0,0,0,.086.852,2,2,0,0,0,.782,1.2h0a2.26,2.26,0,0,0,2.346-.188,7.18,7.18,0,0,0,3.253-5.639,2.346,2.346,0,0,0-.915-2.065h0l-.156-.094h0a2.018,2.018,0,0,0-1.384-.055,3.91,3.91,0,0,0-.782.352,7.172,7.172,0,0,0-3.23,5.639Z" transform="translate(-157.346 -166.45)" fill="#37474f"/>
          <path id="Trazado_150015" data-name="Trazado 150015" d="M222.89,293.658a2.94,2.94,0,0,1,1.455-.438,1.666,1.666,0,0,1,.915.258l.086.039,2.1,1.212a2.018,2.018,0,0,0-1.384-.055,3.912,3.912,0,0,0-.782.352,7.172,7.172,0,0,0-3.253,5.631,4.082,4.082,0,0,0,.086.852,2,2,0,0,0,.782,1.2l-2.159-1.251h0l-.188-.11h-.055a2.409,2.409,0,0,1-.782-2A7.187,7.187,0,0,1,222.89,293.658Z" transform="translate(-156.703 -166.073)" fill="#263238"/>
          <path id="Trazado_150016" data-name="Trazado 150016" d="M212.8,334.715a4.06,4.06,0,0,1-.094.852,1.963,1.963,0,0,1-.782,1.2h0a2.245,2.245,0,0,1-2.346-.18,7.211,7.211,0,0,1-3.261-5.647,2.346,2.346,0,0,1,.923-2.065h0l.156-.094h0a2.088,2.088,0,0,1,1.392-.055,4.3,4.3,0,0,1,.782.352A7.172,7.172,0,0,1,212.8,334.715Z" transform="translate(-153.785 -173.79)" fill="#37474f"/>
          <path id="Trazado_150017" data-name="Trazado 150017" d="M212.2,327.338a3,3,0,0,0-1.447-.438,1.737,1.737,0,0,0-.915.258l-.086.047-2.1,1.2a2.088,2.088,0,0,1,1.392-.055,4.3,4.3,0,0,1,.782.352,7.171,7.171,0,0,1,3.253,5.631,4.057,4.057,0,0,1-.094.852,1.963,1.963,0,0,1-.782,1.2l2.151-1.251h.039l.188-.109h.055a2.409,2.409,0,0,0,.782-2A7.2,7.2,0,0,0,212.2,327.338Z" transform="translate(-154.077 -173.413)" fill="#263238"/>
          <path id="Trazado_150018" data-name="Trazado 150018" d="M242.043,320.392a4.084,4.084,0,0,1-.086.852,1.963,1.963,0,0,1-.782,1.189h0a2.253,2.253,0,0,1-2.346-.188,7.187,7.187,0,0,1-3.261-5.639,2.346,2.346,0,0,1,.923-2.065h0l.149-.094h0a2.018,2.018,0,0,1,1.384-.055,3.512,3.512,0,0,1,.782.352A7.172,7.172,0,0,1,242.043,320.392Z" transform="translate(-160.159 -170.666)" fill="#37474f"/>
          <path id="Trazado_150019" data-name="Trazado 150019" d="M241.444,313.016A2.934,2.934,0,0,0,240,312.57a1.736,1.736,0,0,0-.915.258l-.086.047-2.1,1.212a2.017,2.017,0,0,1,1.384-.055,3.51,3.51,0,0,1,.782.352,7.172,7.172,0,0,1,3.253,5.631,4.086,4.086,0,0,1-.086.852,1.963,1.963,0,0,1-.782,1.189l2.159-1.244h0l.188-.117h.055a2.409,2.409,0,0,0,.782-2A7.18,7.18,0,0,0,241.444,313.016Z" transform="translate(-160.451 -170.29)" fill="#263238"/>
          <path id="Trazado_150020" data-name="Trazado 150020" d="M185.523,302.824a4.058,4.058,0,0,1-.094.852,2,2,0,0,1-.782,1.2h0a2.26,2.26,0,0,1-2.346-.18,7.2,7.2,0,0,1-3.253-5.647,2.346,2.346,0,0,1,.915-2.065h0l.156-.094h0a2.018,2.018,0,0,1,1.384-.055,3.911,3.911,0,0,1,.782.352A7.18,7.18,0,0,1,185.523,302.824Z" transform="translate(-147.842 -166.84)" fill="#37474f"/>
          <path id="Trazado_150021" data-name="Trazado 150021" d="M184.922,295.448a2.94,2.94,0,0,0-1.447-.438,1.673,1.673,0,0,0-.923.258l-.078.039-2.1,1.212a2.018,2.018,0,0,1,1.384-.055,3.91,3.91,0,0,1,.782.352,7.179,7.179,0,0,1,3.261,5.631,4.058,4.058,0,0,1-.094.852,2,2,0,0,1-.782,1.2l2.159-1.251h.039l.18-.109a.141.141,0,0,0,.055-.039,2.385,2.385,0,0,0,.782-2A7.187,7.187,0,0,0,184.922,295.448Z" transform="translate(-148.132 -166.463)" fill="#263238"/>
          <path id="Trazado_150022" data-name="Trazado 150022" d="M212.19,294.792l11.622-3.332v2.479l-11.622,6.71Z" transform="translate(-155.067 -165.69)" fill="#f0f0f0"/>
          <path id="Trazado_150023" data-name="Trazado 150023" d="M211.87,294.637l-1.15-.7,11.661-3.183,1.111.555Z" transform="translate(-154.746 -165.535)" fill="#fafafa"/>
          <path id="Trazado_150024" data-name="Trazado 150024" d="M201.159,302.769,184.68,296.6V294.08l16.479,1.478Z" transform="translate(-149.072 -166.261)" fill="#f0f0f0"/>
          <path id="Trazado_150025" data-name="Trazado 150025" d="M184.68,293.991l1.2-.321,16.26,1.056-.985.743Z" transform="translate(-149.072 -166.171)" fill="#fafafa"/>
          <path id="Trazado_150026" data-name="Trazado 150026" d="M205.19,299.639c0,1.869,5.733,1.869,5.733,0v-16.3H205.19Z" transform="translate(-153.541 -163.92)" fill="#fafafa"/>
          <path id="Trazado_150027" data-name="Trazado 150027" d="M210.146,298.76l3.128,20.467h-2.1L208.23,298.76a3.645,3.645,0,0,0,1.916,0Z" transform="translate(-154.204 -167.281)" fill="#fafafa"/>
          <path id="Trazado_150028" data-name="Trazado 150028" d="M208.19,298.75v5.623l2.948,18.316v-3.465Z" transform="translate(-154.195 -167.278)" fill="#f0f0f0"/>
          <rect id="Rect치ngulo_33325" data-name="Rect치ngulo 33325" width="2.159" height="3.465" transform="translate(56.944 151.947)" fill="#e0e0e0"/>
          <path id="Trazado_150029" data-name="Trazado 150029" d="M201.015,304.215,179.75,315.36v-3.433l21.265-13.147Z" transform="translate(-147.997 -167.285)" fill="#f0f0f0"/>
          <path id="Trazado_150030" data-name="Trazado 150030" d="M200.639,298.608a2.448,2.448,0,0,1-1.361-.618L178.06,310.855l1.322.9Z" transform="translate(-147.629 -167.113)" fill="#fafafa"/>
          <path id="Trazado_150031" data-name="Trazado 150031" d="M179.382,318.773v-3.433l-1.322-.9v3.332Z" transform="translate(-147.629 -170.698)" fill="#e0e0e0"/>
          <path id="Trazado_150032" data-name="Trazado 150032" d="M234.872,311.353l-22.712-7.774v-5.1l22.712,9.448Z" transform="translate(-155.06 -167.22)" fill="#f0f0f0"/>
          <path id="Trazado_150033" data-name="Trazado 150033" d="M212.16,298.234c.188-.047.266-.383.282-.884l23.1,10.05-.673.281Z" transform="translate(-155.06 -166.973)" fill="#fafafa"/>
          <path id="Trazado_150034" data-name="Trazado 150034" d="M241.873,310.2v3.324l-.673.383v-3.426Z" transform="translate(-161.388 -169.774)" fill="#e0e0e0"/>
          <rect id="Rect치ngulo_33326" data-name="Rect치ngulo 33326" width="2.159" height="3.465" transform="translate(56.944 151.947)" fill="#f0f0f0" opacity="0.1"/>
          <path id="Trazado_150035" data-name="Trazado 150035" d="M179.382,318.773v-3.433l-1.322-.9v3.332Z" transform="translate(-147.629 -170.698)" fill="#f0f0f0" opacity="0.1"/>
          <path id="Trazado_150036" data-name="Trazado 150036" d="M241.873,310.2v3.324l-.673.383v-3.426Z" transform="translate(-161.388 -169.774)" opacity="0.1"/>
          <path id="Trazado_150037" data-name="Trazado 150037" d="M212.356,247H202.65v33.63c0,2.792,9.706,2.792,9.706,0Z" transform="translate(-152.988 -156.001)" fill="#f0f0f0"/>
          <g id="freepik--chair--inject-100-2" data-name="freepik--chair--inject-100">
            <path id="Trazado_150038" data-name="Trazado 150038" d="M159.245,217.548l37.2-19.435s2.612-12.725-6.2-26.591c0,0,2.628-24.722-1.775-32.941-3.222-6.257-7.039-5.412-7.039-5.412L139.2,152.244Z" transform="translate(-139.161 -131.187)" fill="#727997"/>
            <path id="Trazado_150039" data-name="Trazado 150039" d="M159.245,217.548l37.2-19.435s2.612-12.725-6.2-26.591c0,0,2.628-24.722-1.775-32.941-3.222-6.257-7.039-5.412-7.039-5.412L139.2,152.244Z" transform="translate(-139.161 -131.187)" opacity="0.3"/>
            <path id="Trazado_150040" data-name="Trazado 150040" d="M181.383,133.159,139.15,152.234l1.384,4.513,46.206-20.866C184,132.58,181.383,133.159,181.383,133.159Z" transform="translate(-139.15 -131.185)" fill="#727997"/>
            <path id="Trazado_150041" data-name="Trazado 150041" d="M181.383,133.159,139.15,152.234l1.384,4.513,46.206-20.866C184,132.58,181.383,133.159,181.383,133.159Z" transform="translate(-139.15 -131.185)" opacity="0.15"/>
            <path id="Trazado_150042" data-name="Trazado 150042" d="M244.564,231.022v2.049a7.414,7.414,0,0,1-3.621,5.991l-41.45,21.773a8.235,8.235,0,0,1-7.156-.149l-23.924-13.812a7.821,7.821,0,0,1-3.543-6.132v-2.049a7.391,7.391,0,0,1,3.621-5.983l39.261-20.506a8.947,8.947,0,0,1,7.281-.063l25.91,12.959A7.242,7.242,0,0,1,244.564,231.022Z" transform="translate(-144.755 -148.243)" fill="#727997"/>
            <path id="Trazado_150043" data-name="Trazado 150043" d="M244.564,231.022v2.049a7.414,7.414,0,0,1-3.621,5.991l-41.45,21.773a8.235,8.235,0,0,1-7.156-.149l-23.924-13.812a7.821,7.821,0,0,1-3.543-6.132v-2.049a7.391,7.391,0,0,1,3.621-5.983l39.261-20.506a8.947,8.947,0,0,1,7.281-.063l25.91,12.959A7.242,7.242,0,0,1,244.564,231.022Z" transform="translate(-144.755 -148.243)" opacity="0.1"/>
            <path id="Trazado_150044" data-name="Trazado 150044" d="M244.564,231.022v2.049a7.414,7.414,0,0,1-3.621,5.991l-41.45,21.773a8.235,8.235,0,0,1-7.156-.149l-23.924-13.812a7.821,7.821,0,0,1-3.543-6.132v-2.049a7.391,7.391,0,0,1,3.621-5.983l39.261-20.506a8.947,8.947,0,0,1,7.281-.063l25.91,12.959A7.242,7.242,0,0,1,244.564,231.022Z" transform="translate(-144.755 -148.243)" opacity="0.25"/>
            <path id="Trazado_150045" data-name="Trazado 150045" d="M200.044,250.606l41.45-21.773c2-1.048,1.986-2.722,0-3.731l-25.887-12.959a8.947,8.947,0,0,0-7.281.063l-39.261,20.506c-2,1.04-2.033,2.808-.078,3.91l23.94,13.835a8.235,8.235,0,0,0,7.117.149Z" transform="translate(-145.337 -148.243)" fill="#727997"/>
            <path id="Trazado_150046" data-name="Trazado 150046" d="M200.044,250.606l41.45-21.773c2-1.048,1.986-2.722,0-3.731l-25.887-12.959a8.947,8.947,0,0,0-7.281.063l-39.261,20.506c-2,1.04-2.033,2.808-.078,3.91l23.94,13.835a8.235,8.235,0,0,0,7.117.149Z" transform="translate(-145.337 -148.243)" opacity="0.15"/>
            <path id="Trazado_150047" data-name="Trazado 150047" d="M196.794,267.573a8.032,8.032,0,0,1-4.5-.86l-23.916-13.8a7.821,7.821,0,0,1-3.543-6.139v-2.057a7.484,7.484,0,0,1,3.128-5.662c-1.47,1.056-1.33,2.6.438,3.621l23.916,13.819a7.821,7.821,0,0,0,3.66.884Z" transform="translate(-144.746 -154.269)" opacity="0.2"/>
            <path id="Trazado_150048" data-name="Trazado 150048" d="M193.15,132.62s6.108-4.145,12.56-.422,4.317,16.244,3.629,24.315-.915,22.133,4.732,27.248,24.159-1.681,32.23-1.681l-7.125,26.27c-7.821-4.27-20.4-8.658-30.971-10.754,0,0,.344-16.369-7.156-25.715,0,0,2.769-6.546.954-19.662C200.33,140.058,198.061,135.459,193.15,132.62Z" transform="translate(-150.917 -130.646)" fill="#727997"/>
            <path id="Trazado_150049" data-name="Trazado 150049" d="M193.15,132.62s6.108-4.145,12.56-.422,4.317,16.244,3.629,24.315-.915,22.133,4.732,27.248,24.159-1.681,32.23-1.681l-7.125,26.27c-7.821-4.27-20.4-8.658-30.971-10.754,0,0,.344-16.369-7.156-25.715,0,0,2.769-6.546.954-19.662C200.33,140.058,198.061,135.459,193.15,132.62Z" transform="translate(-150.917 -130.646)" opacity="0.45"/>
            <path id="Trazado_150050" data-name="Trazado 150050" d="M251.786,222.686c-.36-2.346-1.854-15.853.673-21.734,2.19-5.115,7.938-5.412,9.745-3.222s.2,4.849-2.683,8.6c-2.424,3.167-3.3,6.132-3.3,13.8Z" transform="translate(-163.528 -144.983)" fill="#727997"/>
            <path id="Trazado_150051" data-name="Trazado 150051" d="M251.786,222.686c-.36-2.346-1.854-15.853.673-21.734,2.19-5.115,7.938-5.412,9.745-3.222s.2,4.849-2.683,8.6c-2.424,3.167-3.3,6.132-3.3,13.8Z" transform="translate(-163.528 -144.983)" opacity="0.1"/>
            <path id="Trazado_150052" data-name="Trazado 150052" d="M251.786,222.686c-.36-2.346-1.854-15.853.673-21.734,2.19-5.115,7.938-5.412,9.745-3.222s.2,4.849-2.683,8.6c-2.424,3.167-3.3,6.132-3.3,13.8Z" transform="translate(-163.528 -144.983)" opacity="0.25"/>
          </g>
        </g>
        <g id="freepik--character--inject-100-3" data-name="freepik--character--inject-100" transform="translate(34.28)">
          <path id="Trazado_150053" data-name="Trazado 150053" d="M256.252,166.833c1.885-1.893,5.107,1.025,7.3,4.348,1.861,2.823,2.972,5.858,1.032,7.461s-5.4-1.744-7.039-3.91S254.883,168.171,256.252,166.833Z" transform="translate(-192.592 -108.459)" fill="#263238"/>
          <path id="Trazado_150054" data-name="Trazado 150054" d="M250.55,173.8c-1.955,2.471-5.654,6.585-6.437,7.336-2.729,2.62-4.99,4.325-10.167.485s-21.116-18.77-21.116-18.77l-4.88-16.181c4.122.328,7.86-.117,11.536,3.613,3.05,3.128,18.864,19.818,18.864,19.818l3.081-2.847" transform="translate(-182.205 -104.196)" fill="#ffa8a7"/>
          <path id="Trazado_150055" data-name="Trazado 150055" d="M274.66,148.027c2.268-.477,5.584-1.486,7.578-.469s2.182,1.736,2.182,1.736l-2.62,3Z" transform="translate(-196.743 -104.294)" fill="#f28f8f"/>
          <path id="Trazado_150056" data-name="Trazado 150056" d="M264.745,152.411c-1.4,1.7-10.84,12.42-14.375,15.736l8.1,8.142c3.058-4.122,7.164-11.09,9.87-12.975,3.684.563,4.786-1.306,6.921-1.306l-2.909-12.427S266.731,150.026,264.745,152.411Z" transform="translate(-191.449 -104.83)" fill="#ffa8a7"/>
          <path id="Trazado_150057" data-name="Trazado 150057" d="M271.851,162.183h0a1.462,1.462,0,0,1-.618-1.979l15.751-30.095,2.6,1.361-15.759,30.095a1.462,1.462,0,0,1-1.979.618Z" transform="translate(-195.959 -100.587)"/>
          <path id="Trazado_150058" data-name="Trazado 150058" d="M288.049,113.5c-1.079-.618-2.557-.524-4.2.422a13.194,13.194,0,0,0-5.959,10.324c0,1.893.673,3.23,1.752,3.848l2.135,1.236c1.079.626,2.565.54,4.215-.415a13.17,13.17,0,0,0,5.96-10.316c0-1.9-.673-3.238-1.752-3.856Z" transform="translate(-197.446 -96.882)" fill="#37474f"/>
          <path id="Trazado_150059" data-name="Trazado 150059" d="M286.589,115.5c3.285-1.9,5.959-.36,5.959,3.441a13.193,13.193,0,0,1-5.959,10.316c-3.293,1.9-5.96.36-5.96-3.441a13.155,13.155,0,0,1,5.959-10.316Z" transform="translate(-198.044 -97.227)" fill="#263238"/>
          <path id="Trazado_150060" data-name="Trazado 150060" d="M290.648,116.264a3.686,3.686,0,0,0-3.707.375,11.637,11.637,0,0,0-5.271,9.119,3.657,3.657,0,0,0,1.564,3.4L297,137.1a3.689,3.689,0,0,0,3.723-.36,11.645,11.645,0,0,0,5.263-9.127,3.641,3.641,0,0,0-1.564-3.4Z" transform="translate(-198.27 -97.494)" fill="#727997"/>
          <path id="Trazado_150061" data-name="Trazado 150061" d="M290.648,116.264a3.686,3.686,0,0,0-3.707.375,11.637,11.637,0,0,0-5.271,9.119,3.657,3.657,0,0,0,1.564,3.4L297,137.1a3.689,3.689,0,0,0,3.723-.36,11.645,11.645,0,0,0,5.263-9.127,3.641,3.641,0,0,0-1.564-3.4Z" transform="translate(-198.27 -97.494)" opacity="0.3"/>
          <path id="Trazado_150062" data-name="Trazado 150062" d="M303.318,136.269l-20.96-12.1a9.548,9.548,0,0,0-.688,3.386,3.657,3.657,0,0,0,1.564,3.4L297,138.9a3.689,3.689,0,0,0,3.723-.36,9.635,9.635,0,0,0,2.6-2.268Z" transform="translate(-198.27 -99.293)" opacity="0.15"/>
          <path id="Trazado_150063" data-name="Trazado 150063" d="M305.831,123.77c-1.071-.618-2.557-.532-4.192.415a13.17,13.17,0,0,0-5.959,10.324c0,1.9.665,3.23,1.744,3.856l2.143,1.236c1.071.618,2.557.532,4.208-.415a13.17,13.17,0,0,0,5.96-10.323c0-1.9-.673-3.23-1.752-3.848Z" transform="translate(-201.323 -99.12)" fill="#37474f"/>
          <path id="Trazado_150064" data-name="Trazado 150064" d="M304.34,125.773c3.293-1.9,5.959-.36,5.959,3.441a13.17,13.17,0,0,1-5.959,10.324c-3.293,1.9-5.96.36-5.96-3.441A13.17,13.17,0,0,1,304.34,125.773Z" transform="translate(-201.911 -99.465)" fill="#455a64"/>
          <path id="Trazado_150065" data-name="Trazado 150065" d="M283,152.779a2.839,2.839,0,0,0,.727-1.071l1.564-3.058a3.043,3.043,0,0,1,1.032,1.22,6.67,6.67,0,0,1,.415,2.44c.086,2.534-.125,7-1.728,8.353" transform="translate(-198.56 -104.627)" fill="#f28f8f"/>
          <path id="Trazado_150066" data-name="Trazado 150066" d="M263.76,156.6c2.346-2.98,4.137-5.858,5.983-7.312s4.161-1.22,6.89-.422a12.623,12.623,0,0,0,4.888.634c.235.156-.156,1.83-1.126,2.3a9.33,9.33,0,0,1-4,.524c-3.128,0-.594,3.817-4.786,6.921C270.306,161.486,263.76,156.6,263.76,156.6Z" transform="translate(-194.367 -104.535)" fill="#ffa8a7"/>
          <path id="Trazado_150067" data-name="Trazado 150067" d="M283.283,161.8c-1.6,1.353-4.88,1.564-6.077.837a3.018,3.018,0,0,1-1.158-1.228c-.258-.5-.2-1.079-.469-1.564-.125-.258-.3-.5-.414-.782a1.119,1.119,0,0,1-.063-.852c.117-.3.422-.508.493-.829a.954.954,0,0,0-.086-.547c-.125-.289-.329-.54-.446-.829a.868.868,0,0,1,.055-.884,1.126,1.126,0,0,1,.727-.3,23.558,23.558,0,0,1,2.964-.133,4.3,4.3,0,0,0,2.424-.782" transform="translate(-196.81 -105.773)" fill="#f28f8f"/>
          <path id="Trazado_150068" data-name="Trazado 150068" d="M274.908,158.92c-1.322,2.4-4.333,2.252-6.038,1.814a4.939,4.939,0,0,0,3.856.837l-1.971,4.911Z" transform="translate(-195.481 -106.865)" fill="#f28f8f"/>
          <path id="Trazado_150069" data-name="Trazado 150069" d="M207.765,146.392c4.3.25,6.609-1.721,9.846,0,2.628,1.392,3.285,3.762,5.85,6.921,1.392,1.721,1.971,2.4,4.6,5.365,5.545,6.257,9.784,10.433,9.784,10.433l7.61-6.8c-1.118,4.387,3.285,10.769,8.329,11.809,0,0-1.791,1.564-7.148,5.647-4.114,3.128-6.437,4.747-7.391,4.9s-3.128-.7-9.854-6.1-23.33-20.788-23.33-20.788Z" transform="translate(-181.794 -103.98)" fill="#455a64"/>
          <path id="Trazado_150070" data-name="Trazado 150070" d="M245.85,175.313c-2.448,2.346-2.862,6.327-2.862,6.327s-1.032-2.675,1.721-7.5Z" transform="translate(-189.799 -110.182)" fill="#37474f"/>
          <path id="Trazado_150071" data-name="Trazado 150071" d="M200.8,95.5l-.094.055c-4.262,2.753-8.869,4.2-12.693,7.821s-6.053,8.509-5.475,13.116c1.032,8.149,5.514,11.035,8.2,14.078.125.141,4.348,3.074,4.528,3.081l2.776.125c.673,0,1.564.383,2.166.18.845-.266,1.478-1.392,1.979-2.057a26.762,26.762,0,0,1,6.765-6.1,8.363,8.363,0,0,0,2.4-3.527,12.944,12.944,0,0,0,1.04-4.192,1.681,1.681,0,0,1,1.885-2.065,8.65,8.65,0,0,0,4.153-1.439A5.9,5.9,0,0,0,220.872,111a4.614,4.614,0,0,0-1.768-4.614,5.037,5.037,0,0,0-5.224-7.883,4.4,4.4,0,0,0-1.908-5.256,7.234,7.234,0,0,0-5.9-.461A21.6,21.6,0,0,0,200.8,95.5Z" transform="translate(-176.647 -92.361)" fill="#263238"/>
          <path id="Trazado_150072" data-name="Trazado 150072" d="M189.9,144.774a7.167,7.167,0,0,1-9.252-10.949c3.019-2.55,5.435-.4,7.993,2.62S192.923,142.217,189.9,144.774Z" transform="translate(-175.703 -101.15)" fill="#263238"/>
          <path id="Trazado_150073" data-name="Trazado 150073" d="M228.144,272.978c-3.253-.555-6.139,1.963-6.437,2.784-.4,1.118-.36,3.41.876,6.257a19.67,19.67,0,0,1,1.126,8.947c-.329,2.573-1.783,8.963.712,12.294s8.173,6.351,10.386,1.987c.72-1.423-.454-6.491-.931-10.167-.946-7.344-1.619-14.625-1.619-14.625Z" transform="translate(-185.154 -131.703)" fill="#263238"/>
          <path id="Trazado_150074" data-name="Trazado 150074" d="M228.43,280.35a71.721,71.721,0,0,1,.454,10.746c-.2,3.91.532,6.515,1.822,8.314,1.431,1.979,5.123,3.191,4.818-.86-.2-2.823-1.752-16.525-1.752-16.525Z" transform="translate(-186.668 -133.327)" fill="#ffa8a7"/>
          <path id="Trazado_150075" data-name="Trazado 150075" d="M223.211,274.473c-.235,2.409.837,8.861,3.91,14.343s7.492,11.731,8.251,15.509c.149-1.721-.461-4.9-.9-7.735a1.559,1.559,0,0,1,0-.188l-.07-.493a.435.435,0,0,0-.039-.219,5.338,5.338,0,0,0-.078-.618v-.047c-.3-2.291-.563-4.583-.782-6.648-.18-1.65-.344-3.128-.469-4.4-.063-.626-.125-1.181-.172-1.666a5.361,5.361,0,0,0-.063-.657c-.078-.782-.117-1.251-.117-1.251l-4.169-7.422a6.269,6.269,0,0,0-.633-.07A7.18,7.18,0,0,0,223.211,274.473Z" transform="translate(-185.524 -131.705)" opacity="0.15"/>
          <path id="Trazado_150076" data-name="Trazado 150076" d="M239.512,219.913c-10.316-6.554-23.087-10.363-23.087-10.363l-11.215,8.212,10.785,10.277,13.827,10.018s2.706-.117.915,4.043c-.563,1.322-1.447,3.973-2.346,6.984l5.991,18.293s3.738-6.178,9.244-17.448c5.107-10.472,6.476-17.472,6.077-19.834C249.148,227,247.865,225.215,239.512,219.913Z" transform="translate(-181.608 -117.898)" fill="#727997"/>
          <path id="Trazado_150077" data-name="Trazado 150077" d="M239.512,219.913c-10.316-6.554-23.087-10.363-23.087-10.363l-11.215,8.212,10.785,10.277,13.827,10.018s2.706-.117.915,4.043c-.563,1.322-1.447,3.973-2.346,6.984l5.991,18.293s3.738-6.178,9.244-17.448c5.107-10.472,6.476-17.472,6.077-19.834C249.148,227,247.865,225.215,239.512,219.913Z" transform="translate(-181.608 -117.898)" opacity="0.2"/>
          <path id="Trazado_150078" data-name="Trazado 150078" d="M216.357,224.621l-1.33-1c3.762-1.807,5.052-6.21,5.052-6.21a11.184,11.184,0,0,1-2.816,6.7c.954.6,14.656,9.236,17.167,12.287s4.208,4.106,4.3,11.16c.078,5.959.321,16.377.321,16.377l-17.9-24.033-7.711-13.428Z" transform="translate(-183.402 -119.611)" opacity="0.2"/>
          <path id="Trazado_150079" data-name="Trazado 150079" d="M237.138,313c-.782-.078-.884,1.275-1.423,2.988a8.767,8.767,0,0,0-.422,5.154c.579,2.2,4,2.753,5.608,5.709s3.848,8.22,9.886,10.167,10.949.383,12.271-1.337.485-3.566-3.23-6.257l-5.06-3.644Z" transform="translate(-188.119 -140.441)" fill="#263238"/>
          <path id="Trazado_150080" data-name="Trazado 150080" d="M245.927,300.22a93.842,93.842,0,0,0,2.737,10.848,43.38,43.38,0,0,0,6.757,11.5c.618.782,2.041,2.3,2.542,2.941a1.189,1.189,0,0,1-.227,1.83c-1.416,1.212-7.14,1.2-10.206-1.369s-5.694-7.821-7.492-9.87q-1.012-1.125-1.908-2.346a3.965,3.965,0,0,1-.837-2.6,11.613,11.613,0,0,0-.039-3.691,42.82,42.82,0,0,0-1.244-4.826Z" transform="translate(-188.32 -137.657)" fill="#ffa8a7"/>
          <path id="Trazado_150081" data-name="Trazado 150081" d="M180.545,201.24c-4.606,7.18-5.318,16.314-3.754,20.929,2.119,6.3,4.614,9.189,13.014,14.727,6.953,4.591,16.721,7.539,18.77,8.6s2.722,3.457,3.582,7.711A71.355,71.355,0,0,0,218.03,272.4c4.317,9.127,5.475,11.825,5.475,11.825s5.709,2.479,10.339-1.564c0,0-4.857-37.986-6.382-43.445S204.117,218.1,204.117,218.1s3.253-8.712,5.185-14.8Z" transform="translate(-175.252 -116.087)" fill="#727997"/>
          <path id="Trazado_150082" data-name="Trazado 150082" d="M176.3,197.277a40.671,40.671,0,0,1,2.213-5.647,20.17,20.17,0,0,0,1.76-3.973c1.283-5.357-1.767-11.575-2.862-16.979a39.245,39.245,0,0,1-.7-9.987c.149-2.557,0-6.882,2.409-8.345a15.084,15.084,0,0,1,2.722-1.165l7.359-2.737s7.32-1.275,11.215-1.791c2.143-.289,3.457.414,5.944,2.894s7.258,8.173,9.01,12.92c1.025,2.776.868,7.821-2.573,10.816-.493,3.269-1.3,12.114-.915,14.86.36,2.6.477,6.8,4.693,9.1,7.039,3.034,24.948,7.821,27.584,13.3s-4.693,25.066-4.693,25.066-2.855,5.889-13.46,9.627-14.648.078-14.648.078-1.228-10.112-3.4-10.949c-4.036-1.564-17.558-8.822-21.844-11.192C171.19,214.952,175.32,200.273,176.3,197.277Z" transform="translate(-175.032 -104.179)" fill="#37474f"/>
          <path id="Trazado_150083" data-name="Trazado 150083" d="M207.9,181.434a10.076,10.076,0,0,1-8.752,3.175,8.061,8.061,0,0,1-7.352-5.529s-.109,6.57,7.133,7.226a8.728,8.728,0,0,0,8.97-4.872Z" transform="translate(-178.686 -111.258)" fill="#263238"/>
          <path id="Trazado_150084" data-name="Trazado 150084" d="M211.321,107.7c1.963,1.157,4.911,5.787,4.693,16.119-.188,8.759-3.019,10.949-4.442,11.559s-5.146.078-7.821-.36l-.438,6.257,2.151,8.509-14.257-8.689.845-13.162s-1.361.829-3.2-.587c-2.479-1.9-2.862-5.318-.876-7.133,1.275-1.173,4.739-1.509,5.811,1.5,0,0,4.567.274,9.964-3.308C209.726,114.449,210.555,110.476,211.321,107.7Z" transform="translate(-177.576 -95.704)" fill="#ffa8a7"/>
          <path id="Trazado_150085" data-name="Trazado 150085" d="M196.362,128.824h0l-.782-4.528,2.894-.516.289,1.642a2.941,2.941,0,0,1-2.4,3.4Z" transform="translate(-179.51 -99.208)" fill="#263238"/>
          <path id="Trazado_150086" data-name="Trazado 150086" d="M209.96,124.286a1.165,1.165,0,0,1-1.064,1.275,1.2,1.2,0,1,1,1.064-1.275Z" transform="translate(-182.119 -99.073)" fill="#263238"/>
          <path id="Trazado_150087" data-name="Trazado 150087" d="M210.708,133.83,214.666,135a2.026,2.026,0,0,1-2.526,1.463,2.166,2.166,0,0,1-1.431-2.636Z" transform="translate(-182.79 -101.398)" fill="#b16668"/>
          <path id="Trazado_150088" data-name="Trazado 150088" d="M212.826,136.759a1.908,1.908,0,0,0-1.908-1.9,1.458,1.458,0,0,0-.258,0,2.127,2.127,0,0,0,1.486,1.8,1.853,1.853,0,0,0,.68.1Z" transform="translate(-182.796 -101.621)" fill="#f28f8f"/>
          <path id="Trazado_150089" data-name="Trazado 150089" d="M221.6,119.459l-2.62-.7a1.3,1.3,0,0,1,1.611-.985A1.416,1.416,0,0,1,221.6,119.459Z" transform="translate(-184.609 -97.89)" fill="#263238"/>
          <path id="Trazado_150090" data-name="Trazado 150090" d="M221.025,123.556a1.157,1.157,0,1,1-1.236-1.126,1.181,1.181,0,0,1,1.236,1.126Z" transform="translate(-184.55 -98.913)" fill="#263238"/>
          <path id="Trazado_150091" data-name="Trazado 150091" d="M214.49,121.91l.375,8.032,3.684-1.337Z" transform="translate(-183.631 -98.8)" fill="#f28f8f"/>
          <path id="Trazado_150092" data-name="Trazado 150092" d="M206.173,141.257c-3.277-.7-7.445-2.636-8.353-4.927a5.654,5.654,0,0,0,1.838,3.707c1.736,1.486,6.405,2.831,6.405,2.831Z" transform="translate(-179.998 -101.943)" fill="#f28f8f"/>
          <path id="Trazado_150093" data-name="Trazado 150093" d="M206.717,158.07a47.221,47.221,0,0,0-3.621-4.982c-1.025-.978-10.206-4.208-10.41-7.219l-.227,3.543Z" transform="translate(-178.83 -104.021)" fill="#e0e0e0"/>
          <path id="Trazado_150094" data-name="Trazado 150094" d="M202.838,153.478c-2.112-2.6-4.387,4.114-4.771,4.99s-2.01.274-5.107-2.182-4.567-4.692-4.8-6.624c-.086-.712,1.118-1.728,1.8-3.613s1.236-2.018,1.877-1.924l-.086,1.361a15.587,15.587,0,0,0,2.862,2.769C199.483,151.585,201.532,150.881,202.838,153.478Z" transform="translate(-177.892 -103.636)" fill="#f5f5f5"/>
          <path id="Trazado_150095" data-name="Trazado 150095" d="M213.045,153.681a12.6,12.6,0,0,1,.845,4.872c-.109.626-3.34-3.128-3.34-3.128S211.9,152.093,213.045,153.681Z" transform="translate(-182.772 -105.63)" fill="#e0e0e0"/>
          <path id="Trazado_150096" data-name="Trazado 150096" d="M210.091,157.97c.579-3.777,1.071-5.146,1.33-5.639.5-1,1.056-.36,1.056-.36s-.782-1.455-1.955-3.433c-1.337-2.206-1.462-2.933-2.292-3.128l-.289,4.075Z" transform="translate(-182.203 -103.921)" fill="#f5f5f5"/>
        </g>
        <path id="Trazado_150097" data-name="Trazado 150097" d="M155.961,233.906l28.726,14.429-.61-10.582L188.5,235.2c-.313-8.2-2.565-16.627-8.368-18.488-7.266-2.3-16.69-3.042-22.344-8.157s-5.42-19.177-4.693-27.248,2.815-20.592-3.629-24.315-12.56.422-12.56.422c-2.761,1.783-5.959,3.081-5.694,5.248a2.346,2.346,0,0,0,1.963,2.213l16.033,60.674A13.084,13.084,0,0,0,155.961,233.906Z" transform="translate(-131.2 -106.106)" fill="#727997"/>
        <g id="Grupo_75952" data-name="Grupo 75952" transform="translate(0 49.33)" opacity="0.55">
          <path id="Trazado_150098" data-name="Trazado 150098" d="M155.961,233.906l28.726,14.429-.61-10.582L188.5,235.2c-.313-8.2-2.565-16.627-8.368-18.488-7.266-2.3-16.69-3.042-22.344-8.157s-5.42-19.177-4.693-27.248,2.815-20.592-3.629-24.315-12.56.422-12.56.422c-2.761,1.783-5.959,3.081-5.694,5.248a2.346,2.346,0,0,0,1.963,2.213l16.033,60.674A13.084,13.084,0,0,0,155.961,233.906Z" transform="translate(-131.2 -155.436)"/>
        </g>
        <path id="Trazado_150099" data-name="Trazado 150099" d="M145.207,164.482c2.581,3.089,3.91,7.993,3.433,20.037s-.282,21.765,4.434,27.67c5.584,7,24.753,12.576,24.753,12.576l7.485-3.418a9.385,9.385,0,0,0-5.177-4.63c-7.266-2.3-16.69-3.042-22.344-8.157s-5.42-19.177-4.693-27.248,2.816-20.592-3.629-24.315-12.56.422-12.56.422c-2.761,1.783-5.959,3.081-5.694,5.248a2.346,2.346,0,0,0,1.963,2.213C136.729,163.7,142.626,161.354,145.207,164.482Z" transform="translate(-131.2 -106.108)" fill="#727997"/>
        <g id="Grupo_75953" data-name="Grupo 75953" transform="translate(0 49.338)" opacity="0.45">
          <path id="Trazado_150100" data-name="Trazado 150100" d="M145.207,164.482c2.581,3.089,3.91,7.993,3.433,20.037s-.282,21.765,4.434,27.67c5.584,7,24.753,12.576,24.753,12.576l7.485-3.418a9.385,9.385,0,0,0-5.177-4.63c-7.266-2.3-16.69-3.042-22.344-8.157s-5.42-19.177-4.693-27.248,2.816-20.592-3.629-24.315-12.56.422-12.56.422c-2.761,1.783-5.959,3.081-5.694,5.248a2.346,2.346,0,0,0,1.963,2.213C136.729,163.7,142.626,161.354,145.207,164.482Z" transform="translate(-131.2 -155.446)"/>
        </g>
        <path id="Trazado_150101" data-name="Trazado 150101" d="M195.936,254.725l4.427-2.557c0-4.911-1.259-15.587-7.477-18.168-4.935-2.041-7.312.97-7.266,2.823.063,2.088,1.564,3.472,4.067,4.9C192.995,243.635,195.936,247.053,195.936,254.725Z" transform="translate(-143.059 -123.078)" fill="#727997"/>
        <path id="Trazado_150102" data-name="Trazado 150102" d="M195.936,254.725l4.427-2.557c0-4.911-1.259-15.587-7.477-18.168-4.935-2.041-7.312.97-7.266,2.823.063,2.088,1.564,3.472,4.067,4.9C192.995,243.635,195.936,247.053,195.936,254.725Z" transform="translate(-143.059 -123.078)" opacity="0.1"/>
        <path id="Trazado_150103" data-name="Trazado 150103" d="M195.936,254.725l4.427-2.557c0-4.911-1.259-15.587-7.477-18.168-4.935-2.041-7.312.97-7.266,2.823.063,2.088,1.564,3.472,4.067,4.9C192.995,243.635,195.936,247.053,195.936,254.725Z" transform="translate(-143.059 -123.078)" opacity="0.25"/>
        <g id="freepik--Arm--inject-100" transform="translate(21.796 47.871)">
          <path id="Trazado_150104" data-name="Trazado 150104" d="M178.383,226.225c.946.978,3.128,1.564,6.421-3.558,2.667-4.153,1.2-6.476,1.2-6.476s-2.565-1.157-6.2,2.44A6.413,6.413,0,0,0,178.383,226.225Z" transform="translate(-163.131 -167.177)" fill="#263238"/>
          <path id="Trazado_150105" data-name="Trazado 150105" d="M160.189,190.979c1.275-5.146,4.356-19.153,7.093-29.633.915-3.48,4.606-5.475,7.821-7.086,7.32,5.678,2.6,18.09,2.6,18.09l-5.357,21.765,16.525,14.75h0a45.646,45.646,0,0,1,3.91,3.363,18.769,18.769,0,0,1,2.98,3.84c1.6,2.581,2.041,5.475,2.346,8.368a8.454,8.454,0,0,1-.258,3.91,6.131,6.131,0,0,1-2.268,2.62c-.829.594-2.057,1.6-3.128,1.361-1.971-.446-1.932-2.495-2.6-5.021s-1.963-4.247-4-6.562-1.087-5.615-4.309-7.633c0,0-12.06-7.039-17.839-10.949C157.49,197.892,159.321,194.459,160.189,190.979Z" transform="translate(-159.109 -153.72)" fill="#ffa8a7"/>
          <path id="Trazado_150106" data-name="Trazado 150106" d="M176.025,153.57c-2.252.54-6.828-.086-8.759,2.753s-1.932,8.736-2.737,13.076c-.735,3.973-4.161,19.81-4.865,22.11s-1.635,5.662,2.808,10.018c5,4.9,11.849,11.09,11.849,11.09-1.564-3.676,2.894-10.331,7.617-10.034l-9.268-8.744,5.115-20.24s3.7-6.006,1.7-12.685S176.025,153.57,176.025,153.57Z" transform="translate(-159.069 -153.57)" fill="#455a64"/>
          <path id="Trazado_150107" data-name="Trazado 150107" d="M174.244,204.4c-1.955-1.564-5.873-1.3-7.954-.54,0,0,1.838-3.027,8.407-1.259Z" transform="translate(-160.643 -164.135)" fill="#37474f"/>
        </g>
      </g>
    </g>
    <g id="freepik--Dais--inject-100" transform="translate(126.408 142.003)">
      <path id="freepik--Shadow--inject-100" d="M207.752,394.91,157.62,365.965,315.734,274.68l50.139,28.945-42.42,24.495,15.423,8.9-73.273,42.3-15.431-8.9Z" transform="translate(-157.62 -196.745)" fill="#37474f"/>
      <g id="freepik--dais-podium--inject-100" transform="translate(3.856)">
        <path id="Trazado_150108" data-name="Trazado 150108" d="M364.39,313.631l40.77-23.541,1.916-72.351L364.39,242.383Z" transform="translate(-206.534 -184.337)" fill="#727997"/>
        <path id="Trazado_150109" data-name="Trazado 150109" d="M364.39,313.631l40.77-23.541,1.916-72.351L364.39,242.383Z" transform="translate(-206.534 -184.337)" opacity="0.35"/>
        <path id="Trazado_150110" data-name="Trazado 150110" d="M370.748,263.639l29.289-16.909-.352,44.735L370.74,308.171Z" transform="translate(-207.918 -190.655)" opacity="0.15"/>
        <path id="Trazado_150111" data-name="Trazado 150111" d="M397.026,254.688l-.336,35.976L375.339,302.99V267.2l21.679-12.513m.962-1.658L374.4,266.654v37.97L397.643,291.2,398,253.038Z" transform="translate(-208.715 -192.027)" fill="#727997"/>
        <path id="Trazado_150112" data-name="Trazado 150112" d="M406.505,228.542l.289-4.911-42.4,24.487v4.739Z" transform="translate(-206.534 -185.621)" opacity="0.2"/>
        <path id="Trazado_150113" data-name="Trazado 150113" d="M364.39,244.97v-8.908l46.542-26.872V218.1Z" transform="translate(-206.534 -182.474)" fill="#727997"/>
        <path id="Trazado_150114" data-name="Trazado 150114" d="M364.39,244.97v-8.908l46.542-26.872V218.1Z" transform="translate(-206.534 -182.474)" opacity="0.35"/>
        <path id="Trazado_150115" data-name="Trazado 150115" d="M351.494,228.618,305.21,201.9l46.542-26.872,46.284,26.716Z" transform="translate(-193.638 -175.03)" fill="#727997"/>
        <path id="Trazado_150116" data-name="Trazado 150116" d="M351.494,228.618,305.21,201.9l46.542-26.872,46.284,26.716Z" transform="translate(-193.638 -175.03)" opacity="0.2"/>
        <path id="Trazado_150117" data-name="Trazado 150117" d="M264.14,358.519l15.431,8.908V273.913l-57.851-33.4v93.514Z" transform="translate(-175.444 -189.299)" fill="#727997"/>
        <path id="Trazado_150118" data-name="Trazado 150118" d="M264.14,358.519l15.431,8.908V273.913l-57.851-33.4v93.514Z" transform="translate(-175.444 -189.299)" opacity="0.3"/>
        <path id="Trazado_150119" data-name="Trazado 150119" d="M295.69,272.673l65.562-37.853v93.514L295.69,366.187Z" transform="translate(-191.563 -188.059)" fill="#727997"/>
        <path id="Trazado_150120" data-name="Trazado 150120" d="M295.69,272.673l65.562-37.853v93.514L295.69,366.187Z" transform="translate(-191.563 -188.059)" opacity="0.2"/>
        <path id="Trazado_150121" data-name="Trazado 150121" d="M287.282,192.11,221.72,229.963l57.851,33.4,65.562-37.853Z" transform="translate(-175.444 -178.752)" fill="#727997"/>
        <path id="Trazado_150122" data-name="Trazado 150122" d="M287.282,192.11,221.72,229.963l57.851,33.4,65.562-37.853Z" transform="translate(-175.444 -178.752)" opacity="0.1"/>
        <path id="Trazado_150123" data-name="Trazado 150123" d="M300.62,297.273v66.8l1.1-.633v-66.8Z" transform="translate(-192.638 -201.531)" opacity="0.2"/>
        <path id="Trazado_150124" data-name="Trazado 150124" d="M304.14,295.241v66.79l1.1-.633V294.6Z" transform="translate(-193.405 -201.086)" opacity="0.2"/>
        <path id="Trazado_150125" data-name="Trazado 150125" d="M307.66,293.2V360l1.1-.641v-66.8Z" transform="translate(-194.172 -200.642)" opacity="0.2"/>
        <path id="Trazado_150126" data-name="Trazado 150126" d="M366.13,259.453v66.8l1.1-.633.008-66.8Z" transform="translate(-206.913 -193.289)" opacity="0.2"/>
        <path id="Trazado_150127" data-name="Trazado 150127" d="M369.66,257.421v66.8l1.095-.641.008-66.8Z" transform="translate(-207.683 -192.845)" opacity="0.2"/>
        <path id="Trazado_150128" data-name="Trazado 150128" d="M373.18,255.383v66.8l1.095-.633.008-66.8Z" transform="translate(-208.45 -192.402)" opacity="0.2"/>
        <path id="Trazado_150129" data-name="Trazado 150129" d="M315.07,289.017l34.975-20.037v57.89l-34.709,20.045Z" transform="translate(-195.787 -195.503)" opacity="0.15"/>
        <path id="Trazado_150130" data-name="Trazado 150130" d="M333.839,298.358c7.453-4.3,13.5-.782,13.5,7.821s-6.046,19.075-13.5,23.377-13.5.782-13.5-7.821S326.386,302.668,333.839,298.358Z" transform="translate(-196.935 -201.505)" fill="#727997"/>
        <path id="Trazado_150131" data-name="Trazado 150131" d="M333.839,298.358c7.453-4.3,13.5-.782,13.5,7.821s-6.046,19.075-13.5,23.377-13.5.782-13.5-7.821S326.386,302.668,333.839,298.358Z" transform="translate(-196.935 -201.505)" opacity="0.2"/>
        <path id="Trazado_150132" data-name="Trazado 150132" d="M275.96,305.99l2.471,68.221-2.471-1.423Z" transform="translate(-187.264 -203.568)" opacity="0.2"/>
        <path id="Trazado_150133" data-name="Trazado 150133" d="M343.426,309.315h0l-2.464-3.848v-.3c0-.18-.117-.266-.258-.188l-5.037,2.909v-1.564c0-.336-.156-.516-.352-.407a1.017,1.017,0,0,0-.344.782v1.6l-5.021,2.941a.6.6,0,0,0-.25.477v.055l-2.471,6.7h0a.147.147,0,0,0,0,.063,3.069,3.069,0,0,0,1.157,2.776,1.454,1.454,0,0,0,.782.2,2.127,2.127,0,0,0,1.032-.3c1.478-.86,2.683-3.379,2.683-5.631a.289.289,0,0,0-.039-.141h0l-2.346-3.66,4.536-2.612v13.561l-1.642.946a1.854,1.854,0,0,0-.782,1.47v.524l-.375.219a3.613,3.613,0,0,0-1.5,2.878v.149l9.283-5.357v-.149c0-1.111-.68-1.619-1.509-1.142l-.375.219v-.524c0-.571-.344-.829-.782-.587l-1.635.954V308.775l4.4-2.55-2.245,6.085h0a.329.329,0,0,0,0,.063,3.094,3.094,0,0,0,1.158,2.784,1.454,1.454,0,0,0,.782.2,2.127,2.127,0,0,0,1.032-.3c1.478-.86,2.683-3.386,2.683-5.631a.289.289,0,0,0-.1-.117Zm-13.335,2.87,2.119,3.308-4.239,2.448Zm-.2,8.6a1.228,1.228,0,0,1-1.267.094,2.51,2.51,0,0,1-.884-2.174l4.559-2.636c-.149,1.932-1.165,3.973-2.409,4.693Zm12.944-11.4-4.247,2.448,2.119-5.756Zm-2.346,5.263a1.251,1.251,0,0,1-1.275.1,2.51,2.51,0,0,1-.884-2.174l4.56-2.636c-.109,1.932-1.134,3.973-2.37,4.685Z" transform="translate(-198.435 -203.342)" fill="#727997"/>
        <path id="Trazado_150134" data-name="Trazado 150134" d="M295.718,273.4l-.008-11.653,70.583-40.708.008,11.653Z" transform="translate(-191.568 -185.056)" fill="#727997"/>
        <path id="Trazado_150135" data-name="Trazado 150135" d="M295.718,273.4l-.008-11.653,70.583-40.708.008,11.653Z" transform="translate(-191.568 -185.056)" opacity="0.35"/>
        <path id="Trazado_150136" data-name="Trazado 150136" d="M278.851,263.351,218.31,228.4v11.653L278.851,275Z" transform="translate(-174.701 -186.66)" fill="#727997"/>
        <path id="Trazado_150137" data-name="Trazado 150137" d="M278.851,263.351,218.31,228.4v11.653L278.851,275Z" transform="translate(-174.701 -186.66)" opacity="0.45"/>
        <path id="Trazado_150138" data-name="Trazado 150138" d="M345.125,243.7V239.66l-65.531,37.8L221.72,244.048v4.028l57.874,33.418Z" transform="translate(-175.444 -189.114)" opacity="0.1"/>
        <path id="Trazado_150139" data-name="Trazado 150139" d="M278.843,252.009,218.31,217.058l70.583-40.708L349.426,211.3Z" transform="translate(-174.701 -175.318)" fill="#727997"/>
        <path id="Trazado_150140" data-name="Trazado 150140" d="M278.843,252.009,218.31,217.058l70.583-40.708L349.426,211.3Z" transform="translate(-174.701 -175.318)" opacity="0.1"/>
        <path id="Trazado_150141" data-name="Trazado 150141" d="M221.72,397.283l42.42-24.495v-66.8l-42.42,24.495Z" transform="translate(-175.444 -203.568)" fill="#727997"/>
        <path id="Trazado_150142" data-name="Trazado 150142" d="M221.72,397.283l42.42-24.495v-66.8l-42.42,24.495Z" transform="translate(-175.444 -203.568)" opacity="0.35"/>
        <path id="Trazado_150143" data-name="Trazado 150143" d="M209.9,397.283l-38.565-22.266L167.48,305.99l42.42,24.495Z" transform="translate(-163.624 -203.568)" fill="#727997"/>
        <path id="Trazado_150144" data-name="Trazado 150144" d="M209.9,397.283l-38.565-22.266L167.48,305.99l42.42,24.495Z" transform="translate(-163.624 -203.568)" opacity="0.45"/>
        <path id="Trazado_150145" data-name="Trazado 150145" d="M221.72,327.384v-8.908L268,291.76v8.908Z" transform="translate(-175.444 -200.467)" fill="#727997"/>
        <path id="Trazado_150146" data-name="Trazado 150146" d="M221.72,327.384v-8.908L268,291.76v8.908Z" transform="translate(-175.444 -200.467)" opacity="0.35"/>
        <path id="Trazado_150147" data-name="Trazado 150147" d="M208.826,318.476,162.55,291.76v8.9l46.276,26.724Z" transform="translate(-162.55 -200.467)" fill="#727997"/>
        <path id="Trazado_150148" data-name="Trazado 150148" d="M208.826,318.476,162.55,291.76v8.9l46.276,26.724Z" transform="translate(-162.55 -200.467)" opacity="0.45"/>
        <path id="Trazado_150149" data-name="Trazado 150149" d="M252.32,310.737V305.99L209.9,330.485,167.48,305.99l.313,4.927L209.9,335.224Z" transform="translate(-163.624 -203.568)" opacity="0.2"/>
        <path id="Trazado_150150" data-name="Trazado 150150" d="M208.826,311.03,162.55,284.314l46.276-26.724L255.1,284.314Z" transform="translate(-162.55 -193.021)" fill="#727997"/>
        <path id="Trazado_150151" data-name="Trazado 150151" d="M208.826,311.03,162.55,284.314l46.276-26.724L255.1,284.314Z" transform="translate(-162.55 -193.021)" opacity="0.2"/>
        <path id="Trazado_150152" data-name="Trazado 150152" d="M231.58,344.357l27-15.587V373.3l-27,15.587Z" transform="translate(-177.593 -208.532)" opacity="0.15"/>
        <path id="Trazado_150153" data-name="Trazado 150153" d="M255.57,336.722v35.757l-19.4,11.207V347.922l19.4-11.2m.954-1.642-21.3,12.294v37.955l21.3-12.3V335.08Z" transform="translate(-178.386 -209.907)" fill="#727997"/>
      </g>
      <g id="freepik--Base--inject-100" transform="translate(136.654 26.716)">
        <path id="Trazado_150154" data-name="Trazado 150154" d="M349.3,212.9a15.442,15.442,0,0,0-14,0c-1.932,1.111-2.894,2.573-2.886,4.036v1.517c0,1.462.954,2.925,2.886,4.036a15.442,15.442,0,0,0,14,0c1.932-1.111,2.894-2.573,2.886-4.036v-1.517C352.15,215.476,351.188,214.013,349.3,212.9Z" transform="translate(-332.363 -209.633)" fill="#263238"/>
        <ellipse id="Elipse_4693" data-name="Elipse 4693" cx="9.893" cy="5.717" rx="9.893" ry="5.717" transform="translate(0 1.588)" fill="#455a64"/>
        <path id="Trazado_150155" data-name="Trazado 150155" d="M348.51,210.614a12.787,12.787,0,0,0-11.575,0c-1.564.923-2.393,2.135-2.385,3.34v2.229c0,1.212.782,2.417,2.385,3.339a12.787,12.787,0,0,0,11.575,0c1.564-.923,2.385-2.127,2.385-3.339v-2.229A3.983,3.983,0,0,0,348.51,210.614Z" transform="translate(-332.829 -209.199)" fill="#37474f"/>
        <ellipse id="Elipse_4694" data-name="Elipse 4694" cx="8.181" cy="4.724" rx="8.181" ry="4.724" transform="translate(1.713)" fill="#455a64"/>
      </g>
      <g id="freepik--Sheets--inject-100" transform="translate(76.59 19.777)">
        <g id="Grupo_75954" data-name="Grupo 75954" transform="translate(0 4.643)" opacity="0.2">
          <path id="Trazado_150156" data-name="Trazado 150156" d="M255.9,220.2l30.032,17.339a1.838,1.838,0,0,0,1.689,0l22.11-12.764a.516.516,0,0,0,0-.97l-30.04-17.347a1.885,1.885,0,0,0-1.689,0l-22.1,12.764C255.433,219.484,255.433,219.922,255.9,220.2Z" transform="translate(-255.55 -206.254)"/>
        </g>
        <path id="Trazado_150157" data-name="Trazado 150157" d="M255.9,218.2l30.032,17.339a1.838,1.838,0,0,0,1.689,0l22.11-12.764a.516.516,0,0,0,0-.978l-30.04-17.339a1.885,1.885,0,0,0-1.689,0l-22.1,12.764C255.433,217.484,255.433,217.922,255.9,218.2Z" transform="translate(-255.55 -201.175)" fill="#ebebeb"/>
        <path id="Trazado_150158" data-name="Trazado 150158" d="M278.411,204.453,257.42,216.568l28.937,16.7a1.885,1.885,0,0,0,1.689,0l20.991-12.122-28.937-16.7a1.885,1.885,0,0,0-1.689.008Z" transform="translate(-255.957 -201.174)" fill="#e0e0e0"/>
        <path id="Trazado_150159" data-name="Trazado 150159" d="M255.9,214.28l30.032,17.347a1.885,1.885,0,0,0,1.689,0l22.11-12.787a.516.516,0,0,0,0-.978l-30.04-17.339a1.838,1.838,0,0,0-1.689,0L255.9,213.3C255.433,213.576,255.433,214.014,255.9,214.28Z" transform="translate(-255.55 -200.317)" fill="#fafafa"/>
      </g>
      <g id="freepik--Pen--inject-100" transform="translate(66.186 39.8)">
        <path id="Trazado_150160" data-name="Trazado 150160" d="M242.32,229.618,260.957,240.4l3.191.641a.094.094,0,0,0,.1-.141l-.993-1.83L244.611,228.3C243.986,227.968,241.827,229.368,242.32,229.618Z" transform="translate(-242.247 -226.427)" opacity="0.2"/>
        <g id="freepik--pen--inject-100-2" data-name="freepik--pen--inject-100" transform="translate(0.622)">
          <path id="Trazado_150161" data-name="Trazado 150161" d="M244.573,226.022h.086l-.18-.1h-.2a.781.781,0,0,0-.375.117,1.885,1.885,0,0,0-.86,1.478,1,1,0,0,0,0,.219h0l.07.133h.039l.211.117a.3.3,0,0,1-.094-.07.681.681,0,0,0,.493-.109,1.877,1.877,0,0,0,.852-1.478A.7.7,0,0,0,244.573,226.022Zm-1.267,2.033Z" transform="translate(-243.042 -225.92)" fill="#727997"/>
          <path id="Trazado_150162" data-name="Trazado 150162" d="M262.489,236.349l-1.2,2.1-.2-.117L243.5,228.161a.3.3,0,0,1-.094-.07.68.68,0,0,1-.156-.485,1.9,1.9,0,0,1,.852-1.478.782.782,0,0,1,.383-.117h.2Z" transform="translate(-243.087 -225.94)" fill="#f0f0f0"/>
          <path id="Trazado_150163" data-name="Trazado 150163" d="M266.84,239.277c.469-.274.852-.055.852.493a1.885,1.885,0,0,1-.852,1.478c-.477.274-.86.055-.86-.493A1.877,1.877,0,0,1,266.84,239.277Z" transform="translate(-248.041 -228.805)" fill="#727997"/>
          <path id="Trazado_150164" data-name="Trazado 150164" d="M268.684,240.564h0l-1.095-1.2h0a.547.547,0,0,0-.68,0,1.877,1.877,0,0,0-.86,1.478.555.555,0,0,0,.336.587h.086l1.564.344a.4.4,0,0,0,.282-.063,1.079,1.079,0,0,0,.485-.845.375.375,0,0,0-.117-.305Z" transform="translate(-248.055 -228.824)" fill="#e0e0e0"/>
          <path id="Trazado_150165" data-name="Trazado 150165" d="M251.44,230.993h0a.211.211,0,0,0-.2,0,.664.664,0,0,0-.305.524.235.235,0,0,0,.07.188h.039l12.975,7.492.853-.493Z" transform="translate(-244.763 -227.02)" fill="#455a64"/>
          <path id="Trazado_150166" data-name="Trazado 150166" d="M266.08,240.423l1.2.688.852-.493-1.627-.938A2.08,2.08,0,0,0,266.08,240.423Z" transform="translate(-248.063 -228.919)" fill="#37474f"/>
          <path id="Trazado_150167" data-name="Trazado 150167" d="M269.419,241.333h0l-.985-1.087h0a.391.391,0,0,0-.493,0,1.33,1.33,0,0,0-.6,1.04.391.391,0,0,0,.235.415h.047l1.447.313h0a.235.235,0,0,0,.156,0,.6.6,0,0,0,.274-.477A.188.188,0,0,0,269.419,241.333Z" transform="translate(-248.336 -229.023)" fill="#727997"/>
          <path id="Trazado_150168" data-name="Trazado 150168" d="M269.419,241.333h0l-.985-1.087h0a.391.391,0,0,0-.493,0,1.33,1.33,0,0,0-.6,1.04.391.391,0,0,0,.235.415h.047l1.447.313h0a.235.235,0,0,0,.156,0,.6.6,0,0,0,.274-.477A.188.188,0,0,0,269.419,241.333Z" transform="translate(-248.336 -229.023)" opacity="0.1"/>
          <path id="Trazado_150169" data-name="Trazado 150169" d="M269.623,241.629a.6.6,0,0,1-.274.477.235.235,0,0,1-.156,0h0l-.727-.156c-.117,0-.2-.133-.2-.3a.978.978,0,0,1,.438-.782.282.282,0,0,1,.352,0h0l.485.54h0A.188.188,0,0,1,269.623,241.629Z" transform="translate(-248.54 -229.163)" fill="#727997"/>
          <path id="Trazado_150170" data-name="Trazado 150170" d="M269.614,241.651a.169.169,0,0,1,.274.156.6.6,0,0,1-.274.477.17.17,0,0,1-.274-.156A.61.61,0,0,1,269.614,241.651Z" transform="translate(-248.773 -229.34)" opacity="0.1"/>
          <path id="Trazado_150171" data-name="Trazado 150171" d="M247.3,228.592a.211.211,0,0,0-.211,0,.649.649,0,0,0-.305.524.219.219,0,0,0,.094.2h0l3.191,1.846a.235.235,0,0,1-.07-.188.665.665,0,0,1,.305-.524.211.211,0,0,1,.2,0Z" transform="translate(-243.857 -226.496)" fill="#fafafa"/>
          <path id="Trazado_150172" data-name="Trazado 150172" d="M247.39,228.788a.673.673,0,0,1-.305.524.211.211,0,0,1-.211,0,.219.219,0,0,1-.094-.2.649.649,0,0,1,.305-.524.211.211,0,0,1,.211,0,.219.219,0,0,1,.094.2Z" transform="translate(-243.857 -226.496)" fill="#f5f5f5"/>
          <path id="Trazado_150173" data-name="Trazado 150173" d="M245.977,226.988h0l-1.259-.727h0a.555.555,0,0,0-.516.07,1.689,1.689,0,0,0-.782,1.33.54.54,0,0,0,.227.5h0l1.275.735h0a.54.54,0,0,0,.532-.063,1.689,1.689,0,0,0,.782-1.33A.54.54,0,0,0,245.977,226.988Z" transform="translate(-243.124 -225.987)" fill="#727997"/>
          <path id="Trazado_150174" data-name="Trazado 150174" d="M245.977,226.988h0l-1.259-.727h0a.555.555,0,0,0-.516.07,1.689,1.689,0,0,0-.782,1.33.54.54,0,0,0,.227.5h0l1.275.735h0a.54.54,0,0,0,.532-.063,1.689,1.689,0,0,0,.782-1.33A.54.54,0,0,0,245.977,226.988Z" transform="translate(-243.124 -225.987)" opacity="0.05"/>
          <path id="Trazado_150175" data-name="Trazado 150175" d="M245.782,227.221c.422-.242.782-.047.782.446a1.689,1.689,0,0,1-.782,1.33c-.43.25-.782.047-.782-.438A1.705,1.705,0,0,1,245.782,227.221Z" transform="translate(-243.469 -226.181)" opacity="0.1"/>
          <path id="Trazado_150176" data-name="Trazado 150176" d="M270.276,242.153h0l-.524-.313h-.1a.289.289,0,0,0-.141.242c0,.039,0,.078.039.086h0l.524.321h0a.2.2,0,0,0,.3-.18A.211.211,0,0,0,270.276,242.153Z" transform="translate(-248.81 -229.389)" fill="#455a64"/>
          <path id="Trazado_150177" data-name="Trazado 150177" d="M270.465,242.278h0a.149.149,0,0,0-.094,0,.321.321,0,0,0-.141.25.1.1,0,0,0,.039.086h.063a.2.2,0,0,0,.2-.2A.18.18,0,0,0,270.465,242.278Z" transform="translate(-248.967 -229.483)" fill="#263238"/>
        </g>
      </g>
      <g id="freepik--Books--inject-100" transform="translate(16.465 66.393)">
        <path id="freepik--shadow--inject-100-2" data-name="freepik--shadow--inject-100" d="M207.444,303.288l3.832-2.213,3.965,2.292-.657-1.908,3.965.782-4.63-2.667,14.789-8.54c.235-.141.235-.352,0-.493l-27.8-15.978a.962.962,0,0,0-.852,0L178.843,286.8a.258.258,0,0,0,0,.485L206.6,303.312A.946.946,0,0,0,207.444,303.288Z" transform="translate(-178.673 -263.091)" opacity="0.1"/>
        <path id="Trazado_150178" data-name="Trazado 150178" d="M217.729,307.937l-.649-.383a1.072,1.072,0,0,1,.548-.039C217.8,307.6,217.729,307.937,217.729,307.937Z" transform="translate(-187.043 -270.289)"/>
        <path id="Trazado_150179" data-name="Trazado 150179" d="M217.832,306.543a.782.782,0,0,0-1.165,0c-.641.587-.673,1.165-.938,1.15S215.47,303,215.47,303l2.511,2.346Z" transform="translate(-186.692 -269.309)"/>
        <path id="Trazado_150180" data-name="Trazado 150180" d="M184.847,283.01H184.8l.407-.235,17.323-9.995,25.238,16.33c.414.242.493.586.164.782l-.594.344-16.189,9.385-.109-.086Z" transform="translate(-180.008 -262.724)" fill="#455a64"/>
        <path id="Trazado_150181" data-name="Trazado 150181" d="M215.713,300.138l1.251-.258V304.9c-.782.321-1.236.626-1.314,1.259Z" transform="translate(-186.731 -268.629)" fill="#727997"/>
        <path id="Trazado_150182" data-name="Trazado 150182" d="M217.8,302.186l16.041-9.26a1.111,1.111,0,0,0,.5-.876V287.1l-16.189,9.432a1.494,1.494,0,0,1-.782.923c-.579.219-.141.446-.141.446v4.215C217.8,302.061,217.8,302.186,217.8,302.186Z" transform="translate(-187.04 -265.845)" fill="#ebebeb"/>
        <path id="Trazado_150183" data-name="Trazado 150183" d="M208.878,295.524c.164-.094.3-.1.3,0v.156c0,.172.266.164.594,0s.594-.485.594-.657v-.156c0-.094.219-.289.5-.454l-26.1-14.953-.407.235a.414.414,0,0,0-.094.219v.156c0,.172-.266.469-.594.657s-.594.2-.594,0v-.156c0-.086-.125-.086-.3,0Z" transform="translate(-179.568 -264.18)" fill="#37474f"/>
        <path id="Trazado_150184" data-name="Trazado 150184" d="M184.847,276.89H184.8l.407-.227,17.323-10,25.238,14.578c.414.235.493.587.164.782l-.594.336-16.189,9.753Z" transform="translate(-180.008 -261.39)" fill="#455a64"/>
        <path id="Trazado_150185" data-name="Trazado 150185" d="M182.929,280.67,209,295.717l-.915.72L182.1,281.429a1.009,1.009,0,0,1,.344-.485Z" transform="translate(-179.42 -264.443)" fill="#455a64"/>
        <path id="Trazado_150186" data-name="Trazado 150186" d="M182.168,288.4h-.047l-.055-.063V288.3a.845.845,0,0,1-.063-.149,1.349,1.349,0,0,1-.055-.164,1.859,1.859,0,0,1,0-.2v-.211a2.189,2.189,0,0,1,0-.227v-4.309a3.512,3.512,0,0,1,.242-1.314l25.989,15.008.109,6.749L182.3,288.469Z" transform="translate(-179.386 -264.672)" fill="#455a64"/>
        <path id="Trazado_150187" data-name="Trazado 150187" d="M208.053,296.668h0l-22.328-10.456c-1.236-.579-1.838.634-1.564,1.893a5.991,5.991,0,0,0,1.345,2.237h0l-3.347-1.932h-.047l-.055-.063v-.039a.847.847,0,0,1-.063-.149,1.338,1.338,0,0,1-.055-.164,1.868,1.868,0,0,1,0-.2q0-.059,0-.117v-.094a2.2,2.2,0,0,1,0-.227v-4.309a3.511,3.511,0,0,1,.242-1.314Z" transform="translate(-179.384 -264.674)" opacity="0.1"/>
        <path id="Trazado_150188" data-name="Trazado 150188" d="M215,298.882h.587a2.612,2.612,0,0,1,.282-1.275.782.782,0,0,0,.477.156,1.455,1.455,0,0,0,.72-.227,2.166,2.166,0,0,0,.673-.587V296.9a.985.985,0,0,0,.172-.493l15.415-8.869.524-.305.665-.383a.36.36,0,0,0,.2-.305v-.68a.36.36,0,0,1-.2.313h0l-1.768,1.009-14.86,8.6c-.274.164-.5.36-.5.454v.156a.485.485,0,0,1-.141.274,1.611,1.611,0,0,1-.454.383c-.328.188-.594.2-.594,0v-.133c0-.094-.125-.086-.3,0l-.289.172a2.346,2.346,0,0,0-.61,1.791Z" transform="translate(-186.587 -265.574)" fill="#37474f"/>
        <path id="Trazado_150189" data-name="Trazado 150189" d="M215.628,300.7v4.63h0a1.658,1.658,0,0,1,.876-1.095,1.47,1.47,0,0,1,.712-.219.782.782,0,0,1,.516.2h.055l.1-.063,14.86-8.6.852-.493.25-.141.72-.414a.352.352,0,0,0,.156-.282v.68a.329.329,0,0,1-.149.266h0l-.266.149-.164.1-.282.164-.18.1-.125.07-.219.125-11.8,6.812-3.762,2.174c-.274.156-.485.211-.5.133v-.149c0-.188-.266-.188-.587,0a.782.782,0,0,0-.469.594v.188a.274.274,0,0,1-.086.219l-.086.047-.188.11-.227.133a.242.242,0,0,1-.3,0h0a.273.273,0,0,1-.047-.07h0a.846.846,0,0,1-.063-.149,1.113,1.113,0,0,1-.055-.172.366.366,0,0,0-.039-.2c-.039-.07,0-.078,0-.117a.383.383,0,0,0,0-.094v-4.536Z" transform="translate(-186.615 -267.396)" fill="#37474f"/>
        <path id="Trazado_150190" data-name="Trazado 150190" d="M182.1,278.515l24.7,14.257L225.474,282a.3.3,0,0,0,0-.579L201.026,267.3,184.6,276.771h0l-.407.242a.375.375,0,0,0-.094.211v.156c0,.18-.266.469-.594.657h-.055l-.54-.321-.258.149h-.039l-.2.11A1.009,1.009,0,0,0,182.1,278.515Z" transform="translate(-179.42 -261.53)" opacity="0.1"/>
        <path id="Trazado_150191" data-name="Trazado 150191" d="M235.573,286.073l-.743-.4.68-.164A.54.54,0,0,1,235.573,286.073Z" transform="translate(-190.911 -265.498)" fill="#727997"/>
        <path id="Trazado_150192" data-name="Trazado 150192" d="M235.573,286.073l-.743-.4.68-.164A.54.54,0,0,1,235.573,286.073Z" transform="translate(-190.911 -265.498)" opacity="0.5"/>
        <path id="Trazado_150193" data-name="Trazado 150193" d="M203.7,292.063a1.658,1.658,0,0,0,1.509,0l16.963-9.8-25.394-14.429-.594-.344-16.971,9.565a.461.461,0,0,0,0,.868Z" transform="translate(-178.725 -261.571)" fill="#727997"/>
        <path id="Trazado_150194" data-name="Trazado 150194" d="M218.175,275.55l5.92,3.4,3.832-2.205,4.45,2.573v2.972c0,.391-.43.946-.594.853a4.345,4.345,0,0,0-.852.3,6.312,6.312,0,0,0-1.228.907l-13.593-7.61Z" transform="translate(-186.831 -263.328)" fill="#727997"/>
        <path id="Trazado_150195" data-name="Trazado 150195" d="M218.175,275.55l5.92,3.4,3.832-2.205,4.45,2.573v2.972c0,.391-.43.946-.594.853a4.345,4.345,0,0,0-.852.3,6.312,6.312,0,0,0-1.228.907l-13.593-7.61Z" transform="translate(-186.831 -263.328)" opacity="0.15"/>
        <path id="Trazado_150196" data-name="Trazado 150196" d="M233.79,280.619v3.269h.047a1.565,1.565,0,0,1,.727-.227.783.783,0,0,1,.477.109V279.9Z" transform="translate(-190.684 -264.276)" fill="#37474f"/>
        <path id="Trazado_150197" data-name="Trazado 150197" d="M232.72,285.165a.986.986,0,0,1,.219-.547,1.2,1.2,0,0,1,.2-.242l.07-.07.094-.078.078-.055c.055-.047.117-.078.172-.117V280.84l-.829.485v3.84Z" transform="translate(-190.451 -264.48)" fill="#e0e0e0"/>
        <path id="Trazado_150198" data-name="Trazado 150198" d="M236.579,283.3c0,.391-.43.946-.594.853h0l-.594-.391v-2.448l.594-1.025.329-.117.266.156Z" transform="translate(-191.033 -264.334)" opacity="0.4"/>
        <path id="Trazado_150199" data-name="Trazado 150199" d="M211.57,290.989v3.684a1.064,1.064,0,0,0,.508-.117l1.861-1.079,14.171-8.181V281.44Z" transform="translate(-185.842 -264.611)" fill="#ebebeb"/>
        <path id="Trazado_150200" data-name="Trazado 150200" d="M230.245,284.59l-3.965,2.291a10.074,10.074,0,0,1,1.986-1.322A9.068,9.068,0,0,1,230.245,284.59Z" transform="translate(-189.047 -265.298)" opacity="0.15"/>
        <path id="Trazado_150201" data-name="Trazado 150201" d="M179.85,276v2.784a1.111,1.111,0,0,0,.5.868l21.945,12.67,1.861,1.079a1.033,1.033,0,0,0,.5.117V290.25Z" transform="translate(-178.93 -263.426)" fill="#f5f5f5"/>
        <path id="Trazado_150202" data-name="Trazado 150202" d="M201.76,261.533l25.394,14.672v.336c0,.188.266.258.594.07s.594-.422.594-.782v-.321L202.5,260.595l-.109-.055a.36.36,0,0,0-.039.156v.156C202.347,261.041,202.081,261.346,201.76,261.533Z" transform="translate(-183.704 -260.057)" fill="#727997"/>
        <path id="Trazado_150203" data-name="Trazado 150203" d="M201.76,261.533l25.394,14.672v.336c0,.188.266.258.594.07s.594-.422.594-.782v-.321L202.5,260.595l-.109-.055a.36.36,0,0,0-.039.156v.156C202.347,261.041,202.081,261.346,201.76,261.533Z" transform="translate(-183.704 -260.057)" opacity="0.1"/>
        <path id="Trazado_150204" data-name="Trazado 150204" d="M205.226,286.216l16.588-9.581c.211-.11.407-.2.485-.156l-.109-.055-25.394-14.672-.3-.172a.962.962,0,0,0-.782.125l-16.424,9.5a.461.461,0,0,0,0,.876l24.487,14.132a1.658,1.658,0,0,0,1.447,0Z" transform="translate(-178.739 -260.276)" fill="#727997"/>
        <path id="Trazado_150205" data-name="Trazado 150205" d="M198.212,267.008l-9.174,5.295c-.391.219-.391.587,0,.782l1.236.712a1.564,1.564,0,0,0,1.408,0l9.174-5.263a.43.43,0,0,0,0-.782l-1.236-.712A1.564,1.564,0,0,0,198.212,267.008Z" transform="translate(-180.868 -261.433)" fill="#fff"/>
        <path id="Trazado_150206" data-name="Trazado 150206" d="M206.654,285.024a2.62,2.62,0,0,0-2.6,0,.2.2,0,0,1-.164,0l-20.788-12a.164.164,0,0,1,0-.282.755.755,0,0,0,0-1.314.172.172,0,0,1-.078-.141.157.157,0,0,1,.078-.141l12.419-7.148a.156.156,0,0,1,.164,0,2.62,2.62,0,0,0,2.6,0,.156.156,0,0,1,.164,0l20.811,12.013a.164.164,0,0,1,0,.282.782.782,0,0,0,0,1.314.165.165,0,0,1,0,.289L206.8,285.063a.179.179,0,0,1-.086,0A.15.15,0,0,1,206.654,285.024Zm11.919-8.118a1.11,1.11,0,0,1,.328-.782l-20.514-11.841a2.925,2.925,0,0,1-2.761,0l-12.154,7.039a1.1,1.1,0,0,1,0,1.564l20.5,11.833a2.925,2.925,0,0,1,2.761,0L218.9,277.68a1.072,1.072,0,0,1-.329-.774Z" transform="translate(-179.62 -260.804)" fill="#fff"/>
        <path id="Trazado_150207" data-name="Trazado 150207" d="M202.56,260.405l.109.055,25.879,14.946a.2.2,0,0,1,.055-.07l.086-.047.188-.109.227-.133a.235.235,0,0,1,.3,0h0l.078.109a.843.843,0,0,1,.063.149,1,1,0,0,1,.055.164.393.393,0,0,0,.039.2c.039.07,0,.078,0,.117a.382.382,0,0,0,0,.094v-.5a1.564,1.564,0,0,0-.782-1.165l-24.385-14.085a1.564,1.564,0,0,0-1.353-.1l-.305.188h0l-.125.078h0a.329.329,0,0,0-.125.109Z" transform="translate(-183.878 -259.922)" fill="#727997"/>
        <path id="Trazado_150208" data-name="Trazado 150208" d="M212.32,295.58l1.025-.594,15.36-8.869a1.017,1.017,0,0,1,.211-.555,2.166,2.166,0,0,1,.673-.587,1.564,1.564,0,0,1,.72-.227.782.782,0,0,1,.477.156,2.612,2.612,0,0,0,.282-1.275h.587a2.346,2.346,0,0,1-.594,1.8l-.289.172c-.164.094-.3.1-.3,0v-.117c0-.172-.266-.164-.594,0s-.594.485-.594.657v.156c0,.094-.227.3-.5.454l-14.86,8.6-1.611.931h0a1.564,1.564,0,0,1-.782.18v-.673A1.565,1.565,0,0,0,212.32,295.58Z" transform="translate(-185.833 -265.088)" fill="#727997"/>
        <path id="Trazado_150209" data-name="Trazado 150209" d="M212.32,295.58l1.025-.594,15.36-8.869a1.017,1.017,0,0,1,.211-.555,2.166,2.166,0,0,1,.673-.587,1.564,1.564,0,0,1,.72-.227.782.782,0,0,1,.477.156,2.612,2.612,0,0,0,.282-1.275h.587a2.346,2.346,0,0,1-.594,1.8l-.289.172c-.164.094-.3.1-.3,0v-.117c0-.172-.266-.164-.594,0s-.594.485-.594.657v.156c0,.094-.227.3-.5.454l-14.86,8.6-1.611.931h0a1.564,1.564,0,0,1-.782.18v-.673A1.565,1.565,0,0,0,212.32,295.58Z" transform="translate(-185.833 -265.088)" opacity="0.3"/>
        <path id="Trazado_150210" data-name="Trazado 150210" d="M212.314,290.069h0l1.025-.594,11.8-6.8,3.762-2.182c.274-.156.493-.211.5-.125h0v.172c0,.188.266.188.587,0a.782.782,0,0,0,.469-.594v-.188a.273.273,0,0,1,.086-.219l.086-.047.188-.11.227-.133a.235.235,0,0,1,.3,0h0l.047.07h0a.837.837,0,0,1,.063.149,1.009,1.009,0,0,1,.055.164.392.392,0,0,0,.039.2c.039.07,0,.078,0,.117a.382.382,0,0,0,0,.094v2.534h-.587v-2.636h0a1.627,1.627,0,0,1-.876,1.087,1.47,1.47,0,0,1-.712.227.782.782,0,0,1-.516-.2H228.8l-.1.063-14.86,8.6-1.517,1.048h0a1.564,1.564,0,0,1-.782.172v-.673A1.564,1.564,0,0,0,212.314,290.069Z" transform="translate(-185.835 -264.121)" fill="#727997"/>
        <path id="Trazado_150211" data-name="Trazado 150211" d="M212.314,290.069h0l1.025-.594,11.8-6.8,3.762-2.182c.274-.156.493-.211.5-.125h0v.172c0,.188.266.188.587,0a.782.782,0,0,0,.469-.594v-.188a.273.273,0,0,1,.086-.219l.086-.047.188-.11.227-.133a.235.235,0,0,1,.3,0h0l.047.07h0a.837.837,0,0,1,.063.149,1.009,1.009,0,0,1,.055.164.392.392,0,0,0,.039.2c.039.07,0,.078,0,.117a.382.382,0,0,0,0,.094v2.534h-.587v-2.636h0a1.627,1.627,0,0,1-.876,1.087,1.47,1.47,0,0,1-.712.227.782.782,0,0,1-.516-.2H228.8l-.1.063-14.86,8.6-1.517,1.048h0a1.564,1.564,0,0,1-.782.172v-.673A1.564,1.564,0,0,0,212.314,290.069Z" transform="translate(-185.835 -264.121)" opacity="0.3"/>
        <path id="Trazado_150212" data-name="Trazado 150212" d="M178.9,274.45v.68a.524.524,0,0,0,.305.43h0l22.876,13.209,1.611.923h0a1.657,1.657,0,0,0,.782.172v-.673a1.462,1.462,0,0,1-.782-.18l-1.025-.587h0L179.213,274.88A.548.548,0,0,1,178.9,274.45Z" transform="translate(-178.723 -263.088)" fill="#727997"/>
        <path id="Trazado_150213" data-name="Trazado 150213" d="M178.9,274.45v.68a.524.524,0,0,0,.305.43h0l22.876,13.209,1.611.923h0a1.657,1.657,0,0,0,.782.172v-.673a1.462,1.462,0,0,1-.782-.18l-1.025-.587h0L179.213,274.88A.548.548,0,0,1,178.9,274.45Z" transform="translate(-178.723 -263.088)" opacity="0.2"/>
        <path id="Trazado_150214" data-name="Trazado 150214" d="M178.9,280.26v.688a.532.532,0,0,0,.305.43h0l22.876,13.209,1.611.931h0a1.564,1.564,0,0,0,.782.18v-.673a1.564,1.564,0,0,1-.782-.18l-1.025-.594h0l-23.462-13.546A.547.547,0,0,1,178.9,280.26Z" transform="translate(-178.723 -264.354)" fill="#727997"/>
        <path id="Trazado_150215" data-name="Trazado 150215" d="M178.9,280.26v.688a.532.532,0,0,0,.305.43h0l22.876,13.209,1.611.931h0a1.564,1.564,0,0,0,.782.18v-.673a1.564,1.564,0,0,1-.782-.18l-1.025-.594h0l-23.462-13.546A.547.547,0,0,1,178.9,280.26Z" transform="translate(-178.723 -264.354)" opacity="0.2"/>
        <path id="Trazado_150216" data-name="Trazado 150216" d="M229.771,285.08v9.166l-1.322-1.525-1.33,3.05v-9.166Z" transform="translate(-189.231 -265.404)" fill="#727997"/>
        <path id="Trazado_150217" data-name="Trazado 150217" d="M229.771,285.08v9.166l-1.322-1.525-1.33,3.05v-9.166Z" transform="translate(-189.231 -265.404)" opacity="0.5"/>
        <path id="Trazado_150218" data-name="Trazado 150218" d="M222.163,300.31V302.8a2.346,2.346,0,0,0,1.15,2l3.48,2-3.308-.375.657,1.908-3.465-2.01a2.3,2.3,0,0,1-1.157-1.994v-2.487Z" transform="translate(-187.574 -268.723)" fill="#727997"/>
        <path id="Trazado_150219" data-name="Trazado 150219" d="M222.163,300.31V302.8a2.346,2.346,0,0,0,1.15,2l3.48,2-3.308-.375.657,1.908-3.465-2.01a2.3,2.3,0,0,1-1.157-1.994v-2.487Z" transform="translate(-187.574 -268.723)" opacity="0.5"/>
        <path id="Trazado_150220" data-name="Trazado 150220" d="M222.775,299.75l-3.965,2.292a9.894,9.894,0,0,1,1.979-1.33A9.27,9.27,0,0,1,222.775,299.75Z" transform="translate(-187.42 -268.601)" opacity="0.15"/>
      </g>
    </g>
    <g id="freepik--Flag--inject-100" transform="translate(54.892 23.47)">
      <g id="freepik--flag--inject-100-2" data-name="freepik--flag--inject-100">
        <path id="Trazado_150221" data-name="Trazado 150221" d="M96.091,328.563c-6.843-3.957-17.933-3.957-24.776,0-3.418,1.971-5.123,4.56-5.115,7.148v2.714c0,2.589,1.7,5.17,5.115,7.148,6.843,3.91,17.933,3.91,24.776,0,3.418-1.979,5.123-4.56,5.115-7.148v-2.683C101.237,333.123,99.509,330.534,96.091,328.563Z" transform="translate(-66.182 -89.308)" fill="#727997"/>
        <path id="Trazado_150222" data-name="Trazado 150222" d="M96.091,328.563c-6.843-3.957-17.933-3.957-24.776,0-3.418,1.971-5.123,4.56-5.115,7.148v2.714c0,2.589,1.7,5.17,5.115,7.148,6.843,3.91,17.933,3.91,24.776,0,3.418-1.979,5.123-4.56,5.115-7.148v-2.683C101.237,333.123,99.509,330.534,96.091,328.563Z" transform="translate(-66.182 -89.308)" opacity="0.35"/>
        <path id="Trazado_150223" data-name="Trazado 150223" d="M71.31,328.564c-6.843,3.95-6.843,10.347,0,14.3s17.933,3.957,24.776,0,6.843-10.347,0-14.3S78.153,324.606,71.31,328.564Z" transform="translate(-66.177 -89.309)" fill="#727997"/>
        <path id="Trazado_150224" data-name="Trazado 150224" d="M71.31,328.564c-6.843,3.95-6.843,10.347,0,14.3s17.933,3.957,24.776,0,6.843-10.347,0-14.3S78.153,324.606,71.31,328.564Z" transform="translate(-66.177 -89.309)" opacity="0.1"/>
        <path id="Trazado_150225" data-name="Trazado 150225" d="M95.329,325.38c-6.147-3.543-16.111-3.543-22.258,0-3.074,1.775-4.6,4.1-4.591,6.429v1.76c0,2.346,1.517,4.693,4.591,6.421,6.147,3.551,16.111,3.551,22.258,0,3.074-1.768,4.6-4.1,4.591-6.421v-1.76C99.928,329.486,98.4,327.155,95.329,325.38Z" transform="translate(-66.679 -88.682)" fill="#727997"/>
        <path id="Trazado_150226" data-name="Trazado 150226" d="M95.329,325.38c-6.147-3.543-16.111-3.543-22.258,0-3.074,1.775-4.6,4.1-4.591,6.429v1.76c0,2.346,1.517,4.693,4.591,6.421,6.147,3.551,16.111,3.551,22.258,0,3.074-1.768,4.6-4.1,4.591-6.421v-1.76C99.928,329.486,98.4,327.155,95.329,325.38Z" transform="translate(-66.679 -88.682)" opacity="0.2"/>
        <ellipse id="Elipse_4695" data-name="Elipse 4695" cx="15.736" cy="9.088" rx="15.736" ry="9.088" transform="translate(1.785 234.039)" fill="#727997"/>
        <path id="Trazado_150227" data-name="Trazado 150227" d="M89.678,50.454a1.564,1.564,0,0,0-1.564-1.564h0a1.564,1.564,0,0,0-1.564,1.564V272.175h0a.782.782,0,0,0,.454.633,2.417,2.417,0,0,0,2.174,0,.782.782,0,0,0,.454-.633h0Z" transform="translate(-70.617 -29.009)" fill="#727997"/>
        <path id="Trazado_150228" data-name="Trazado 150228" d="M89.678,50.454a1.564,1.564,0,0,0-1.564-1.564h0a1.564,1.564,0,0,0-1.564,1.564V272.175h0a.782.782,0,0,0,.454.633,2.417,2.417,0,0,0,2.174,0,.782.782,0,0,0,.454-.633h0Z" transform="translate(-70.617 -29.009)" opacity="0.2"/>
        <path id="Trazado_150229" data-name="Trazado 150229" d="M88.144,48.92h0a1.564,1.564,0,0,0-1.564,1.564v1.83a4.348,4.348,0,0,0,1.564.289,4.192,4.192,0,0,0,1.564-.3V50.461A1.564,1.564,0,0,0,88.144,48.92Z" transform="translate(-70.624 -29.016)" opacity="0.2"/>
        <path id="Trazado_150230" data-name="Trazado 150230" d="M91.677,45.734a4.294,4.294,0,1,1-4.294-4.294,4.294,4.294,0,0,1,4.294,4.294Z" transform="translate(-69.863 -27.386)" fill="#727997"/>
        <path id="Trazado_150231" data-name="Trazado 150231" d="M70.858,221.721c-1.009,11.278,15.438,18.864,28.155,16L95.337,183.36,74.69,186.152Z" transform="translate(-67.188 -58.313)" fill="#7e5ee3"/>
        <path id="Trazado_150232" data-name="Trazado 150232" d="M71.543,212.173a16,16,0,0,0-.673,2.808l6.656-60.4c11.309,3.512,20.389,12.662,22.047,25.918C101.371,194.74,76.524,196.82,71.543,212.173Z" transform="translate(-67.2 -52.041)" fill="#3c2488"/>
        <path id="Trazado_150233" data-name="Trazado 150233" d="M89.932,41.917a4.09,4.09,0,0,0-3.832,0,2.7,2.7,0,0,0,3.832,0Z" transform="translate(-70.519 -27.386)" opacity="0.2"/>
        <path id="Trazado_150234" data-name="Trazado 150234" d="M91.1,33.958c0,1.932-1.564,4.231-3.5,4.231s-3.5-2.3-3.5-4.231,3.5-10.488,3.5-10.488S91.1,32.026,91.1,33.958Z" transform="translate(-70.085 -23.47)" fill="#727997"/>
        <path id="Trazado_150235" data-name="Trazado 150235" d="M86.71,57.9,72.93,136.632s10.081,3.676,16.056,7.649c9.807,6.53,11.043,15.368,11.043,15.368Z" transform="translate(-67.649 -30.973)" fill="#7e5ee3"/>
      </g>
    </g>
    <g id="freepik--speech-bubble--inject-100" transform="translate(269.249 60.22)">
      <g id="freepik--speech-bubble--inject-100-2" data-name="freepik--speech-bubble--inject-100">
        <g id="freepik--speech-bubble--inject-100-3" data-name="freepik--speech-bubble--inject-100">
          <path id="Trazado_150236" data-name="Trazado 150236" d="M387.375,70.773,355.193,89.308a2.862,2.862,0,0,0-1.283,2.229v36.9a2.823,2.823,0,0,0,1.29,2.213l4.606,2.581a2.886,2.886,0,0,0,2.581,0l32.175-18.551a2.855,2.855,0,0,0,1.29-2.229V75.575a2.8,2.8,0,0,0-1.3-2.213l-4.6-2.6a2.886,2.886,0,0,0-2.581.016Z" transform="translate(-343.236 -70.46)" fill="#ff9d00"/>
          <path id="Trazado_150237" data-name="Trazado 150237" d="M363.1,133.63v-36.9a2.839,2.839,0,0,1,1.29-2.221l32.175-18.559c.712-.407,1.29-.078,1.29.782v36.9a2.854,2.854,0,0,1-1.29,2.229L364.39,134.4C363.679,134.788,363.1,134.452,363.1,133.63Z" transform="translate(-345.238 -71.619)" fill="#ff9d00"/>
          <path id="Trazado_150238" data-name="Trazado 150238" d="M362.388,138.721a2.933,2.933,0,0,1-2.581,0l-4.607-2.589a2.784,2.784,0,0,1-1.29-2.205V97.044a2.628,2.628,0,0,1,.407-1.314l7.164,4.09a2.589,2.589,0,0,0-.383,1.259v36.9C361.1,138.729,361.629,139.159,362.388,138.721Z" transform="translate(-343.236 -75.967)" opacity="0.2"/>
          <path id="Trazado_150239" data-name="Trazado 150239" d="M395.941,75.317c-.094-.641-.626-.876-1.267-.508L362.5,93.352a2.628,2.628,0,0,0-.907.962l-7.172-4.09a2.636,2.636,0,0,1,.892-.915l32.175-18.543a2.886,2.886,0,0,1,2.581,0l4.6,2.581A2.808,2.808,0,0,1,395.941,75.317Z" transform="translate(-343.746 -70.461)" fill="#fff" opacity="0.4"/>
          <path id="Trazado_150240" data-name="Trazado 150240" d="M350.936,113.57l-10.347,10.5a1.142,1.142,0,0,0,.2,1.76l7.164,4.114,10.167-12.255Z" transform="translate(-340.262 -79.855)" fill="#ff9d00"/>
          <path id="Trazado_150241" data-name="Trazado 150241" d="M350.936,113.57l-10.347,10.5a1.142,1.142,0,0,0,.2,1.76l7.164,4.114,10.167-12.255Z" transform="translate(-340.262 -79.855)" opacity="0.1"/>
          <path id="Trazado_150242" data-name="Trazado 150242" d="M360.126,118.87l-10.339,10.519a1.134,1.134,0,0,0,.97,1.924l9.385-1.353C361.135,129.96,361.135,118.87,360.126,118.87Z" transform="translate(-342.265 -81.01)" fill="#ff9d00"/>
        </g>
        <path id="Trazado_150243" data-name="Trazado 150243" d="M393.95,100.954h0l-3.551-7.9a.732.732,0,0,0,0-.125V92.64c0-.274-.164-.391-.368-.282l-6.374,3.684a.782.782,0,0,0-.884-.516V94.243c0-.485-.227-.782-.5-.587a1.47,1.47,0,0,0-.5,1.157V96.1a3.441,3.441,0,0,0-.884,1.564l-6.374,3.684a.876.876,0,0,0-.368.7v.078a.352.352,0,0,0,.18.266l-3.308,11.387h0a.353.353,0,0,0,0,.086c0,3.715,3.05,2.01,4.145,1.369s3.957-2.346,3.957-5.608a.336.336,0,0,0-.055-.2h0l-3.371-7.508,5.279-3.05a.782.782,0,0,0,.829.407v11.5l-.594.368v7.125l-1.768,1.017a2.667,2.667,0,0,0-1.111,2.119v.782l-.54.313a5.193,5.193,0,0,0-2.166,4.145v.211l13.366-7.735V118.9c0-1.564-.978-2.346-2.174-1.642l-.54.321V116.8c0-.821-.5-1.2-1.111-.837l-1.768,1.017v-7.2l-.594.36V98.7a3.551,3.551,0,0,0,.837-1.361l5.475-3.183-3.222,11.1h0a.416.416,0,0,0,0,.094c0,3.715,3.042,2.01,4.145,1.369S394,104.371,394,101.11a.406.406,0,0,0-.047-.156ZM378.222,109.5l-6.1,3.527,3.05-10.636Zm8.767-4.919,3.058-10.644,3.05,7.117Z" transform="translate(-346.964 -75.224)" fill="#455a64"/>
      </g>
    </g>
  </g>
</svg>
